<svg width="198" height="150" viewBox="0 0 198 150" fill="none" xmlns="http://www.w3.org/2000/svg">
<g filter="url(#filter0_i_1363_833)">
<rect y="107" width="27.6" height="43" rx="13.8" fill="url(#paint0_linear_1363_833)"/>
</g>
<g filter="url(#filter1_i_1363_833)">
<rect x="42.6001" y="70" width="27.6" height="80" rx="13.8" fill="url(#paint1_linear_1363_833)"/>
</g>
<g filter="url(#filter2_i_1363_833)">
<rect x="85.2" y="27" width="27.6" height="123" rx="13.8" fill="url(#paint2_linear_1363_833)"/>
</g>
<g filter="url(#filter3_i_1363_833)">
<rect x="127.8" y="93" width="27.6" height="57" rx="13.8" fill="url(#paint3_linear_1363_833)"/>
</g>
<g filter="url(#filter4_i_1363_833)">
<rect x="170.4" y="64" width="27.6" height="86" rx="13.8" fill="url(#paint4_linear_1363_833)"/>
</g>
<rect x="79" width="40" height="16" rx="8" fill="url(#paint5_linear_1363_833)"/>
<path d="M89.6463 12V11.0483L92.1712 8.57315C92.4126 8.32931 92.6139 8.11269 92.7749 7.9233C92.9358 7.7339 93.0566 7.55043 93.1371 7.37287C93.2176 7.19531 93.2578 7.00592 93.2578 6.80469C93.2578 6.57505 93.2057 6.37855 93.1016 6.2152C92.9974 6.04948 92.8542 5.92164 92.6719 5.83168C92.4896 5.74171 92.2824 5.69673 92.0504 5.69673C91.8113 5.69673 91.6018 5.74645 91.4219 5.84588C91.242 5.94294 91.1023 6.08144 91.0028 6.26136C90.9058 6.44129 90.8572 6.65554 90.8572 6.90412H89.6037C89.6037 6.44247 89.709 6.04119 89.9197 5.70028C90.1304 5.35937 90.4205 5.09541 90.7898 4.90838C91.1615 4.72135 91.5876 4.62784 92.0682 4.62784C92.5559 4.62784 92.9844 4.71899 93.3537 4.90128C93.723 5.08357 94.0095 5.33333 94.2131 5.65057C94.419 5.9678 94.522 6.33002 94.522 6.73722C94.522 7.00947 94.4699 7.27699 94.3658 7.53977C94.2616 7.80256 94.0781 8.09375 93.8153 8.41335C93.5549 8.73295 93.1892 9.12003 92.718 9.57457L91.4645 10.8494V10.8991H94.6321V12H89.6463ZM95.5696 10.6506V9.60298L98.6555 4.72727H99.5291V6.21875H98.9964L96.919 9.51065V9.56747H101.227V10.6506H95.5696ZM99.0391 12V10.331L99.0533 9.86222V4.72727H100.296V12H99.0391ZM102.432 12V4.72727H103.75V8.06889H103.838L106.676 4.72727H108.284L105.472 7.99077L108.309 12H106.725L104.556 8.8821L103.75 9.83381V12H102.432Z" fill="black"/>
<path d="M99.433 22.25C99.2406 22.5833 98.7594 22.5833 98.567 22.25L95.1029 16.25C94.9104 15.9167 95.151 15.5 95.5359 15.5L102.464 15.5C102.849 15.5 103.09 15.9167 102.897 16.25L99.433 22.25Z" fill="#FFCF10"/>
<defs>
<filter id="filter0_i_1363_833" x="0" y="107" width="27.6001" height="47" filterUnits="userSpaceOnUse" color-interpolation-filters="sRGB">
<feFlood flood-opacity="0" result="BackgroundImageFix"/>
<feBlend mode="normal" in="SourceGraphic" in2="BackgroundImageFix" result="shape"/>
<feColorMatrix in="SourceAlpha" type="matrix" values="0 0 0 0 0 0 0 0 0 0 0 0 0 0 0 0 0 0 127 0" result="hardAlpha"/>
<feOffset dy="4"/>
<feGaussianBlur stdDeviation="2"/>
<feComposite in2="hardAlpha" operator="arithmetic" k2="-1" k3="1"/>
<feColorMatrix type="matrix" values="0 0 0 0 0 0 0 0 0 0 0 0 0 0 0 0 0 0 0.1 0"/>
<feBlend mode="normal" in2="shape" result="effect1_innerShadow_1363_833"/>
</filter>
<filter id="filter1_i_1363_833" x="42.6001" y="70" width="27.6001" height="84" filterUnits="userSpaceOnUse" color-interpolation-filters="sRGB">
<feFlood flood-opacity="0" result="BackgroundImageFix"/>
<feBlend mode="normal" in="SourceGraphic" in2="BackgroundImageFix" result="shape"/>
<feColorMatrix in="SourceAlpha" type="matrix" values="0 0 0 0 0 0 0 0 0 0 0 0 0 0 0 0 0 0 127 0" result="hardAlpha"/>
<feOffset dy="4"/>
<feGaussianBlur stdDeviation="2"/>
<feComposite in2="hardAlpha" operator="arithmetic" k2="-1" k3="1"/>
<feColorMatrix type="matrix" values="0 0 0 0 0 0 0 0 0 0 0 0 0 0 0 0 0 0 0.1 0"/>
<feBlend mode="normal" in2="shape" result="effect1_innerShadow_1363_833"/>
</filter>
<filter id="filter2_i_1363_833" x="85.2" y="27" width="27.6001" height="127" filterUnits="userSpaceOnUse" color-interpolation-filters="sRGB">
<feFlood flood-opacity="0" result="BackgroundImageFix"/>
<feBlend mode="normal" in="SourceGraphic" in2="BackgroundImageFix" result="shape"/>
<feColorMatrix in="SourceAlpha" type="matrix" values="0 0 0 0 0 0 0 0 0 0 0 0 0 0 0 0 0 0 127 0" result="hardAlpha"/>
<feOffset dy="4"/>
<feGaussianBlur stdDeviation="2"/>
<feComposite in2="hardAlpha" operator="arithmetic" k2="-1" k3="1"/>
<feColorMatrix type="matrix" values="0 0 0 0 1 0 0 0 0 1 0 0 0 0 1 0 0 0 0.1 0"/>
<feBlend mode="normal" in2="shape" result="effect1_innerShadow_1363_833"/>
</filter>
<filter id="filter3_i_1363_833" x="127.8" y="93" width="27.6001" height="61" filterUnits="userSpaceOnUse" color-interpolation-filters="sRGB">
<feFlood flood-opacity="0" result="BackgroundImageFix"/>
<feBlend mode="normal" in="SourceGraphic" in2="BackgroundImageFix" result="shape"/>
<feColorMatrix in="SourceAlpha" type="matrix" values="0 0 0 0 0 0 0 0 0 0 0 0 0 0 0 0 0 0 127 0" result="hardAlpha"/>
<feOffset dy="4"/>
<feGaussianBlur stdDeviation="2"/>
<feComposite in2="hardAlpha" operator="arithmetic" k2="-1" k3="1"/>
<feColorMatrix type="matrix" values="0 0 0 0 0 0 0 0 0 0 0 0 0 0 0 0 0 0 0.1 0"/>
<feBlend mode="normal" in2="shape" result="effect1_innerShadow_1363_833"/>
</filter>
<filter id="filter4_i_1363_833" x="170.4" y="64" width="27.6001" height="90" filterUnits="userSpaceOnUse" color-interpolation-filters="sRGB">
<feFlood flood-opacity="0" result="BackgroundImageFix"/>
<feBlend mode="normal" in="SourceGraphic" in2="BackgroundImageFix" result="shape"/>
<feColorMatrix in="SourceAlpha" type="matrix" values="0 0 0 0 0 0 0 0 0 0 0 0 0 0 0 0 0 0 127 0" result="hardAlpha"/>
<feOffset dy="4"/>
<feGaussianBlur stdDeviation="2"/>
<feComposite in2="hardAlpha" operator="arithmetic" k2="-1" k3="1"/>
<feColorMatrix type="matrix" values="0 0 0 0 0 0 0 0 0 0 0 0 0 0 0 0 0 0 0.1 0"/>
<feBlend mode="normal" in2="shape" result="effect1_innerShadow_1363_833"/>
</filter>
<linearGradient id="paint0_linear_1363_833" x1="13.8" y1="107" x2="13.8" y2="150" gradientUnits="userSpaceOnUse">
<stop stop-opacity="0.4"/>
<stop offset="1" stop-opacity="0.4"/>
</linearGradient>
<linearGradient id="paint1_linear_1363_833" x1="56.4001" y1="70" x2="56.4001" y2="150" gradientUnits="userSpaceOnUse">
<stop stop-opacity="0.4"/>
<stop offset="1" stop-opacity="0.4"/>
</linearGradient>
<linearGradient id="paint2_linear_1363_833" x1="99" y1="27" x2="99" y2="150" gradientUnits="userSpaceOnUse">
<stop stop-color="#FFDC4E"/>
<stop offset="1" stop-color="#FFCC00"/>
</linearGradient>
<linearGradient id="paint3_linear_1363_833" x1="141.6" y1="93" x2="141.6" y2="150" gradientUnits="userSpaceOnUse">
<stop stop-opacity="0.4"/>
<stop offset="1" stop-opacity="0.4"/>
</linearGradient>
<linearGradient id="paint4_linear_1363_833" x1="184.2" y1="64" x2="184.2" y2="150" gradientUnits="userSpaceOnUse">
<stop stop-opacity="0.4"/>
<stop offset="1" stop-opacity="0.4"/>
</linearGradient>
<linearGradient id="paint5_linear_1363_833" x1="99" y1="0" x2="99" y2="16" gradientUnits="userSpaceOnUse">
<stop stop-color="#FFDC4E"/>
<stop offset="1" stop-color="#FFCC00"/>
</linearGradient>
</defs>
</svg>
