<svg width="169" height="81" viewBox="0 0 169 81" fill="none" xmlns="http://www.w3.org/2000/svg">
<g clip-path="url(#clip0_1161_734)">
<rect x="1" y="15.5" width="45" height="45" rx="9" fill="#121212"/>
<g filter="url(#filter0_f_1161_734)">
<ellipse cx="23.5004" cy="68.3214" rx="27.4286" ry="12.3214" fill="#FFCC00"/>
</g>
<g filter="url(#filter1_f_1161_734)">
<ellipse cx="23.5001" cy="73.8929" rx="13.0714" ry="8.89286" fill="#FFCC00"/>
</g>
<g style="mix-blend-mode:plus-lighter" filter="url(#filter2_f_1161_734)">
<ellipse cx="22.2148" cy="74.0001" rx="14.3571" ry="8.78571" fill="#FFCC00"/>
</g>
<g clip-path="url(#clip1_1161_734)">
<path d="M50.1933 46.2361H47.2117L45.0495 41.3026H37.6092L38.7744 38.6437H43.8844L39.1998 27.9525H42.1814L43.346 30.6108L45.5747 35.697L46.866 38.6437L48.0311 41.3026L50.1933 46.2361Z" fill="white"/>
<path d="M57.6095 27.9525V30.6108H46.3281L45.1636 27.9525H57.6095Z" fill="white"/>
<path d="M57.6095 35.697V38.3554H49.722L48.5569 35.697H57.6095Z" fill="white"/>
<path d="M57.6095 43.5777V46.2361H53.1749L52.0104 43.5777H57.6095Z" fill="white"/>
<path d="M81.0386 27.8164V46.2361H78.2892L70.2601 33.1553V46.2361H58.9816V43.5777H67.5153V30.6108H58.9816V27.9525H70.2601L78.2944 41.0427V27.8164H81.0386Z" fill="white"/>
<path d="M30.5669 42.1769L23.6519 48.875L16.671 42.1124L23.5854 35.4138L25.9346 37.6894L21.3693 42.1119L23.6519 44.3231L28.2172 39.9007L30.5669 42.1769Z" fill="#FFCC00"/>
<path d="M35.2653 37.625L32.9161 39.9007L23.6519 30.9263L14.3877 39.9007L12.0386 37.625L23.6519 26.375L35.2653 37.625Z" fill="white"/>
</g>
</g>
<rect x="1" y="15.5" width="45" height="45" rx="9" stroke="url(#paint0_linear_1161_734)" stroke-width="0.75"/>
<path d="M79.7513 58L75.6878 47.5577H62.316L58.2998 58H54L67.1828 24.1217H71.01L84.1455 58H79.7513ZM70.632 33.5717C70.5375 33.3197 70.38 32.863 70.1595 32.2015C69.939 31.54 69.7185 30.8627 69.498 30.1697C69.309 29.4452 69.1515 28.894 69.0255 28.516C68.868 29.146 68.6948 29.7917 68.5058 30.4532C68.3483 31.0832 68.175 31.666 67.986 32.2015C67.8285 32.737 67.6868 33.1937 67.5608 33.5717L63.7335 43.7777H74.412L70.632 33.5717ZM97.9742 32.2015C100.148 32.2015 102.006 32.674 103.55 33.619C105.125 34.564 106.322 35.9027 107.141 37.6352C107.991 39.3362 108.416 41.3365 108.416 43.636V46.1402H91.0757C91.1387 49.0067 91.8632 51.196 93.2492 52.708C94.6667 54.1885 96.6355 54.9287 99.1555 54.9287C100.762 54.9287 102.179 54.787 103.408 54.5035C104.668 54.1885 105.959 53.7475 107.282 53.1805V56.8187C105.991 57.3857 104.715 57.7952 103.455 58.0473C102.195 58.3308 100.699 58.4725 98.9665 58.4725C96.5725 58.4725 94.4462 57.9842 92.5877 57.0077C90.7607 56.0312 89.3275 54.5822 88.288 52.6607C87.28 50.7077 86.776 48.3295 86.776 45.526C86.776 42.754 87.2327 40.3757 88.1462 38.3912C89.0912 36.4067 90.3985 34.879 92.068 33.808C93.769 32.737 95.7377 32.2015 97.9742 32.2015ZM97.927 35.6035C95.9425 35.6035 94.3675 36.2492 93.202 37.5407C92.068 38.8007 91.3907 40.5647 91.1702 42.8327H104.069C104.069 41.3837 103.849 40.1237 103.408 39.0527C102.967 37.9817 102.29 37.147 101.376 36.5485C100.494 35.9185 99.3445 35.6035 97.927 35.6035ZM155.663 32.2015C158.687 32.2015 160.971 32.9417 162.514 34.4222C164.058 35.8712 164.829 38.2337 164.829 41.5097V58H160.719V41.7932C160.719 39.7457 160.262 38.218 159.348 37.21C158.435 36.202 157.002 35.698 155.049 35.698C152.245 35.698 150.308 36.4855 149.237 38.0605C148.166 39.6355 147.63 41.9035 147.63 44.8645V58H143.472V32.674H146.827L147.441 36.1232H147.678C148.245 35.2412 148.938 34.5167 149.757 33.9497C150.607 33.3513 151.536 32.9103 152.544 32.6267C153.552 32.3432 154.592 32.2015 155.663 32.2015Z" fill="white"/>
<path d="M136.882 45.2897C136.882 47.4002 136.599 49.2745 136.032 50.9125C135.496 52.519 134.709 53.8892 133.669 55.0232C132.661 56.1572 131.417 57.0235 129.937 57.622C128.488 58.189 126.865 58.4725 125.07 58.4725C123.4 58.4725 121.857 58.189 120.439 57.622C119.022 57.0235 117.793 56.1572 116.754 55.0232C115.714 53.8892 114.895 52.519 114.297 50.9125C113.73 49.2745 113.446 47.4002 113.446 45.2897C113.446 42.4862 113.919 40.1237 114.864 38.2022C115.809 36.2492 117.163 34.7687 118.927 33.7607C120.691 32.7212 122.786 32.2015 125.212 32.2015C127.511 32.2015 129.527 32.7212 131.26 33.7607C133.024 34.7687 134.394 36.2492 135.37 38.2022C136.378 40.1237 136.882 42.4862 136.882 45.2897ZM117.746 45.2897C117.746 47.2742 117.998 49.0067 118.502 50.4872C119.038 51.9362 119.857 53.0545 120.959 53.842C122.062 54.6295 123.463 55.0232 125.164 55.0232C126.865 55.0232 128.267 54.6295 129.37 53.842C130.472 53.0545 131.275 51.9362 131.779 50.4872C132.315 49.0067 132.583 47.2742 132.583 45.2897C132.583 43.2737 132.315 41.557 131.779 40.1395C131.244 38.722 130.425 37.6352 129.322 36.8792C128.251 36.0917 126.85 35.698 125.117 35.698C122.534 35.698 120.66 36.5485 119.494 38.2495C118.329 39.9505 117.746 42.2972 117.746 45.2897Z" fill="#FFCC00"/>
<defs>
<filter id="filter0_f_1161_734" x="-36.0711" y="23.8571" width="119.143" height="88.9286" filterUnits="userSpaceOnUse" color-interpolation-filters="sRGB">
<feFlood flood-opacity="0" result="BackgroundImageFix"/>
<feBlend mode="normal" in="SourceGraphic" in2="BackgroundImageFix" result="shape"/>
<feGaussianBlur stdDeviation="16.0714" result="effect1_foregroundBlur_1161_734"/>
</filter>
<filter id="filter1_f_1161_734" x="-0.285576" y="54.2857" width="47.5714" height="39.2143" filterUnits="userSpaceOnUse" color-interpolation-filters="sRGB">
<feFlood flood-opacity="0" result="BackgroundImageFix"/>
<feBlend mode="normal" in="SourceGraphic" in2="BackgroundImageFix" result="shape"/>
<feGaussianBlur stdDeviation="5.35714" result="effect1_foregroundBlur_1161_734"/>
</filter>
<filter id="filter2_f_1161_734" x="-2.85662" y="54.5001" width="50.1429" height="39" filterUnits="userSpaceOnUse" color-interpolation-filters="sRGB">
<feFlood flood-opacity="0" result="BackgroundImageFix"/>
<feBlend mode="normal" in="SourceGraphic" in2="BackgroundImageFix" result="shape"/>
<feGaussianBlur stdDeviation="5.35714" result="effect1_foregroundBlur_1161_734"/>
</filter>
<linearGradient id="paint0_linear_1161_734" x1="23.3317" y1="8.88776" x2="25.7826" y2="60.3914" gradientUnits="userSpaceOnUse">
<stop stop-color="#FFCC00" stop-opacity="0"/>
<stop offset="1" stop-color="#FFCC00" stop-opacity="0.8"/>
</linearGradient>
<clipPath id="clip0_1161_734">
<rect x="1" y="15.5" width="45" height="45" rx="9" fill="white"/>
</clipPath>
<clipPath id="clip1_1161_734">
<rect width="23.25" height="26.25" fill="white" transform="translate(12.25 24.5)"/>
</clipPath>
</defs>
</svg>
