<svg width="588" height="232" viewBox="0 0 588 232" fill="none" xmlns="http://www.w3.org/2000/svg">
<path d="M0 27L197.5 39L345.5 64L488.5 102L588 128.5" stroke="url(#paint0_linear_325_5670)"/>
<path d="M201 39.5L1 27.5V232H588V129L482 100.5L348.5 64.5L201 39.5Z" fill="url(#paint1_linear_325_5670)"/>
<rect x="360.5" y="43" width="96" height="16" rx="8" fill="#FFCC00"/>
<path d="M373.682 55H371.217V47.7273H373.732C374.454 47.7273 375.074 47.8729 375.592 48.1641C376.113 48.4529 376.513 48.8684 376.793 49.4105C377.072 49.9527 377.212 50.6013 377.212 51.3565C377.212 52.1141 377.071 52.7652 376.789 53.3097C376.51 53.8542 376.106 54.272 375.578 54.5632C375.053 54.8544 374.42 55 373.682 55ZM372.535 53.8601H373.618C374.125 53.8601 374.547 53.7678 374.886 53.5831C375.224 53.3961 375.479 53.1179 375.649 52.7486C375.82 52.3769 375.905 51.9129 375.905 51.3565C375.905 50.8002 375.82 50.3385 375.649 49.9716C375.479 49.6023 375.227 49.3265 374.893 49.1442C374.561 48.9595 374.149 48.8672 373.657 48.8672H372.535V53.8601ZM378.407 55V49.5455H379.653V50.4545H379.71C379.809 50.1397 379.98 49.897 380.221 49.7266C380.465 49.5537 380.743 49.4673 381.056 49.4673C381.127 49.4673 381.206 49.4709 381.294 49.478C381.384 49.4827 381.458 49.491 381.517 49.5028V50.6854C381.463 50.6664 381.377 50.6499 381.258 50.6357C381.142 50.6191 381.03 50.6108 380.921 50.6108C380.686 50.6108 380.476 50.6617 380.289 50.7635C380.104 50.8629 379.958 51.0014 379.852 51.179C379.745 51.3565 379.692 51.5613 379.692 51.7933V55H378.407ZM383.843 55.1101C383.498 55.1101 383.186 55.0485 382.909 54.9254C382.635 54.8 382.417 54.6153 382.256 54.3714C382.097 54.1276 382.018 53.8269 382.018 53.4695C382.018 53.1617 382.075 52.9072 382.189 52.706C382.302 52.5047 382.457 52.3438 382.654 52.223C382.85 52.1023 383.072 52.0111 383.318 51.9496C383.566 51.8857 383.823 51.8395 384.088 51.8111C384.408 51.7779 384.667 51.7483 384.866 51.7223C385.065 51.6939 385.209 51.6513 385.299 51.5945C385.392 51.5353 385.438 51.4441 385.438 51.321V51.2997C385.438 51.0322 385.359 50.825 385.2 50.6783C385.041 50.5315 384.813 50.4581 384.515 50.4581C384.2 50.4581 383.95 50.5268 383.765 50.6641C383.583 50.8014 383.46 50.9635 383.396 51.1506L382.196 50.9801C382.29 50.6487 382.447 50.3717 382.664 50.1491C382.882 49.9242 383.149 49.7562 383.463 49.6449C383.778 49.5312 384.126 49.4744 384.507 49.4744C384.77 49.4744 385.032 49.5052 385.292 49.5668C385.553 49.6283 385.791 49.7301 386.006 49.8722C386.221 50.0118 386.394 50.2024 386.525 50.4439C386.657 50.6854 386.723 50.9872 386.723 51.3494V55H385.488V54.2507H385.445C385.367 54.4022 385.257 54.5443 385.115 54.6768C384.975 54.8071 384.799 54.9124 384.586 54.9929C384.375 55.071 384.127 55.1101 383.843 55.1101ZM384.177 54.1655C384.435 54.1655 384.659 54.1146 384.848 54.0128C385.038 53.9086 385.183 53.7713 385.285 53.6009C385.389 53.4304 385.441 53.2446 385.441 53.0433V52.4006C385.401 52.4337 385.333 52.4645 385.235 52.4929C385.141 52.5213 385.034 52.5462 384.916 52.5675C384.797 52.5888 384.68 52.6077 384.564 52.6243C384.448 52.6409 384.348 52.6551 384.262 52.6669C384.071 52.6929 383.899 52.7356 383.748 52.7947C383.596 52.8539 383.476 52.9368 383.389 53.0433C383.301 53.1475 383.257 53.2824 383.257 53.4482C383.257 53.6849 383.344 53.8636 383.517 53.9844C383.69 54.1051 383.91 54.1655 384.177 54.1655ZM389.142 55L387.6 49.5455H388.911L389.87 53.3807H389.919L390.9 49.5455H392.196L393.176 53.3594H393.229L394.174 49.5455H395.488L393.943 55H392.604L391.581 51.3139H391.507L390.484 55H389.142ZM398.253 55.0959C397.825 55.0959 397.441 54.9858 397.102 54.7656C396.764 54.5455 396.496 54.2259 396.3 53.8068C396.103 53.3878 396.005 52.8788 396.005 52.2798C396.005 51.6738 396.105 51.1624 396.303 50.7457C396.505 50.3267 396.776 50.0107 397.117 49.7976C397.458 49.5821 397.838 49.4744 398.257 49.4744C398.576 49.4744 398.839 49.5289 399.045 49.6378C399.251 49.7443 399.414 49.8733 399.535 50.0249C399.656 50.174 399.749 50.3149 399.816 50.4474H399.869V47.7273H401.158V55H399.894V54.1406H399.816C399.749 54.2732 399.653 54.4141 399.528 54.5632C399.402 54.71 399.237 54.8355 399.031 54.9396C398.825 55.0438 398.566 55.0959 398.253 55.0959ZM398.612 54.0412C398.884 54.0412 399.116 53.9678 399.308 53.821C399.499 53.6719 399.645 53.4647 399.744 53.1996C399.844 52.9344 399.894 52.6255 399.894 52.2727C399.894 51.92 399.844 51.6134 399.744 51.353C399.647 51.0926 399.503 50.8902 399.311 50.7457C399.122 50.6013 398.889 50.5291 398.612 50.5291C398.325 50.5291 398.086 50.6037 397.894 50.7528C397.703 50.902 397.558 51.108 397.461 51.3707C397.364 51.6335 397.316 51.9342 397.316 52.2727C397.316 52.6136 397.364 52.9179 397.461 53.1854C397.561 53.4505 397.706 53.66 397.898 53.8139C398.092 53.9654 398.33 54.0412 398.612 54.0412ZM404.907 55.1065C404.374 55.1065 403.913 54.9893 403.522 54.755C403.131 54.5206 402.828 54.1927 402.613 53.7713C402.4 53.3499 402.293 52.8575 402.293 52.294C402.293 51.7306 402.4 51.237 402.613 50.8132C402.828 50.3894 403.131 50.0604 403.522 49.826C403.913 49.5916 404.374 49.4744 404.907 49.4744C405.44 49.4744 405.901 49.5916 406.292 49.826C406.683 50.0604 406.984 50.3894 407.197 50.8132C407.413 51.237 407.521 51.7306 407.521 52.294C407.521 52.8575 407.413 53.3499 407.197 53.7713C406.984 54.1927 406.683 54.5206 406.292 54.755C405.901 54.9893 405.44 55.1065 404.907 55.1065ZM404.914 54.0767C405.203 54.0767 405.444 53.9974 405.638 53.8388C405.833 53.6778 405.977 53.4624 406.072 53.1925C406.169 52.9226 406.217 52.6219 406.217 52.2905C406.217 51.9567 406.169 51.6548 406.072 51.3849C405.977 51.1127 405.833 50.8961 405.638 50.7351C405.444 50.5741 405.203 50.4936 404.914 50.4936C404.618 50.4936 404.372 50.5741 404.175 50.7351C403.981 50.8961 403.836 51.1127 403.739 51.3849C403.644 51.6548 403.597 51.9567 403.597 52.2905C403.597 52.6219 403.644 52.9226 403.739 53.1925C403.836 53.4624 403.981 53.6778 404.175 53.8388C404.372 53.9974 404.618 54.0767 404.914 54.0767ZM409.581 55L408.04 49.5455H409.35L410.309 53.3807H410.359L411.339 49.5455H412.635L413.615 53.3594H413.669L414.613 49.5455H415.927L414.382 55H413.044L412.021 51.3139H411.946L410.923 55H409.581ZM418.11 51.804V55H416.825V49.5455H418.053V50.4723H418.117C418.243 50.1669 418.443 49.9242 418.717 49.7443C418.994 49.5644 419.336 49.4744 419.744 49.4744C420.12 49.4744 420.448 49.5549 420.727 49.7159C421.009 49.8769 421.227 50.1101 421.381 50.4155C421.537 50.7209 421.614 51.0914 421.612 51.527V55H420.326V51.7259C420.326 51.3613 420.231 51.076 420.042 50.87C419.855 50.6641 419.596 50.5611 419.264 50.5611C419.039 50.5611 418.839 50.6108 418.664 50.7102C418.491 50.8073 418.355 50.9482 418.256 51.1328C418.159 51.3175 418.11 51.5412 418.11 51.804ZM423.71 55.0781C423.495 55.0781 423.31 55.0024 423.156 54.8509C423.002 54.6993 422.927 54.5147 422.929 54.2969C422.927 54.0838 423.002 53.9015 423.156 53.75C423.31 53.5985 423.495 53.5227 423.71 53.5227C423.919 53.5227 424.1 53.5985 424.254 53.75C424.41 53.9015 424.489 54.0838 424.491 54.2969C424.489 54.4413 424.451 54.5727 424.378 54.6911C424.307 54.8094 424.212 54.9041 424.094 54.9751C423.978 55.0438 423.85 55.0781 423.71 55.0781ZM423.71 51.1861C423.495 51.1861 423.31 51.1103 423.156 50.9588C423.002 50.8049 422.927 50.6203 422.929 50.4048C422.927 50.1918 423.002 50.0095 423.156 49.858C423.31 49.7041 423.495 49.6271 423.71 49.6271C423.919 49.6271 424.1 49.7041 424.254 49.858C424.41 50.0095 424.489 50.1918 424.491 50.4048C424.489 50.5469 424.451 50.6771 424.378 50.7955C424.307 50.9138 424.212 51.0085 424.094 51.0795C423.978 51.1506 423.85 51.1861 423.71 51.1861ZM431.243 47.7273V55H429.926V49.0092H429.883L428.182 50.0959V48.8885L429.99 47.7273H431.243ZM435.778 55.1385C435.193 55.1385 434.691 54.9905 434.272 54.6946C433.856 54.3963 433.535 53.9666 433.31 53.4055C433.087 52.8421 432.976 52.1638 432.976 51.3707C432.978 50.5777 433.091 49.9029 433.313 49.3466C433.538 48.7879 433.859 48.3617 434.276 48.0682C434.695 47.7746 435.195 47.6278 435.778 47.6278C436.36 47.6278 436.861 47.7746 437.28 48.0682C437.699 48.3617 438.02 48.7879 438.242 49.3466C438.467 49.9053 438.58 50.58 438.58 51.3707C438.58 52.1662 438.467 52.8456 438.242 53.4091C438.02 53.9702 437.699 54.3987 437.28 54.6946C436.863 54.9905 436.363 55.1385 435.778 55.1385ZM435.778 54.027C436.232 54.027 436.591 53.8033 436.854 53.3558C437.119 52.906 437.252 52.2443 437.252 51.3707C437.252 50.7931 437.191 50.3078 437.07 49.9148C436.95 49.5218 436.779 49.2259 436.559 49.027C436.339 48.8258 436.079 48.7251 435.778 48.7251C435.326 48.7251 434.968 48.95 434.705 49.3999C434.443 49.8473 434.31 50.5043 434.308 51.3707C434.305 51.9508 434.363 52.4384 434.482 52.8338C434.602 53.2292 434.773 53.5275 434.993 53.7287C435.213 53.9276 435.475 54.027 435.778 54.027ZM439.831 55V47.7273H441.148V51.0689H441.237L444.074 47.7273H445.683L442.87 50.9908L445.708 55H444.124L441.954 51.8821L441.148 52.8338V55H439.831Z" fill="black"/>
<path d="M409.433 65.25C409.241 65.5833 408.759 65.5833 408.567 65.25L405.103 59.25C404.91 58.9167 405.151 58.5 405.536 58.5L412.464 58.5C412.849 58.5 413.09 58.9167 412.897 59.25L409.433 65.25Z" fill="#FFCC00"/>
<rect x="396.5" y="69" width="24" height="24" rx="12" fill="#1E1E1A"/>
<circle cx="408.5" cy="81" r="10" fill="url(#paint2_linear_325_5670)"/>
<defs>
<linearGradient id="paint0_linear_325_5670" x1="294" y1="27" x2="294" y2="128.5" gradientUnits="userSpaceOnUse">
<stop stop-color="#FFDC4E"/>
<stop offset="1" stop-color="#FFCC00"/>
</linearGradient>
<linearGradient id="paint1_linear_325_5670" x1="294.5" y1="42.1514" x2="294.5" y2="232" gradientUnits="userSpaceOnUse">
<stop stop-color="#FFD221" stop-opacity="0.1"/>
<stop offset="1" stop-color="#FFD221" stop-opacity="0"/>
</linearGradient>
<linearGradient id="paint2_linear_325_5670" x1="408.5" y1="71" x2="408.5" y2="91" gradientUnits="userSpaceOnUse">
<stop stop-color="#FFDC4E"/>
<stop offset="1" stop-color="#FFCC00"/>
</linearGradient>
</defs>
</svg>
