<svg width="92" height="30" viewBox="0 0 92 30" fill="none" xmlns="http://www.w3.org/2000/svg">
<path d="M50.873 26.4814H46.8975L44.0146 19.9035H34.0942L35.6477 16.3583H42.4611L36.215 2.10329H40.1905L41.7432 5.64777L44.7149 12.4294L46.4365 16.3583L47.99 19.9035L50.873 26.4814Z" fill="#1F1F1F"/>
<path d="M60.7612 2.10329V5.64777H45.7194L44.1667 2.10329H60.7612Z" fill="#1F1F1F"/>
<path d="M60.7612 12.4294V15.9739H50.2446L48.6911 12.4294H60.7612Z" fill="#1F1F1F"/>
<path d="M60.7612 22.937V26.4814H54.8485L53.2958 22.937H60.7612Z" fill="#1F1F1F"/>
<path d="M92 1.92184V26.4814H88.3342L77.6287 9.04044V26.4814H62.5907V22.9369H73.969V5.64777H62.5907V2.10329H77.6287L88.341 19.5569V1.92184H92Z" fill="#1F1F1F"/>
<path d="M24.7045 21.0692L15.4845 30L6.17651 20.9833L15.3958 12.0517L18.528 15.0859L12.4409 20.9825L15.4845 23.9308L21.5715 18.0342L24.7045 21.0692Z" fill="#FFCC00"/>
<path d="M30.9689 15L27.8367 18.0342L15.4845 6.06843L3.13221 18.0342L0 15L15.4845 0L30.9689 15Z" fill="#1F1F1F"/>
</svg>
