<svg width="490" height="223" viewBox="0 0 490 223" fill="none" xmlns="http://www.w3.org/2000/svg">
<rect y="77.7234" width="99" height="23.4043" rx="4.68085" fill="url(#paint0_linear_1236_797)"/>
<rect y="106.979" width="99" height="62.0213" rx="4.68085" fill="black" fill-opacity="0.1"/>
<rect x="130" y="23" width="99" height="78.4043" rx="4.68085" fill="url(#paint1_linear_1236_797)"/>
<rect x="130" y="107.255" width="99" height="19.8936" rx="4.68085" fill="black" fill-opacity="0.1"/>
<rect x="261" y="61.6169" width="98.5" height="39.7872" rx="4.68085" fill="url(#paint2_linear_1236_797)"/>
<rect x="261" y="107.255" width="98.5" height="80.7447" rx="4.68085" fill="black" fill-opacity="0.1"/>
<rect x="392" y="32" width="98" height="69.0426" rx="4.68085" fill="url(#paint3_linear_1236_797)"/>
<rect x="392" y="106.894" width="98" height="37.4468" rx="4.68085" fill="black" fill-opacity="0.1"/>
<path d="M33.9979 216L31.9453 208.727H33.3622L34.6726 214.072H34.7401L36.1392 208.727H37.4283L38.831 214.075H38.8949L40.2053 208.727H41.6222L39.5696 216H38.2699L36.8139 210.897H36.7571L35.2976 216H33.9979ZM44.337 216.107C43.7901 216.107 43.3178 215.993 42.9201 215.766C42.5247 215.536 42.2205 215.212 42.0075 214.793C41.7944 214.371 41.6879 213.875 41.6879 213.305C41.6879 212.744 41.7944 212.251 42.0075 211.827C42.2229 211.401 42.5236 211.07 42.9094 210.833C43.2953 210.594 43.7487 210.474 44.2695 210.474C44.6057 210.474 44.9229 210.529 45.2212 210.638C45.5219 210.744 45.7871 210.91 46.0167 211.135C46.2487 211.36 46.431 211.646 46.5636 211.994C46.6961 212.34 46.7624 212.752 46.7624 213.23V213.624H42.2915V212.758H45.5302C45.5278 212.512 45.4746 212.293 45.3704 212.101C45.2662 211.907 45.1206 211.754 44.9336 211.643C44.7489 211.531 44.5335 211.476 44.2873 211.476C44.0245 211.476 43.7937 211.54 43.5948 211.668C43.396 211.793 43.2409 211.959 43.1296 212.165C43.0207 212.368 42.9651 212.592 42.9627 212.836V213.592C42.9627 213.91 43.0207 214.182 43.1367 214.409C43.2527 214.634 43.4149 214.807 43.6232 214.928C43.8316 215.046 44.0754 215.105 44.3548 215.105C44.5418 215.105 44.7111 215.079 44.8626 215.027C45.0141 214.973 45.1455 214.893 45.2567 214.789C45.368 214.685 45.4521 214.556 45.5089 214.402L46.7092 214.537C46.6334 214.854 46.489 215.131 46.2759 215.368C46.0652 215.602 45.7953 215.785 45.4663 215.915C45.1372 216.043 44.7608 216.107 44.337 216.107ZM50.2647 216.107C49.7179 216.107 49.2456 215.993 48.8478 215.766C48.4525 215.536 48.1483 215.212 47.9352 214.793C47.7221 214.371 47.6156 213.875 47.6156 213.305C47.6156 212.744 47.7221 212.251 47.9352 211.827C48.1506 211.401 48.4513 211.07 48.8372 210.833C49.2231 210.594 49.6764 210.474 50.1973 210.474C50.5334 210.474 50.8507 210.529 51.149 210.638C51.4496 210.744 51.7148 210.91 51.9444 211.135C52.1764 211.36 52.3587 211.646 52.4913 211.994C52.6239 212.34 52.6902 212.752 52.6902 213.23V213.624H48.2193V212.758H51.4579C51.4556 212.512 51.4023 212.293 51.2981 212.101C51.194 211.907 51.0484 211.754 50.8613 211.643C50.6767 211.531 50.4612 211.476 50.215 211.476C49.9522 211.476 49.7214 211.54 49.5225 211.668C49.3237 211.793 49.1686 211.959 49.0574 212.165C48.9484 212.368 48.8928 212.592 48.8904 212.836V213.592C48.8904 213.91 48.9484 214.182 49.0645 214.409C49.1805 214.634 49.3426 214.807 49.551 214.928C49.7593 215.046 50.0031 215.105 50.2825 215.105C50.4695 215.105 50.6388 215.079 50.7903 215.027C50.9418 214.973 51.0732 214.893 51.1845 214.789C51.2958 214.685 51.3798 214.556 51.4366 214.402L52.6369 214.537C52.5611 214.854 52.4167 215.131 52.2037 215.368C51.993 215.602 51.7231 215.785 51.394 215.915C51.0649 216.043 50.6885 216.107 50.2647 216.107ZM54.9496 214.288L54.946 212.737H55.152L57.1122 210.545H58.6143L56.2031 213.23H55.9368L54.9496 214.288ZM53.7777 216V208.727H55.0632V216H53.7777ZM57.201 216L55.4254 213.518L56.2919 212.612L58.7386 216H57.201ZM64.8954 208.727V216H63.5779V210.009H63.5353L61.8343 211.096V209.888L63.6419 208.727H64.8954Z" fill="white"/>
<path d="M163.998 216L161.945 208.727H163.362L164.673 214.072H164.74L166.139 208.727H167.428L168.831 214.075H168.895L170.205 208.727H171.622L169.57 216H168.27L166.814 210.897H166.757L165.298 216H163.998ZM174.337 216.107C173.79 216.107 173.318 215.993 172.92 215.766C172.525 215.536 172.221 215.212 172.007 214.793C171.794 214.371 171.688 213.875 171.688 213.305C171.688 212.744 171.794 212.251 172.007 211.827C172.223 211.401 172.524 211.07 172.909 210.833C173.295 210.594 173.749 210.474 174.27 210.474C174.606 210.474 174.923 210.529 175.221 210.638C175.522 210.744 175.787 210.91 176.017 211.135C176.249 211.36 176.431 211.646 176.564 211.994C176.696 212.34 176.762 212.752 176.762 213.23V213.624H172.292V212.758H175.53C175.528 212.512 175.475 212.293 175.37 212.101C175.266 211.907 175.121 211.754 174.934 211.643C174.749 211.531 174.533 211.476 174.287 211.476C174.025 211.476 173.794 211.54 173.595 211.668C173.396 211.793 173.241 211.959 173.13 212.165C173.021 212.368 172.965 212.592 172.963 212.836V213.592C172.963 213.91 173.021 214.182 173.137 214.409C173.253 214.634 173.415 214.807 173.623 214.928C173.832 215.046 174.075 215.105 174.355 215.105C174.542 215.105 174.711 215.079 174.863 215.027C175.014 214.973 175.145 214.893 175.257 214.789C175.368 214.685 175.452 214.556 175.509 214.402L176.709 214.537C176.633 214.854 176.489 215.131 176.276 215.368C176.065 215.602 175.795 215.785 175.466 215.915C175.137 216.043 174.761 216.107 174.337 216.107ZM180.265 216.107C179.718 216.107 179.246 215.993 178.848 215.766C178.452 215.536 178.148 215.212 177.935 214.793C177.722 214.371 177.616 213.875 177.616 213.305C177.616 212.744 177.722 212.251 177.935 211.827C178.151 211.401 178.451 211.07 178.837 210.833C179.223 210.594 179.676 210.474 180.197 210.474C180.533 210.474 180.851 210.529 181.149 210.638C181.45 210.744 181.715 210.91 181.944 211.135C182.176 211.36 182.359 211.646 182.491 211.994C182.624 212.34 182.69 212.752 182.69 213.23V213.624H178.219V212.758H181.458C181.456 212.512 181.402 212.293 181.298 212.101C181.194 211.907 181.048 211.754 180.861 211.643C180.677 211.531 180.461 211.476 180.215 211.476C179.952 211.476 179.721 211.54 179.523 211.668C179.324 211.793 179.169 211.959 179.057 212.165C178.948 212.368 178.893 212.592 178.89 212.836V213.592C178.89 213.91 178.948 214.182 179.064 214.409C179.18 214.634 179.343 214.807 179.551 214.928C179.759 215.046 180.003 215.105 180.282 215.105C180.47 215.105 180.639 215.079 180.79 215.027C180.942 214.973 181.073 214.893 181.184 214.789C181.296 214.685 181.38 214.556 181.437 214.402L182.637 214.537C182.561 214.854 182.417 215.131 182.204 215.368C181.993 215.602 181.723 215.785 181.394 215.915C181.065 216.043 180.689 216.107 180.265 216.107ZM184.95 214.288L184.946 212.737H185.152L187.112 210.545H188.614L186.203 213.23H185.937L184.95 214.288ZM183.778 216V208.727H185.063V216H183.778ZM187.201 216L185.425 213.518L186.292 212.612L188.739 216H187.201ZM191.937 216V215.048L194.462 212.573C194.704 212.329 194.905 212.113 195.066 211.923C195.227 211.734 195.348 211.55 195.428 211.373C195.509 211.195 195.549 211.006 195.549 210.805C195.549 210.575 195.497 210.379 195.393 210.215C195.288 210.049 195.145 209.922 194.963 209.832C194.781 209.742 194.573 209.697 194.341 209.697C194.102 209.697 193.893 209.746 193.713 209.846C193.533 209.943 193.393 210.081 193.294 210.261C193.197 210.441 193.148 210.656 193.148 210.904H191.895C191.895 210.442 192 210.041 192.211 209.7C192.421 209.359 192.711 209.095 193.081 208.908C193.452 208.721 193.879 208.628 194.359 208.628C194.847 208.628 195.275 208.719 195.645 208.901C196.014 209.084 196.3 209.333 196.504 209.651C196.71 209.968 196.813 210.33 196.813 210.737C196.813 211.009 196.761 211.277 196.657 211.54C196.553 211.803 196.369 212.094 196.106 212.413C195.846 212.733 195.48 213.12 195.009 213.575L193.756 214.849V214.899H196.923V216H191.937Z" fill="white"/>
<path d="M293.998 216L291.945 208.727H293.362L294.673 214.072H294.74L296.139 208.727H297.428L298.831 214.075H298.895L300.205 208.727H301.622L299.57 216H298.27L296.814 210.897H296.757L295.298 216H293.998ZM304.337 216.107C303.79 216.107 303.318 215.993 302.92 215.766C302.525 215.536 302.221 215.212 302.007 214.793C301.794 214.371 301.688 213.875 301.688 213.305C301.688 212.744 301.794 212.251 302.007 211.827C302.223 211.401 302.524 211.07 302.909 210.833C303.295 210.594 303.749 210.474 304.27 210.474C304.606 210.474 304.923 210.529 305.221 210.638C305.522 210.744 305.787 210.91 306.017 211.135C306.249 211.36 306.431 211.646 306.564 211.994C306.696 212.34 306.762 212.752 306.762 213.23V213.624H302.292V212.758H305.53C305.528 212.512 305.475 212.293 305.37 212.101C305.266 211.907 305.121 211.754 304.934 211.643C304.749 211.531 304.533 211.476 304.287 211.476C304.025 211.476 303.794 211.54 303.595 211.668C303.396 211.793 303.241 211.959 303.13 212.165C303.021 212.368 302.965 212.592 302.963 212.836V213.592C302.963 213.91 303.021 214.182 303.137 214.409C303.253 214.634 303.415 214.807 303.623 214.928C303.832 215.046 304.075 215.105 304.355 215.105C304.542 215.105 304.711 215.079 304.863 215.027C305.014 214.973 305.145 214.893 305.257 214.789C305.368 214.685 305.452 214.556 305.509 214.402L306.709 214.537C306.633 214.854 306.489 215.131 306.276 215.368C306.065 215.602 305.795 215.785 305.466 215.915C305.137 216.043 304.761 216.107 304.337 216.107ZM310.265 216.107C309.718 216.107 309.246 215.993 308.848 215.766C308.452 215.536 308.148 215.212 307.935 214.793C307.722 214.371 307.616 213.875 307.616 213.305C307.616 212.744 307.722 212.251 307.935 211.827C308.151 211.401 308.451 211.07 308.837 210.833C309.223 210.594 309.676 210.474 310.197 210.474C310.533 210.474 310.851 210.529 311.149 210.638C311.45 210.744 311.715 210.91 311.944 211.135C312.176 211.36 312.359 211.646 312.491 211.994C312.624 212.34 312.69 212.752 312.69 213.23V213.624H308.219V212.758H311.458C311.456 212.512 311.402 212.293 311.298 212.101C311.194 211.907 311.048 211.754 310.861 211.643C310.677 211.531 310.461 211.476 310.215 211.476C309.952 211.476 309.721 211.54 309.523 211.668C309.324 211.793 309.169 211.959 309.057 212.165C308.948 212.368 308.893 212.592 308.89 212.836V213.592C308.89 213.91 308.948 214.182 309.064 214.409C309.18 214.634 309.343 214.807 309.551 214.928C309.759 215.046 310.003 215.105 310.282 215.105C310.47 215.105 310.639 215.079 310.79 215.027C310.942 214.973 311.073 214.893 311.184 214.789C311.296 214.685 311.38 214.556 311.437 214.402L312.637 214.537C312.561 214.854 312.417 215.131 312.204 215.368C311.993 215.602 311.723 215.785 311.394 215.915C311.065 216.043 310.689 216.107 310.265 216.107ZM314.95 214.288L314.946 212.737H315.152L317.112 210.545H318.614L316.203 213.23H315.937L314.95 214.288ZM313.778 216V208.727H315.063V216H313.778ZM317.201 216L315.425 213.518L316.292 212.612L318.739 216H317.201ZM324.547 216.099C324.036 216.099 323.581 216.012 323.184 215.837C322.788 215.661 322.476 215.418 322.246 215.105C322.017 214.793 321.895 214.432 321.881 214.022H323.216C323.228 214.219 323.293 214.39 323.411 214.537C323.529 214.681 323.687 214.794 323.883 214.874C324.08 214.955 324.3 214.995 324.544 214.995C324.804 214.995 325.035 214.95 325.236 214.86C325.438 214.768 325.595 214.64 325.709 214.477C325.822 214.313 325.878 214.125 325.876 213.912C325.878 213.692 325.821 213.498 325.705 213.33C325.589 213.161 325.421 213.03 325.201 212.935C324.983 212.841 324.72 212.793 324.412 212.793H323.77V211.778H324.412C324.666 211.778 324.887 211.734 325.077 211.646C325.268 211.559 325.419 211.436 325.528 211.277C325.636 211.116 325.69 210.93 325.687 210.719C325.69 210.513 325.644 210.335 325.549 210.183C325.456 210.029 325.325 209.91 325.155 209.825C324.987 209.739 324.789 209.697 324.562 209.697C324.339 209.697 324.133 209.737 323.944 209.817C323.754 209.898 323.602 210.013 323.486 210.162C323.37 210.309 323.308 210.484 323.301 210.688H322.033C322.043 210.28 322.16 209.923 322.385 209.615C322.612 209.305 322.915 209.063 323.294 208.891C323.673 208.715 324.098 208.628 324.569 208.628C325.054 208.628 325.475 208.719 325.833 208.901C326.193 209.081 326.471 209.324 326.667 209.629C326.864 209.935 326.962 210.272 326.962 210.641C326.965 211.051 326.844 211.394 326.6 211.671C326.358 211.948 326.041 212.129 325.648 212.214V212.271C326.16 212.342 326.551 212.532 326.824 212.839C327.098 213.145 327.234 213.525 327.232 213.979C327.232 214.387 327.116 214.751 326.884 215.073C326.654 215.393 326.337 215.644 325.932 215.826C325.53 216.008 325.068 216.099 324.547 216.099Z" fill="white"/>
<g filter="url(#filter0_i_1236_797)">
<rect x="391.5" y="201" width="98.5" height="22" rx="11" fill="black" fill-opacity="0.4"/>
<path d="M424.498 216L422.445 208.727H423.862L425.173 214.072H425.24L426.639 208.727H427.928L429.331 214.075H429.395L430.705 208.727H432.122L430.07 216H428.77L427.314 210.897H427.257L425.798 216H424.498ZM434.837 216.107C434.29 216.107 433.818 215.993 433.42 215.766C433.025 215.536 432.721 215.212 432.507 214.793C432.294 214.371 432.188 213.875 432.188 213.305C432.188 212.744 432.294 212.251 432.507 211.827C432.723 211.401 433.024 211.07 433.409 210.833C433.795 210.594 434.249 210.474 434.77 210.474C435.106 210.474 435.423 210.529 435.721 210.638C436.022 210.744 436.287 210.91 436.517 211.135C436.749 211.36 436.931 211.646 437.064 211.994C437.196 212.34 437.262 212.752 437.262 213.23V213.624H432.792V212.758H436.03C436.028 212.512 435.975 212.293 435.87 212.101C435.766 211.907 435.621 211.754 435.434 211.643C435.249 211.531 435.033 211.476 434.787 211.476C434.525 211.476 434.294 211.54 434.095 211.668C433.896 211.793 433.741 211.959 433.63 212.165C433.521 212.368 433.465 212.592 433.463 212.836V213.592C433.463 213.91 433.521 214.182 433.637 214.409C433.753 214.634 433.915 214.807 434.123 214.928C434.332 215.046 434.575 215.105 434.855 215.105C435.042 215.105 435.211 215.079 435.363 215.027C435.514 214.973 435.645 214.893 435.757 214.789C435.868 214.685 435.952 214.556 436.009 214.402L437.209 214.537C437.133 214.854 436.989 215.131 436.776 215.368C436.565 215.602 436.295 215.785 435.966 215.915C435.637 216.043 435.261 216.107 434.837 216.107ZM440.765 216.107C440.218 216.107 439.746 215.993 439.348 215.766C438.952 215.536 438.648 215.212 438.435 214.793C438.222 214.371 438.116 213.875 438.116 213.305C438.116 212.744 438.222 212.251 438.435 211.827C438.651 211.401 438.951 211.07 439.337 210.833C439.723 210.594 440.176 210.474 440.697 210.474C441.033 210.474 441.351 210.529 441.649 210.638C441.95 210.744 442.215 210.91 442.444 211.135C442.676 211.36 442.859 211.646 442.991 211.994C443.124 212.34 443.19 212.752 443.19 213.23V213.624H438.719V212.758H441.958C441.956 212.512 441.902 212.293 441.798 212.101C441.694 211.907 441.548 211.754 441.361 211.643C441.177 211.531 440.961 211.476 440.715 211.476C440.452 211.476 440.221 211.54 440.023 211.668C439.824 211.793 439.669 211.959 439.557 212.165C439.448 212.368 439.393 212.592 439.39 212.836V213.592C439.39 213.91 439.448 214.182 439.564 214.409C439.68 214.634 439.843 214.807 440.051 214.928C440.259 215.046 440.503 215.105 440.782 215.105C440.97 215.105 441.139 215.079 441.29 215.027C441.442 214.973 441.573 214.893 441.684 214.789C441.796 214.685 441.88 214.556 441.937 214.402L443.137 214.537C443.061 214.854 442.917 215.131 442.704 215.368C442.493 215.602 442.223 215.785 441.894 215.915C441.565 216.043 441.189 216.107 440.765 216.107ZM445.45 214.288L445.446 212.737H445.652L447.612 210.545H449.114L446.703 213.23H446.437L445.45 214.288ZM444.278 216V208.727H445.563V216H444.278ZM447.701 216L445.925 213.518L446.792 212.612L449.239 216H447.701ZM452.306 214.651V213.603L455.392 208.727H456.265V210.219H455.733L453.655 213.511V213.567H457.963V214.651H452.306ZM455.775 216V214.331L455.79 213.862V208.727H457.032V216H455.775Z" fill="white"/>
</g>
<rect x="407.5" width="66" height="16" rx="8" fill="#FFCC00"/>
<path d="M417.898 5.83168V4.72727H423.7V5.83168H421.452V12H420.146V5.83168H417.898ZM424.196 12V6.54545H425.442V7.45455H425.499C425.598 7.13968 425.769 6.89702 426.01 6.72656C426.254 6.55374 426.532 6.46733 426.845 6.46733C426.916 6.46733 426.995 6.47088 427.083 6.47798C427.173 6.48272 427.247 6.491 427.306 6.50284V7.68537C427.252 7.66643 427.166 7.64986 427.047 7.63565C426.931 7.61908 426.819 7.6108 426.71 7.6108C426.475 7.6108 426.265 7.66169 426.078 7.76349C425.893 7.86293 425.748 8.00142 425.641 8.17898C425.534 8.35653 425.481 8.56132 425.481 8.79332V12H424.196ZM429.632 12.1101C429.287 12.1101 428.975 12.0485 428.699 11.9254C428.424 11.8 428.206 11.6153 428.045 11.3714C427.886 11.1276 427.807 10.8269 427.807 10.4695C427.807 10.1617 427.864 9.9072 427.978 9.70597C428.091 9.50473 428.246 9.34375 428.443 9.22301C428.639 9.10227 428.861 9.01113 429.107 8.94957C429.355 8.88565 429.612 8.83949 429.877 8.81108C430.197 8.77794 430.456 8.74834 430.655 8.7223C430.854 8.69389 430.998 8.65128 431.088 8.59446C431.181 8.53527 431.227 8.44413 431.227 8.32102V8.29972C431.227 8.0322 431.148 7.82505 430.989 7.67827C430.83 7.53149 430.602 7.4581 430.304 7.4581C429.989 7.4581 429.739 7.52675 429.554 7.66406C429.372 7.80137 429.249 7.96354 429.185 8.15057L427.985 7.98011C428.079 7.64867 428.236 7.37169 428.453 7.14915C428.671 6.92424 428.938 6.75616 429.252 6.64489C429.567 6.53125 429.915 6.47443 430.297 6.47443C430.559 6.47443 430.821 6.50521 431.081 6.56676C431.342 6.62831 431.58 6.73011 431.795 6.87216C432.011 7.01184 432.183 7.20241 432.314 7.44389C432.446 7.68537 432.512 7.98722 432.512 8.34943V12H431.277V11.2507H431.234C431.156 11.4022 431.046 11.5443 430.904 11.6768C430.764 11.8071 430.588 11.9124 430.375 11.9929C430.164 12.071 429.917 12.1101 429.632 12.1101ZM429.966 11.1655C430.224 11.1655 430.448 11.1146 430.637 11.0128C430.827 10.9086 430.972 10.7713 431.074 10.6009C431.178 10.4304 431.23 10.2446 431.23 10.0433V9.40057C431.19 9.43371 431.122 9.46449 431.025 9.4929C430.93 9.52131 430.823 9.54616 430.705 9.56747C430.587 9.58878 430.469 9.60772 430.353 9.62429C430.237 9.64086 430.137 9.65507 430.051 9.6669C429.86 9.69294 429.688 9.73556 429.537 9.79474C429.385 9.85393 429.266 9.93679 429.178 10.0433C429.09 10.1475 429.047 10.2824 429.047 10.4482C429.047 10.6849 429.133 10.8636 429.306 10.9844C429.479 11.1051 429.699 11.1655 429.966 11.1655ZM435.829 12.0959C435.401 12.0959 435.017 11.9858 434.679 11.7656C434.34 11.5455 434.073 11.2259 433.876 10.8068C433.68 10.3878 433.581 9.87879 433.581 9.27983C433.581 8.67377 433.681 8.16241 433.88 7.74574C434.081 7.3267 434.352 7.01065 434.693 6.79759C435.034 6.58215 435.414 6.47443 435.833 6.47443C436.152 6.47443 436.415 6.52888 436.621 6.63778C436.827 6.74432 436.99 6.87334 437.111 7.02486C437.232 7.17401 437.325 7.31487 437.392 7.44744H437.445V4.72727H438.734V12H437.47V11.1406H437.392C437.325 11.2732 437.23 11.4141 437.104 11.5632C436.979 11.71 436.813 11.8355 436.607 11.9396C436.401 12.0438 436.142 12.0959 435.829 12.0959ZM436.188 11.0412C436.46 11.0412 436.692 10.9678 436.884 10.821C437.076 10.6719 437.221 10.4647 437.321 10.1996C437.42 9.93442 437.47 9.62547 437.47 9.27273C437.47 8.91998 437.42 8.6134 437.321 8.35298C437.224 8.09257 437.079 7.89015 436.887 7.74574C436.698 7.60133 436.465 7.52912 436.188 7.52912C435.901 7.52912 435.662 7.60369 435.471 7.75284C435.279 7.90199 435.134 8.10795 435.037 8.37074C434.94 8.63352 434.892 8.93419 434.892 9.27273C434.892 9.61364 434.94 9.91785 435.037 10.1854C435.137 10.4505 435.282 10.66 435.474 10.8139C435.668 10.9654 435.906 11.0412 436.188 11.0412ZM442.519 12.1065C441.972 12.1065 441.499 11.9929 441.102 11.7656C440.706 11.536 440.402 11.2116 440.189 10.7926C439.976 10.3712 439.869 9.87524 439.869 9.30469C439.869 8.74361 439.976 8.25118 440.189 7.82741C440.405 7.40128 440.705 7.06984 441.091 6.8331C441.477 6.59399 441.93 6.47443 442.451 6.47443C442.787 6.47443 443.105 6.52888 443.403 6.63778C443.704 6.74432 443.969 6.91004 444.198 7.13494C444.43 7.35985 444.613 7.64631 444.745 7.99432C444.878 8.33996 444.944 8.75189 444.944 9.23011V9.62429H440.473V8.75781H443.712C443.709 8.5116 443.656 8.29261 443.552 8.10085C443.448 7.90672 443.302 7.75402 443.115 7.64276C442.931 7.53149 442.715 7.47585 442.469 7.47585C442.206 7.47585 441.975 7.53977 441.776 7.66761C441.578 7.79309 441.423 7.95881 441.311 8.16477C441.202 8.36837 441.147 8.59209 441.144 8.83594V9.59233C441.144 9.90956 441.202 10.1818 441.318 10.4091C441.434 10.634 441.597 10.8068 441.805 10.9276C442.013 11.0459 442.257 11.1051 442.536 11.1051C442.723 11.1051 442.893 11.0791 443.044 11.027C443.196 10.9725 443.327 10.8932 443.438 10.7891C443.55 10.6849 443.634 10.5559 443.691 10.402L444.891 10.5369C444.815 10.8542 444.671 11.1312 444.458 11.3679C444.247 11.6023 443.977 11.7846 443.648 11.9148C443.319 12.0426 442.942 12.1065 442.519 12.1065ZM450.343 7.98722L449.171 8.11506C449.138 7.99669 449.08 7.88542 448.997 7.78125C448.916 7.67708 448.807 7.59304 448.67 7.52912C448.533 7.4652 448.365 7.43324 448.166 7.43324C447.898 7.43324 447.673 7.49124 447.491 7.60724C447.311 7.72325 447.222 7.87358 447.225 8.05824C447.222 8.21686 447.28 8.34588 447.399 8.44531C447.52 8.54474 447.718 8.62642 447.995 8.69034L448.926 8.8892C449.442 9.00047 449.825 9.17685 450.076 9.41832C450.33 9.6598 450.458 9.97585 450.46 10.3665C450.458 10.7098 450.357 11.0128 450.158 11.2756C449.962 11.536 449.688 11.7396 449.338 11.8864C448.987 12.0331 448.585 12.1065 448.13 12.1065C447.463 12.1065 446.925 11.9669 446.518 11.6875C446.111 11.4058 445.868 11.014 445.79 10.5121L447.044 10.3913C447.1 10.6375 447.221 10.8234 447.406 10.9489C447.591 11.0743 447.831 11.1371 448.127 11.1371C448.432 11.1371 448.677 11.0743 448.862 10.9489C449.049 10.8234 449.142 10.6683 449.142 10.4837C449.142 10.3274 449.082 10.1984 448.961 10.0966C448.843 9.99479 448.658 9.91667 448.407 9.86222L447.477 9.6669C446.954 9.558 446.567 9.37453 446.316 9.11648C446.065 8.85606 445.94 8.52699 445.943 8.12926C445.94 7.79309 446.032 7.50189 446.216 7.25568C446.403 7.0071 446.663 6.81534 446.994 6.6804C447.328 6.54309 447.712 6.47443 448.148 6.47443C448.787 6.47443 449.29 6.61056 449.657 6.88281C450.027 7.15507 450.255 7.5232 450.343 7.98722ZM452.312 12.0781C452.096 12.0781 451.912 12.0024 451.758 11.8509C451.604 11.6993 451.528 11.5147 451.531 11.2969C451.528 11.0838 451.604 10.9015 451.758 10.75C451.912 10.5985 452.096 10.5227 452.312 10.5227C452.52 10.5227 452.701 10.5985 452.855 10.75C453.011 10.9015 453.091 11.0838 453.093 11.2969C453.091 11.4413 453.053 11.5727 452.979 11.6911C452.908 11.8094 452.814 11.9041 452.695 11.9751C452.579 12.0438 452.451 12.0781 452.312 12.0781ZM452.312 8.18608C452.096 8.18608 451.912 8.11032 451.758 7.95881C451.604 7.80492 451.528 7.62027 451.531 7.40483C451.528 7.19176 451.604 7.00947 451.758 6.85795C451.912 6.70407 452.096 6.62713 452.312 6.62713C452.52 6.62713 452.701 6.70407 452.855 6.85795C453.011 7.00947 453.091 7.19176 453.093 7.40483C453.091 7.54687 453.053 7.67708 452.979 7.79545C452.908 7.91383 452.814 8.00852 452.695 8.07955C452.579 8.15057 452.451 8.18608 452.312 8.18608ZM459.55 12.0994C459.202 12.0971 458.862 12.0367 458.531 11.9183C458.199 11.7976 457.901 11.6023 457.636 11.3324C457.371 11.0601 457.16 10.6991 457.004 10.2493C456.847 9.79711 456.771 9.23722 456.773 8.5696C456.773 7.94697 456.839 7.39181 456.972 6.90412C457.104 6.41643 457.295 6.0045 457.544 5.66832C457.792 5.32978 458.092 5.07173 458.442 4.89418C458.795 4.71662 459.189 4.62784 459.624 4.62784C460.081 4.62784 460.486 4.7178 460.839 4.89773C461.194 5.07765 461.481 5.32386 461.698 5.63636C461.916 5.9465 462.051 6.29688 462.103 6.6875H460.807C460.741 6.40814 460.605 6.18561 460.399 6.01989C460.195 5.8518 459.937 5.76776 459.624 5.76776C459.12 5.76776 458.732 5.98674 458.46 6.42472C458.19 6.86269 458.054 7.46402 458.051 8.22869H458.101C458.217 8.02036 458.367 7.84162 458.552 7.69247C458.737 7.54332 458.945 7.4285 459.177 7.34801C459.411 7.26515 459.659 7.22372 459.919 7.22372C460.345 7.22372 460.728 7.32552 461.066 7.52912C461.407 7.73272 461.677 8.01326 461.876 8.37074C462.075 8.72585 462.173 9.13305 462.171 9.59233C462.173 10.0705 462.064 10.5002 461.844 10.8814C461.624 11.2602 461.317 11.5585 460.924 11.7763C460.531 11.9941 460.073 12.1018 459.55 12.0994ZM459.543 11.0341C459.801 11.0341 460.032 10.9714 460.235 10.8459C460.439 10.7204 460.6 10.5511 460.718 10.3381C460.837 10.125 460.895 9.88589 460.892 9.62074C460.895 9.36032 460.838 9.12476 460.722 8.91406C460.608 8.70336 460.451 8.53646 460.249 8.41335C460.048 8.29025 459.819 8.22869 459.561 8.22869C459.369 8.22869 459.19 8.26539 459.024 8.33878C458.859 8.41217 458.714 8.51397 458.591 8.64418C458.468 8.77202 458.371 8.92116 458.3 9.09162C458.231 9.25971 458.196 9.43963 458.193 9.63139C458.196 9.88471 458.255 10.1179 458.371 10.331C458.487 10.544 458.647 10.7145 458.85 10.8423C459.054 10.9702 459.285 11.0341 459.543 11.0341Z" fill="black"/>
<path d="M441.433 22.25C441.241 22.5833 440.759 22.5833 440.567 22.25L437.103 16.25C436.91 15.9167 437.151 15.5 437.536 15.5L444.464 15.5C444.849 15.5 445.09 15.9167 444.897 16.25L441.433 22.25Z" fill="#FFCC00"/>
<defs>
<filter id="filter0_i_1236_797" x="391.5" y="201" width="98.5" height="23" filterUnits="userSpaceOnUse" color-interpolation-filters="sRGB">
<feFlood flood-opacity="0" result="BackgroundImageFix"/>
<feBlend mode="normal" in="SourceGraphic" in2="BackgroundImageFix" result="shape"/>
<feColorMatrix in="SourceAlpha" type="matrix" values="0 0 0 0 0 0 0 0 0 0 0 0 0 0 0 0 0 0 127 0" result="hardAlpha"/>
<feOffset dy="1"/>
<feGaussianBlur stdDeviation="1"/>
<feComposite in2="hardAlpha" operator="arithmetic" k2="-1" k3="1"/>
<feColorMatrix type="matrix" values="0 0 0 0 1 0 0 0 0 1 0 0 0 0 1 0 0 0 0.1 0"/>
<feBlend mode="normal" in2="shape" result="effect1_innerShadow_1236_797"/>
</filter>
<linearGradient id="paint0_linear_1236_797" x1="49.5" y1="77.7234" x2="49.5" y2="101.128" gradientUnits="userSpaceOnUse">
<stop stop-color="#FFDC4E"/>
<stop offset="1" stop-color="#FFCC00"/>
</linearGradient>
<linearGradient id="paint1_linear_1236_797" x1="179.5" y1="23" x2="179.5" y2="101.404" gradientUnits="userSpaceOnUse">
<stop stop-color="#FFDC4E"/>
<stop offset="1" stop-color="#FFCC00"/>
</linearGradient>
<linearGradient id="paint2_linear_1236_797" x1="310.25" y1="61.6169" x2="310.25" y2="101.404" gradientUnits="userSpaceOnUse">
<stop stop-color="#FFDC4E"/>
<stop offset="1" stop-color="#FFCC00"/>
</linearGradient>
<linearGradient id="paint3_linear_1236_797" x1="441" y1="32" x2="441" y2="101.043" gradientUnits="userSpaceOnUse">
<stop stop-color="#FFDC4E"/>
<stop offset="1" stop-color="#FFCC00"/>
</linearGradient>
</defs>
</svg>
