<svg width="278" height="261" viewBox="0 0 278 261" fill="none" xmlns="http://www.w3.org/2000/svg">
<g filter="url(#filter0_d_325_5686)">
<circle cx="139" cy="125" r="107" fill="url(#paint0_linear_325_5686)"/>
<path d="M235 125C235 178.019 192.019 221 139 221C85.9807 221 43 178.019 43 125C43 71.9807 85.9807 29 139 29C192.019 29 235 71.9807 235 125ZM55.7699 125C55.7699 170.967 93.0333 208.23 139 208.23C184.967 208.23 222.23 170.967 222.23 125C222.23 79.0333 184.967 41.7699 139 41.7699C93.0333 41.7699 55.7699 79.0333 55.7699 125Z" fill="black" fill-opacity="0.1"/>
<path d="M228.615 125C232.141 125 235.022 122.138 234.788 118.62C233.954 106.095 230.67 93.8347 225.1 82.5403C218.587 69.3336 209.123 57.8022 197.441 48.8381C185.759 39.8739 172.171 33.7174 157.729 30.8446C145.377 28.3878 132.685 28.3891 120.371 30.8248C116.912 31.5091 114.893 35.0323 115.806 38.4385C116.719 41.8446 120.217 43.8403 123.683 43.1914C134.097 41.2416 144.808 41.2945 155.237 43.3691C167.759 45.8597 179.539 51.1974 189.667 58.9691C199.796 66.7408 208 76.7384 213.647 88.1883C218.35 97.7255 221.173 108.058 221.985 118.621C222.256 122.137 225.089 125 228.615 125Z" fill="black"/>
<rect x="115" y="113" width="49" height="25" rx="12.5" fill="black"/>
<path d="M131.93 124.176V125.828H125.994V124.176H131.93ZM140.4 121.278L136.676 130H134.688L138.44 121.502H133.652V119.822H140.4V121.278ZM142.666 130.098C142.311 130.098 142.017 129.991 141.784 129.776C141.56 129.552 141.448 129.277 141.448 128.95C141.448 128.623 141.56 128.353 141.784 128.138C142.017 127.914 142.311 127.802 142.666 127.802C143.011 127.802 143.296 127.914 143.52 128.138C143.744 128.353 143.856 128.623 143.856 128.95C143.856 129.277 143.744 129.552 143.52 129.776C143.296 129.991 143.011 130.098 142.666 130.098ZM152.071 121.488H147.535V123.882C147.731 123.639 148.011 123.443 148.375 123.294C148.739 123.135 149.126 123.056 149.537 123.056C150.283 123.056 150.895 123.219 151.371 123.546C151.847 123.873 152.192 124.293 152.407 124.806C152.621 125.31 152.729 125.851 152.729 126.43C152.729 127.503 152.421 128.367 151.805 129.02C151.198 129.673 150.33 130 149.201 130C148.137 130 147.287 129.734 146.653 129.202C146.018 128.67 145.659 127.975 145.575 127.116H147.479C147.563 127.489 147.749 127.788 148.039 128.012C148.337 128.236 148.715 128.348 149.173 128.348C149.723 128.348 150.139 128.175 150.419 127.83C150.699 127.485 150.839 127.027 150.839 126.458C150.839 125.879 150.694 125.441 150.405 125.142C150.125 124.834 149.709 124.68 149.159 124.68C148.767 124.68 148.44 124.778 148.179 124.974C147.917 125.17 147.731 125.431 147.619 125.758H145.743V119.766H152.071V121.488Z" fill="white"/>
</g>
<defs>
<filter id="filter0_d_325_5686" x="0" y="0" width="278" height="278" filterUnits="userSpaceOnUse" color-interpolation-filters="sRGB">
<feFlood flood-opacity="0" result="BackgroundImageFix"/>
<feColorMatrix in="SourceAlpha" type="matrix" values="0 0 0 0 0 0 0 0 0 0 0 0 0 0 0 0 0 0 127 0" result="hardAlpha"/>
<feOffset dy="14"/>
<feGaussianBlur stdDeviation="16"/>
<feComposite in2="hardAlpha" operator="out"/>
<feColorMatrix type="matrix" values="0 0 0 0 0 0 0 0 0 0 0 0 0 0 0 0 0 0 0.1 0"/>
<feBlend mode="normal" in2="BackgroundImageFix" result="effect1_dropShadow_325_5686"/>
<feBlend mode="normal" in="SourceGraphic" in2="effect1_dropShadow_325_5686" result="shape"/>
</filter>
<linearGradient id="paint0_linear_325_5686" x1="139" y1="18" x2="139" y2="232" gradientUnits="userSpaceOnUse">
<stop stop-color="#FFDC4E"/>
<stop offset="1" stop-color="#FFCC00"/>
</linearGradient>
</defs>
</svg>
