<svg width="587" height="232" viewBox="0 0 587 232" fill="none" xmlns="http://www.w3.org/2000/svg">
<path d="M0 79L171.951 77.6317C182.909 77.5445 193.778 75.6568 204.124 72.044L315.99 32.9797C335.515 26.1613 356.674 25.5646 376.553 31.2717L494.014 64.9945C498.665 66.3297 503.407 67.3257 508.202 67.9744L586 78.5" stroke="url(#paint0_linear_86_42382)"/>
<path d="M171.605 76.8504L0 78.3725V232H586V78.3725L500.963 66.7151L374.913 31.3843C355.43 25.9235 334.749 26.5012 315.602 33.041L203.04 71.4868C192.916 74.9446 182.303 76.7555 171.605 76.8504Z" fill="url(#paint1_linear_86_42382)"/>
<rect x="331" y="15" width="24" height="24" rx="12" fill="#1E1E1A"/>
<circle cx="343" cy="27" r="10" fill="#FFCC00"/>
<rect x="317" y="23" width="51" height="189" rx="10" fill="url(#paint2_linear_86_42382)"/>
<path d="M30.97 199.42C31.61 198.887 32.12 198.443 32.5 198.09C32.88 197.73 33.1967 197.357 33.45 196.97C33.7033 196.583 33.83 196.203 33.83 195.83C33.83 195.49 33.75 195.223 33.59 195.03C33.43 194.837 33.1833 194.74 32.85 194.74C32.5167 194.74 32.26 194.853 32.08 195.08C31.9 195.3 31.8067 195.603 31.8 195.99H30.44C30.4667 195.19 30.7033 194.583 31.15 194.17C31.6033 193.757 32.1767 193.55 32.87 193.55C33.63 193.55 34.2133 193.753 34.62 194.16C35.0267 194.56 35.23 195.09 35.23 195.75C35.23 196.27 35.09 196.767 34.81 197.24C34.53 197.713 34.21 198.127 33.85 198.48C33.49 198.827 33.02 199.247 32.44 199.74H35.39V200.9H30.45V199.86L30.97 199.42ZM36.2722 197.26C36.2722 196.107 36.4789 195.203 36.8922 194.55C37.3122 193.897 38.0055 193.57 38.9722 193.57C39.9389 193.57 40.6289 193.897 41.0422 194.55C41.4622 195.203 41.6722 196.107 41.6722 197.26C41.6722 198.42 41.4622 199.33 41.0422 199.99C40.6289 200.65 39.9389 200.98 38.9722 200.98C38.0055 200.98 37.3122 200.65 36.8922 199.99C36.4789 199.33 36.2722 198.42 36.2722 197.26ZM40.2922 197.26C40.2922 196.767 40.2589 196.353 40.1922 196.02C40.1322 195.68 40.0055 195.403 39.8122 195.19C39.6255 194.977 39.3455 194.87 38.9722 194.87C38.5989 194.87 38.3155 194.977 38.1222 195.19C37.9355 195.403 37.8089 195.68 37.7422 196.02C37.6822 196.353 37.6522 196.767 37.6522 197.26C37.6522 197.767 37.6822 198.193 37.7422 198.54C37.8022 198.88 37.9289 199.157 38.1222 199.37C38.3155 199.577 38.5989 199.68 38.9722 199.68C39.3455 199.68 39.6289 199.577 39.8222 199.37C40.0155 199.157 40.1422 198.88 40.2022 198.54C40.2622 198.193 40.2922 197.767 40.2922 197.26ZM43.177 199.42C43.817 198.887 44.327 198.443 44.707 198.09C45.087 197.73 45.4037 197.357 45.657 196.97C45.9104 196.583 46.037 196.203 46.037 195.83C46.037 195.49 45.957 195.223 45.797 195.03C45.637 194.837 45.3904 194.74 45.057 194.74C44.7237 194.74 44.467 194.853 44.287 195.08C44.107 195.3 44.0137 195.603 44.007 195.99H42.647C42.6737 195.19 42.9104 194.583 43.357 194.17C43.8104 193.757 44.3837 193.55 45.077 193.55C45.837 193.55 46.4204 193.753 46.827 194.16C47.2337 194.56 47.437 195.09 47.437 195.75C47.437 196.27 47.297 196.767 47.017 197.24C46.737 197.713 46.417 198.127 46.057 198.48C45.697 198.827 45.227 199.247 44.647 199.74H47.597V200.9H42.657V199.86L43.177 199.42ZM48.9192 199.42C49.5592 198.887 50.0692 198.443 50.4492 198.09C50.8292 197.73 51.1459 197.357 51.3992 196.97C51.6526 196.583 51.7792 196.203 51.7792 195.83C51.7792 195.49 51.6992 195.223 51.5392 195.03C51.3792 194.837 51.1326 194.74 50.7992 194.74C50.4659 194.74 50.2092 194.853 50.0292 195.08C49.8492 195.3 49.7559 195.603 49.7492 195.99H48.3892C48.4159 195.19 48.6526 194.583 49.0992 194.17C49.5526 193.757 50.1259 193.55 50.8192 193.55C51.5792 193.55 52.1626 193.753 52.5692 194.16C52.9759 194.56 53.1792 195.09 53.1792 195.75C53.1792 196.27 53.0392 196.767 52.7592 197.24C52.4792 197.713 52.1592 198.127 51.7992 198.48C51.4392 198.827 50.9692 199.247 50.3892 199.74H53.3392V200.9H48.3992V199.86L48.9192 199.42Z" fill="white"/>
<path d="M130.77 199.42C131.41 198.887 131.92 198.443 132.3 198.09C132.68 197.73 132.997 197.357 133.25 196.97C133.503 196.583 133.63 196.203 133.63 195.83C133.63 195.49 133.55 195.223 133.39 195.03C133.23 194.837 132.983 194.74 132.65 194.74C132.317 194.74 132.06 194.853 131.88 195.08C131.7 195.3 131.607 195.603 131.6 195.99H130.24C130.267 195.19 130.503 194.583 130.95 194.17C131.403 193.757 131.977 193.55 132.67 193.55C133.43 193.55 134.013 193.753 134.42 194.16C134.827 194.56 135.03 195.09 135.03 195.75C135.03 196.27 134.89 196.767 134.61 197.24C134.33 197.713 134.01 198.127 133.65 198.48C133.29 198.827 132.82 199.247 132.24 199.74H135.19V200.9H130.25V199.86L130.77 199.42ZM136.072 197.26C136.072 196.107 136.279 195.203 136.692 194.55C137.112 193.897 137.806 193.57 138.772 193.57C139.739 193.57 140.429 193.897 140.842 194.55C141.262 195.203 141.472 196.107 141.472 197.26C141.472 198.42 141.262 199.33 140.842 199.99C140.429 200.65 139.739 200.98 138.772 200.98C137.806 200.98 137.112 200.65 136.692 199.99C136.279 199.33 136.072 198.42 136.072 197.26ZM140.092 197.26C140.092 196.767 140.059 196.353 139.992 196.02C139.932 195.68 139.806 195.403 139.612 195.19C139.426 194.977 139.146 194.87 138.772 194.87C138.399 194.87 138.116 194.977 137.922 195.19C137.736 195.403 137.609 195.68 137.542 196.02C137.482 196.353 137.452 196.767 137.452 197.26C137.452 197.767 137.482 198.193 137.542 198.54C137.602 198.88 137.729 199.157 137.922 199.37C138.116 199.577 138.399 199.68 138.772 199.68C139.146 199.68 139.429 199.577 139.622 199.37C139.816 199.157 139.942 198.88 140.002 198.54C140.062 198.193 140.092 197.767 140.092 197.26ZM142.977 199.42C143.617 198.887 144.127 198.443 144.507 198.09C144.887 197.73 145.204 197.357 145.457 196.97C145.71 196.583 145.837 196.203 145.837 195.83C145.837 195.49 145.757 195.223 145.597 195.03C145.437 194.837 145.19 194.74 144.857 194.74C144.524 194.74 144.267 194.853 144.087 195.08C143.907 195.3 143.814 195.603 143.807 195.99H142.447C142.474 195.19 142.71 194.583 143.157 194.17C143.61 193.757 144.184 193.55 144.877 193.55C145.637 193.55 146.22 193.753 146.627 194.16C147.034 194.56 147.237 195.09 147.237 195.75C147.237 196.27 147.097 196.767 146.817 197.24C146.537 197.713 146.217 198.127 145.857 198.48C145.497 198.827 145.027 199.247 144.447 199.74H147.397V200.9H142.457V199.86L142.977 199.42ZM148.299 195.63C148.333 194.963 148.566 194.45 148.999 194.09C149.439 193.723 150.016 193.54 150.729 193.54C151.216 193.54 151.633 193.627 151.979 193.8C152.326 193.967 152.586 194.197 152.759 194.49C152.939 194.777 153.029 195.103 153.029 195.47C153.029 195.89 152.919 196.247 152.699 196.54C152.486 196.827 152.229 197.02 151.929 197.12V197.16C152.316 197.28 152.616 197.493 152.829 197.8C153.049 198.107 153.159 198.5 153.159 198.98C153.159 199.38 153.066 199.737 152.879 200.05C152.699 200.363 152.429 200.61 152.069 200.79C151.716 200.963 151.289 201.05 150.789 201.05C150.036 201.05 149.423 200.86 148.949 200.48C148.476 200.1 148.226 199.54 148.199 198.8H149.559C149.573 199.127 149.683 199.39 149.889 199.59C150.103 199.783 150.393 199.88 150.759 199.88C151.099 199.88 151.359 199.787 151.539 199.6C151.726 199.407 151.819 199.16 151.819 198.86C151.819 198.46 151.693 198.173 151.439 198C151.186 197.827 150.793 197.74 150.259 197.74H149.969V196.59H150.259C151.206 196.59 151.679 196.273 151.679 195.64C151.679 195.353 151.593 195.13 151.419 194.97C151.253 194.81 151.009 194.73 150.689 194.73C150.376 194.73 150.133 194.817 149.959 194.99C149.793 195.157 149.696 195.37 149.669 195.63H148.299Z" fill="white"/>
<path d="M230.57 199.42C231.21 198.887 231.72 198.443 232.1 198.09C232.48 197.73 232.797 197.357 233.05 196.97C233.303 196.583 233.43 196.203 233.43 195.83C233.43 195.49 233.35 195.223 233.19 195.03C233.03 194.837 232.783 194.74 232.45 194.74C232.117 194.74 231.86 194.853 231.68 195.08C231.5 195.3 231.407 195.603 231.4 195.99H230.04C230.067 195.19 230.303 194.583 230.75 194.17C231.203 193.757 231.777 193.55 232.47 193.55C233.23 193.55 233.813 193.753 234.22 194.16C234.627 194.56 234.83 195.09 234.83 195.75C234.83 196.27 234.69 196.767 234.41 197.24C234.13 197.713 233.81 198.127 233.45 198.48C233.09 198.827 232.62 199.247 232.04 199.74H234.99V200.9H230.05V199.86L230.57 199.42ZM235.872 197.26C235.872 196.107 236.079 195.203 236.492 194.55C236.912 193.897 237.606 193.57 238.572 193.57C239.539 193.57 240.229 193.897 240.642 194.55C241.062 195.203 241.272 196.107 241.272 197.26C241.272 198.42 241.062 199.33 240.642 199.99C240.229 200.65 239.539 200.98 238.572 200.98C237.606 200.98 236.912 200.65 236.492 199.99C236.079 199.33 235.872 198.42 235.872 197.26ZM239.892 197.26C239.892 196.767 239.859 196.353 239.792 196.02C239.732 195.68 239.606 195.403 239.412 195.19C239.226 194.977 238.946 194.87 238.572 194.87C238.199 194.87 237.916 194.977 237.722 195.19C237.536 195.403 237.409 195.68 237.342 196.02C237.282 196.353 237.252 196.767 237.252 197.26C237.252 197.767 237.282 198.193 237.342 198.54C237.402 198.88 237.529 199.157 237.722 199.37C237.916 199.577 238.199 199.68 238.572 199.68C238.946 199.68 239.229 199.577 239.422 199.37C239.616 199.157 239.742 198.88 239.802 198.54C239.862 198.193 239.892 197.767 239.892 197.26ZM242.777 199.42C243.417 198.887 243.927 198.443 244.307 198.09C244.687 197.73 245.004 197.357 245.257 196.97C245.51 196.583 245.637 196.203 245.637 195.83C245.637 195.49 245.557 195.223 245.397 195.03C245.237 194.837 244.99 194.74 244.657 194.74C244.324 194.74 244.067 194.853 243.887 195.08C243.707 195.3 243.614 195.603 243.607 195.99H242.247C242.274 195.19 242.51 194.583 242.957 194.17C243.41 193.757 243.984 193.55 244.677 193.55C245.437 193.55 246.02 193.753 246.427 194.16C246.834 194.56 247.037 195.09 247.037 195.75C247.037 196.27 246.897 196.767 246.617 197.24C246.337 197.713 246.017 198.127 245.657 198.48C245.297 198.827 244.827 199.247 244.247 199.74H247.197V200.9H242.257V199.86L242.777 199.42ZM248.019 199.58V198.48L251.289 193.8H252.919V198.36H253.799V199.58H252.919V201H251.519V199.58H248.019ZM251.609 195.3L249.559 198.36H251.609V195.3Z" fill="white"/>
<g filter="url(#filter0_i_86_42382)">
<rect x="320.4" y="186" width="45" height="22" rx="11" fill="black" fill-opacity="0.4"/>
<path d="M331.37 199.42C332.01 198.887 332.52 198.443 332.9 198.09C333.28 197.73 333.597 197.357 333.85 196.97C334.103 196.583 334.23 196.203 334.23 195.83C334.23 195.49 334.15 195.223 333.99 195.03C333.83 194.837 333.583 194.74 333.25 194.74C332.917 194.74 332.66 194.853 332.48 195.08C332.3 195.3 332.207 195.603 332.2 195.99H330.84C330.867 195.19 331.103 194.583 331.55 194.17C332.003 193.757 332.577 193.55 333.27 193.55C334.03 193.55 334.613 193.753 335.02 194.16C335.427 194.56 335.63 195.09 335.63 195.75C335.63 196.27 335.49 196.767 335.21 197.24C334.93 197.713 334.61 198.127 334.25 198.48C333.89 198.827 333.42 199.247 332.84 199.74H335.79V200.9H330.85V199.86L331.37 199.42ZM336.672 197.26C336.672 196.107 336.879 195.203 337.292 194.55C337.712 193.897 338.405 193.57 339.372 193.57C340.339 193.57 341.029 193.897 341.442 194.55C341.862 195.203 342.072 196.107 342.072 197.26C342.072 198.42 341.862 199.33 341.442 199.99C341.029 200.65 340.339 200.98 339.372 200.98C338.405 200.98 337.712 200.65 337.292 199.99C336.879 199.33 336.672 198.42 336.672 197.26ZM340.692 197.26C340.692 196.767 340.659 196.353 340.592 196.02C340.532 195.68 340.405 195.403 340.212 195.19C340.025 194.977 339.745 194.87 339.372 194.87C338.999 194.87 338.715 194.977 338.522 195.19C338.335 195.403 338.209 195.68 338.142 196.02C338.082 196.353 338.052 196.767 338.052 197.26C338.052 197.767 338.082 198.193 338.142 198.54C338.202 198.88 338.329 199.157 338.522 199.37C338.715 199.577 338.999 199.68 339.372 199.68C339.745 199.68 340.029 199.577 340.222 199.37C340.415 199.157 340.542 198.88 340.602 198.54C340.662 198.193 340.692 197.767 340.692 197.26ZM343.577 199.42C344.217 198.887 344.727 198.443 345.107 198.09C345.487 197.73 345.804 197.357 346.057 196.97C346.31 196.583 346.437 196.203 346.437 195.83C346.437 195.49 346.357 195.223 346.197 195.03C346.037 194.837 345.79 194.74 345.457 194.74C345.124 194.74 344.867 194.853 344.687 195.08C344.507 195.3 344.414 195.603 344.407 195.99H343.047C343.074 195.19 343.31 194.583 343.757 194.17C344.21 193.757 344.784 193.55 345.477 193.55C346.237 193.55 346.82 193.753 347.227 194.16C347.634 194.56 347.837 195.09 347.837 195.75C347.837 196.27 347.697 196.767 347.417 197.24C347.137 197.713 346.817 198.127 346.457 198.48C346.097 198.827 345.627 199.247 345.047 199.74H347.997V200.9H343.057V199.86L343.577 199.42ZM353.779 194.92H350.539V196.63C350.679 196.457 350.879 196.317 351.139 196.21C351.399 196.097 351.676 196.04 351.969 196.04C352.502 196.04 352.939 196.157 353.279 196.39C353.619 196.623 353.866 196.923 354.019 197.29C354.172 197.65 354.249 198.037 354.249 198.45C354.249 199.217 354.029 199.833 353.589 200.3C353.156 200.767 352.536 201 351.729 201C350.969 201 350.362 200.81 349.909 200.43C349.456 200.05 349.199 199.553 349.139 198.94H350.499C350.559 199.207 350.692 199.42 350.899 199.58C351.112 199.74 351.382 199.82 351.709 199.82C352.102 199.82 352.399 199.697 352.599 199.45C352.799 199.203 352.899 198.877 352.899 198.47C352.899 198.057 352.796 197.743 352.589 197.53C352.389 197.31 352.092 197.2 351.699 197.2C351.419 197.2 351.186 197.27 350.999 197.41C350.812 197.55 350.679 197.737 350.599 197.97H349.259V193.69H353.779V194.92Z" fill="white"/>
</g>
<path d="M432.17 199.42C432.81 198.887 433.32 198.443 433.7 198.09C434.08 197.73 434.397 197.357 434.65 196.97C434.903 196.583 435.03 196.203 435.03 195.83C435.03 195.49 434.95 195.223 434.79 195.03C434.63 194.837 434.383 194.74 434.05 194.74C433.717 194.74 433.46 194.853 433.28 195.08C433.1 195.3 433.007 195.603 433 195.99H431.64C431.667 195.19 431.903 194.583 432.35 194.17C432.803 193.757 433.377 193.55 434.07 193.55C434.83 193.55 435.413 193.753 435.82 194.16C436.227 194.56 436.43 195.09 436.43 195.75C436.43 196.27 436.29 196.767 436.01 197.24C435.73 197.713 435.41 198.127 435.05 198.48C434.69 198.827 434.22 199.247 433.64 199.74H436.59V200.9H431.65V199.86L432.17 199.42ZM437.472 197.26C437.472 196.107 437.679 195.203 438.092 194.55C438.512 193.897 439.205 193.57 440.172 193.57C441.139 193.57 441.829 193.897 442.242 194.55C442.662 195.203 442.872 196.107 442.872 197.26C442.872 198.42 442.662 199.33 442.242 199.99C441.829 200.65 441.139 200.98 440.172 200.98C439.205 200.98 438.512 200.65 438.092 199.99C437.679 199.33 437.472 198.42 437.472 197.26ZM441.492 197.26C441.492 196.767 441.459 196.353 441.392 196.02C441.332 195.68 441.205 195.403 441.012 195.19C440.825 194.977 440.545 194.87 440.172 194.87C439.799 194.87 439.515 194.977 439.322 195.19C439.135 195.403 439.009 195.68 438.942 196.02C438.882 196.353 438.852 196.767 438.852 197.26C438.852 197.767 438.882 198.193 438.942 198.54C439.002 198.88 439.129 199.157 439.322 199.37C439.515 199.577 439.799 199.68 440.172 199.68C440.545 199.68 440.829 199.577 441.022 199.37C441.215 199.157 441.342 198.88 441.402 198.54C441.462 198.193 441.492 197.767 441.492 197.26ZM444.377 199.42C445.017 198.887 445.527 198.443 445.907 198.09C446.287 197.73 446.604 197.357 446.857 196.97C447.11 196.583 447.237 196.203 447.237 195.83C447.237 195.49 447.157 195.223 446.997 195.03C446.837 194.837 446.59 194.74 446.257 194.74C445.924 194.74 445.667 194.853 445.487 195.08C445.307 195.3 445.214 195.603 445.207 195.99H443.847C443.874 195.19 444.11 194.583 444.557 194.17C445.01 193.757 445.584 193.55 446.277 193.55C447.037 193.55 447.62 193.753 448.027 194.16C448.434 194.56 448.637 195.09 448.637 195.75C448.637 196.27 448.497 196.767 448.217 197.24C447.937 197.713 447.617 198.127 447.257 198.48C446.897 198.827 446.427 199.247 445.847 199.74H448.797V200.9H443.857V199.86L444.377 199.42ZM453.459 195.53C453.393 195.25 453.276 195.04 453.109 194.9C452.949 194.76 452.716 194.69 452.409 194.69C451.949 194.69 451.609 194.877 451.389 195.25C451.176 195.617 451.066 196.217 451.059 197.05C451.219 196.783 451.453 196.577 451.759 196.43C452.066 196.277 452.399 196.2 452.759 196.2C453.193 196.2 453.576 196.293 453.909 196.48C454.243 196.667 454.503 196.94 454.689 197.3C454.876 197.653 454.969 198.08 454.969 198.58C454.969 199.053 454.873 199.477 454.679 199.85C454.493 200.217 454.216 200.503 453.849 200.71C453.483 200.917 453.046 201.02 452.539 201.02C451.846 201.02 451.299 200.867 450.899 200.56C450.506 200.253 450.229 199.827 450.069 199.28C449.916 198.727 449.839 198.047 449.839 197.24C449.839 196.02 450.049 195.1 450.469 194.48C450.889 193.853 451.553 193.54 452.459 193.54C453.159 193.54 453.703 193.73 454.089 194.11C454.476 194.49 454.699 194.963 454.759 195.53H453.459ZM452.439 197.35C452.086 197.35 451.789 197.453 451.549 197.66C451.309 197.867 451.189 198.167 451.189 198.56C451.189 198.953 451.299 199.263 451.519 199.49C451.746 199.717 452.063 199.83 452.469 199.83C452.829 199.83 453.113 199.72 453.319 199.5C453.533 199.28 453.639 198.983 453.639 198.61C453.639 198.223 453.536 197.917 453.329 197.69C453.129 197.463 452.833 197.35 452.439 197.35Z" fill="white"/>
<path d="M532.97 199.42C533.61 198.887 534.12 198.443 534.5 198.09C534.88 197.73 535.197 197.357 535.45 196.97C535.703 196.583 535.83 196.203 535.83 195.83C535.83 195.49 535.75 195.223 535.59 195.03C535.43 194.837 535.183 194.74 534.85 194.74C534.517 194.74 534.26 194.853 534.08 195.08C533.9 195.3 533.807 195.603 533.8 195.99H532.44C532.467 195.19 532.703 194.583 533.15 194.17C533.603 193.757 534.177 193.55 534.87 193.55C535.63 193.55 536.213 193.753 536.62 194.16C537.027 194.56 537.23 195.09 537.23 195.75C537.23 196.27 537.09 196.767 536.81 197.24C536.53 197.713 536.21 198.127 535.85 198.48C535.49 198.827 535.02 199.247 534.44 199.74H537.39V200.9H532.45V199.86L532.97 199.42ZM538.272 197.26C538.272 196.107 538.479 195.203 538.892 194.55C539.312 193.897 540.006 193.57 540.972 193.57C541.939 193.57 542.629 193.897 543.042 194.55C543.462 195.203 543.672 196.107 543.672 197.26C543.672 198.42 543.462 199.33 543.042 199.99C542.629 200.65 541.939 200.98 540.972 200.98C540.006 200.98 539.312 200.65 538.892 199.99C538.479 199.33 538.272 198.42 538.272 197.26ZM542.292 197.26C542.292 196.767 542.259 196.353 542.192 196.02C542.132 195.68 542.006 195.403 541.812 195.19C541.626 194.977 541.346 194.87 540.972 194.87C540.599 194.87 540.316 194.977 540.122 195.19C539.936 195.403 539.809 195.68 539.742 196.02C539.682 196.353 539.652 196.767 539.652 197.26C539.652 197.767 539.682 198.193 539.742 198.54C539.802 198.88 539.929 199.157 540.122 199.37C540.316 199.577 540.599 199.68 540.972 199.68C541.346 199.68 541.629 199.577 541.822 199.37C542.016 199.157 542.142 198.88 542.202 198.54C542.262 198.193 542.292 197.767 542.292 197.26ZM545.177 199.42C545.817 198.887 546.327 198.443 546.707 198.09C547.087 197.73 547.404 197.357 547.657 196.97C547.91 196.583 548.037 196.203 548.037 195.83C548.037 195.49 547.957 195.223 547.797 195.03C547.637 194.837 547.39 194.74 547.057 194.74C546.724 194.74 546.467 194.853 546.287 195.08C546.107 195.3 546.014 195.603 546.007 195.99H544.647C544.674 195.19 544.91 194.583 545.357 194.17C545.81 193.757 546.384 193.55 547.077 193.55C547.837 193.55 548.42 193.753 548.827 194.16C549.234 194.56 549.437 195.09 549.437 195.75C549.437 196.27 549.297 196.767 549.017 197.24C548.737 197.713 548.417 198.127 548.057 198.48C547.697 198.827 547.227 199.247 546.647 199.74H549.597V200.9H544.657V199.86L545.177 199.42ZM555.119 194.77L552.459 201H551.039L553.719 194.93H550.299V193.73H555.119V194.77Z" fill="white"/>
<defs>
<filter id="filter0_i_86_42382" x="320.4" y="186" width="45" height="23" filterUnits="userSpaceOnUse" color-interpolation-filters="sRGB">
<feFlood flood-opacity="0" result="BackgroundImageFix"/>
<feBlend mode="normal" in="SourceGraphic" in2="BackgroundImageFix" result="shape"/>
<feColorMatrix in="SourceAlpha" type="matrix" values="0 0 0 0 0 0 0 0 0 0 0 0 0 0 0 0 0 0 127 0" result="hardAlpha"/>
<feOffset dy="1"/>
<feGaussianBlur stdDeviation="1"/>
<feComposite in2="hardAlpha" operator="arithmetic" k2="-1" k3="1"/>
<feColorMatrix type="matrix" values="0 0 0 0 1 0 0 0 0 1 0 0 0 0 1 0 0 0 0.1 0"/>
<feBlend mode="normal" in2="shape" result="effect1_innerShadow_86_42382"/>
</filter>
<linearGradient id="paint0_linear_86_42382" x1="293" y1="22.5" x2="293" y2="79" gradientUnits="userSpaceOnUse">
<stop stop-color="#FFDC4E"/>
<stop offset="1" stop-color="#FFCC00"/>
</linearGradient>
<linearGradient id="paint1_linear_86_42382" x1="293" y1="42.1514" x2="293" y2="232" gradientUnits="userSpaceOnUse">
<stop stop-color="#FFCC00" stop-opacity="0.1"/>
<stop offset="1" stop-color="#FFCC00" stop-opacity="0"/>
</linearGradient>
<linearGradient id="paint2_linear_86_42382" x1="342.5" y1="23" x2="342.5" y2="212" gradientUnits="userSpaceOnUse">
<stop stop-opacity="0"/>
<stop offset="1" stop-opacity="0.2"/>
</linearGradient>
</defs>
</svg>
