<svg width="538" height="228" viewBox="0 0 538 228" fill="none" xmlns="http://www.w3.org/2000/svg">
<rect width="264" height="228" rx="20" fill="black" fill-opacity="0.2"/>
<rect width="264" height="228" rx="20" fill="url(#paint0_linear_1492_720)" fill-opacity="0.8"/>
<rect x="0.5" y="0.5" width="263" height="227" rx="19.5" stroke="white" stroke-opacity="0.1"/>
<g filter="url(#filter1_di_1492_720)">
<rect x="24" y="24" width="62" height="28" rx="14" fill="white" fill-opacity="0.01" shape-rendering="crispEdges"/>
<rect x="24.5" y="24.5" width="61" height="27" rx="13.5" stroke="url(#paint1_linear_1492_720)" shape-rendering="crispEdges"/>
<path d="M38.7656 36.6378C38.7277 36.3016 38.5715 36.0412 38.2969 35.8565C38.0223 35.6695 37.6766 35.576 37.2599 35.576C36.9616 35.576 36.7036 35.6233 36.4858 35.718C36.268 35.8104 36.0987 35.9382 35.978 36.1016C35.8596 36.2625 35.8004 36.446 35.8004 36.652C35.8004 36.8248 35.8407 36.974 35.9212 37.0994C36.004 37.2249 36.1117 37.3303 36.2443 37.4155C36.3793 37.4983 36.5237 37.5682 36.6776 37.625C36.8314 37.6795 36.9794 37.7244 37.1214 37.7599L37.8317 37.9446C38.0637 38.0014 38.3016 38.0784 38.5455 38.1754C38.7893 38.2725 39.0154 38.4003 39.2237 38.5589C39.4321 38.7176 39.6001 38.9141 39.728 39.1484C39.8582 39.3828 39.9233 39.6634 39.9233 39.9901C39.9233 40.402 39.8168 40.7678 39.6037 41.0874C39.393 41.407 39.0864 41.6591 38.6839 41.8438C38.2839 42.0284 37.7997 42.1207 37.2315 42.1207C36.687 42.1207 36.2159 42.0343 35.8182 41.8615C35.4205 41.6887 35.1091 41.4437 34.8842 41.1264C34.6593 40.8068 34.535 40.428 34.5114 39.9901H35.6122C35.6335 40.2528 35.7188 40.4718 35.8679 40.647C36.0194 40.8198 36.2124 40.9489 36.4467 41.0341C36.6835 41.117 36.9427 41.1584 37.2244 41.1584C37.5346 41.1584 37.8104 41.1098 38.0518 41.0128C38.2957 40.9134 38.4875 40.776 38.6271 40.6009C38.7668 40.4233 38.8366 40.2161 38.8366 39.9794C38.8366 39.764 38.7751 39.5876 38.652 39.4503C38.5313 39.313 38.3667 39.1993 38.1584 39.1094C37.9524 39.0194 37.7192 38.9401 37.4588 38.8714L36.5994 38.6371C36.017 38.4785 35.5554 38.2453 35.2145 37.9375C34.8759 37.6297 34.7067 37.2225 34.7067 36.7159C34.7067 36.2969 34.8203 35.9311 35.0476 35.6186C35.2749 35.3061 35.5826 35.0634 35.9709 34.8906C36.3591 34.7154 36.7971 34.6278 37.2848 34.6278C37.7772 34.6278 38.2116 34.7143 38.5881 34.8871C38.9669 35.0599 39.2652 35.2978 39.483 35.6009C39.7008 35.9015 39.8144 36.2472 39.8239 36.6378H38.7656ZM43.6955 36.5455V37.3977H40.7161V36.5455H43.6955ZM41.5151 35.2386H42.5769V40.3984C42.5769 40.6044 42.6077 40.7595 42.6692 40.8636C42.7308 40.9654 42.8101 41.0353 42.9071 41.0732C43.0066 41.1087 43.1143 41.1264 43.2303 41.1264C43.3155 41.1264 43.3901 41.1205 43.454 41.1087C43.5179 41.0968 43.5676 41.0874 43.6032 41.0803L43.7949 41.9574C43.7334 41.9811 43.6458 42.0047 43.5321 42.0284C43.4185 42.0545 43.2765 42.0687 43.106 42.071C42.8266 42.0758 42.5662 42.026 42.3248 41.9219C42.0833 41.8177 41.888 41.6567 41.7388 41.4389C41.5897 41.2211 41.5151 40.9477 41.5151 40.6186V35.2386ZM46.4574 42.1207C46.1117 42.1207 45.7992 42.0568 45.5199 41.929C45.2405 41.7988 45.0192 41.6106 44.8558 41.3643C44.6948 41.1181 44.6143 40.8163 44.6143 40.4588C44.6143 40.151 44.6735 39.8977 44.7919 39.6989C44.9103 39.5 45.0701 39.3426 45.2713 39.2266C45.4725 39.1106 45.6974 39.023 45.946 38.9638C46.1946 38.9046 46.4479 38.8596 46.706 38.8288C47.0327 38.791 47.2978 38.7602 47.5014 38.7365C47.705 38.7105 47.853 38.669 47.9453 38.6122C48.0376 38.5554 48.0838 38.4631 48.0838 38.3352V38.3104C48.0838 38.0002 47.9962 37.7599 47.821 37.5895C47.6482 37.419 47.3902 37.3338 47.0469 37.3338C46.6894 37.3338 46.4077 37.4131 46.2017 37.5717C45.9981 37.728 45.8572 37.902 45.7791 38.0938L44.7812 37.8665C44.8996 37.535 45.0724 37.2675 45.2997 37.0639C45.5294 36.858 45.7933 36.7088 46.0916 36.6165C46.3899 36.5218 46.7036 36.4744 47.0327 36.4744C47.2505 36.4744 47.4813 36.5005 47.7251 36.5526C47.9714 36.6023 48.201 36.6946 48.4141 36.8295C48.6295 36.9645 48.8059 37.1574 48.9432 37.4084C49.0805 37.657 49.1491 37.9801 49.1491 38.3778V42H48.1122V41.2543H48.0696C48.0009 41.3916 47.898 41.5265 47.7607 41.6591C47.6233 41.7917 47.447 41.9018 47.2315 41.9893C47.0161 42.0769 46.758 42.1207 46.4574 42.1207ZM46.6882 41.2685C46.9818 41.2685 47.2327 41.2105 47.4411 41.0945C47.6518 40.9785 47.8116 40.8269 47.9205 40.6399C48.0317 40.4505 48.0874 40.2481 48.0874 40.0327V39.3295C48.0495 39.3674 47.9761 39.4029 47.8672 39.4361C47.7607 39.4669 47.6387 39.4941 47.5014 39.5178C47.3641 39.5391 47.2304 39.5592 47.1001 39.5781C46.9699 39.5947 46.861 39.6089 46.7734 39.6207C46.5675 39.6468 46.3793 39.6906 46.2088 39.7521C46.0407 39.8137 45.9058 39.9025 45.804 40.0185C45.7045 40.1321 45.6548 40.2836 45.6548 40.473C45.6548 40.7358 45.7519 40.9347 45.946 41.0696C46.1402 41.2022 46.3875 41.2685 46.6882 41.2685ZM51.6252 38.7614V42H50.5634V36.5455H51.5826V37.4332H51.65C51.7755 37.1444 51.972 36.9124 52.2395 36.7372C52.5094 36.562 52.8491 36.4744 53.2587 36.4744C53.6304 36.4744 53.9559 36.5526 54.2353 36.7088C54.5146 36.8627 54.7312 37.0923 54.8851 37.3977C55.039 37.7031 55.1159 38.0807 55.1159 38.5305V42H54.0542V38.6584C54.0542 38.263 53.9512 37.9541 53.7452 37.7315C53.5392 37.5066 53.2563 37.3942 52.8965 37.3942C52.6503 37.3942 52.4313 37.4474 52.2395 37.554C52.0501 37.6605 51.8998 37.8168 51.7885 38.0227C51.6796 38.2263 51.6252 38.4725 51.6252 38.7614ZM58.5819 42.1065C58.1415 42.1065 57.7485 41.9941 57.4029 41.7692C57.0596 41.5419 56.7897 41.2187 56.5932 40.7997C56.3991 40.3783 56.302 39.8729 56.302 39.2834C56.302 38.6939 56.4003 38.1896 56.5968 37.7706C56.7956 37.3516 57.0679 37.0308 57.4135 36.8082C57.7592 36.5857 58.151 36.4744 58.589 36.4744C58.9275 36.4744 59.1998 36.5312 59.4057 36.6449C59.6141 36.7562 59.775 36.8864 59.8887 37.0355C60.0047 37.1847 60.0946 37.3161 60.1586 37.4297H60.2225V34.7273H61.2843V42H60.2473V41.1513H60.1586C60.0946 41.2673 60.0023 41.3999 59.8816 41.549C59.7632 41.6982 59.5998 41.8284 59.3915 41.9396C59.1832 42.0509 58.9133 42.1065 58.5819 42.1065ZM58.8162 41.201C59.1216 41.201 59.3797 41.1205 59.5904 40.9595C59.8034 40.7962 59.9644 40.5701 60.0733 40.2812C60.1846 39.9924 60.2402 39.6562 60.2402 39.2727C60.2402 38.8939 60.1858 38.5625 60.0769 38.2784C59.968 37.9943 59.8082 37.773 59.5975 37.6143C59.3868 37.4557 59.1264 37.3764 58.8162 37.3764C58.4966 37.3764 58.2303 37.4593 58.0172 37.625C57.8042 37.7907 57.6432 38.0168 57.5343 38.3033C57.4277 38.5897 57.3745 38.9129 57.3745 39.2727C57.3745 39.6373 57.4289 39.9652 57.5378 40.2564C57.6467 40.5476 57.8077 40.7784 58.0208 40.9489C58.2362 41.117 58.5014 41.201 58.8162 41.201ZM64.3871 42.1207C64.0414 42.1207 63.7289 42.0568 63.4496 41.929C63.1702 41.7988 62.9489 41.6106 62.7855 41.3643C62.6245 41.1181 62.544 40.8163 62.544 40.4588C62.544 40.151 62.6032 39.8977 62.7216 39.6989C62.84 39.5 62.9998 39.3426 63.201 39.2266C63.4022 39.1106 63.6271 39.023 63.8757 38.9638C64.1243 38.9046 64.3776 38.8596 64.6357 38.8288C64.9624 38.791 65.2275 38.7602 65.4311 38.7365C65.6347 38.7105 65.7827 38.669 65.875 38.6122C65.9673 38.5554 66.0135 38.4631 66.0135 38.3352V38.3104C66.0135 38.0002 65.9259 37.7599 65.7507 37.5895C65.5779 37.419 65.3198 37.3338 64.9766 37.3338C64.6191 37.3338 64.3374 37.4131 64.1314 37.5717C63.9278 37.728 63.7869 37.902 63.7088 38.0938L62.7109 37.8665C62.8293 37.535 63.0021 37.2675 63.2294 37.0639C63.459 36.858 63.723 36.7088 64.0213 36.6165C64.3196 36.5218 64.6333 36.4744 64.9624 36.4744C65.1802 36.4744 65.411 36.5005 65.6548 36.5526C65.901 36.6023 66.1307 36.6946 66.3438 36.8295C66.5592 36.9645 66.7356 37.1574 66.8729 37.4084C67.0102 37.657 67.0788 37.9801 67.0788 38.3778V42H66.0419V41.2543H65.9993C65.9306 41.3916 65.8277 41.5265 65.6903 41.6591C65.553 41.7917 65.3767 41.9018 65.1612 41.9893C64.9458 42.0769 64.6877 42.1207 64.3871 42.1207ZM64.6179 41.2685C64.9115 41.2685 65.1624 41.2105 65.3707 41.0945C65.5814 40.9785 65.7412 40.8269 65.8501 40.6399C65.9614 40.4505 66.017 40.2481 66.017 40.0327V39.3295C65.9792 39.3674 65.9058 39.4029 65.7969 39.4361C65.6903 39.4669 65.5684 39.4941 65.4311 39.5178C65.2938 39.5391 65.16 39.5592 65.0298 39.5781C64.8996 39.5947 64.7907 39.6089 64.7031 39.6207C64.4972 39.6468 64.3089 39.6906 64.1385 39.7521C63.9704 39.8137 63.8355 39.9025 63.7337 40.0185C63.6342 40.1321 63.5845 40.2836 63.5845 40.473C63.5845 40.7358 63.6816 40.9347 63.8757 41.0696C64.0698 41.2022 64.3172 41.2685 64.6179 41.2685ZM68.4931 42V36.5455H69.5194V37.4119H69.5762C69.6756 37.1184 69.8508 36.8875 70.1017 36.7195C70.3551 36.549 70.6415 36.4638 70.9611 36.4638C71.0274 36.4638 71.1055 36.4661 71.1955 36.4709C71.2878 36.4756 71.36 36.4815 71.4121 36.4886V37.5043C71.3695 37.4924 71.2937 37.4794 71.1848 37.4652C71.0759 37.4486 70.967 37.4403 70.8581 37.4403C70.6072 37.4403 70.3835 37.4936 70.187 37.6001C69.9928 37.7043 69.839 37.8499 69.7253 38.0369C69.6117 38.2216 69.5549 38.4323 69.5549 38.669V42H68.4931ZM75.1994 36.5455V37.3977H72.22V36.5455H75.1994ZM73.019 35.2386H74.0808V40.3984C74.0808 40.6044 74.1116 40.7595 74.1731 40.8636C74.2347 40.9654 74.314 41.0353 74.411 41.0732C74.5105 41.1087 74.6182 41.1264 74.7342 41.1264C74.8194 41.1264 74.894 41.1205 74.9579 41.1087C75.0218 41.0968 75.0716 41.0874 75.1071 41.0803L75.2988 41.9574C75.2373 41.9811 75.1497 42.0047 75.036 42.0284C74.9224 42.0545 74.7804 42.0687 74.6099 42.071C74.3306 42.0758 74.0701 42.026 73.8287 41.9219C73.5872 41.8177 73.3919 41.6567 73.2427 41.4389C73.0936 41.2211 73.019 40.9477 73.019 40.6186V35.2386Z" fill="#FBF6EC"/>
</g>
<mask id="path-6-inside-1_1492_720" fill="white">
<path d="M24 72H240V136H24V72Z"/>
</mask>
<path d="M24 136.5H25V135.5H24V136.5ZM27 136.5H29V135.5H27V136.5ZM31 136.5H33V135.5H31V136.5ZM35 136.5H37V135.5H35V136.5ZM39 136.5H41V135.5H39V136.5ZM43 136.5H45V135.5H43V136.5ZM47 136.5H49V135.5H47V136.5ZM51 136.5H53V135.5H51V136.5ZM55 136.5H57V135.5H55V136.5ZM59 136.5H61V135.5H59V136.5ZM63 136.5H65V135.5H63V136.5ZM67 136.5H69V135.5H67V136.5ZM71 136.5H73V135.5H71V136.5ZM75 136.5H77V135.5H75V136.5ZM79 136.5H81V135.5H79V136.5ZM83 136.5H85V135.5H83V136.5ZM87 136.5H89V135.5H87V136.5ZM91 136.5H93V135.5H91V136.5ZM95 136.5H97V135.5H95V136.5ZM99 136.5H101V135.5H99V136.5ZM103 136.5H105V135.5H103V136.5ZM107 136.5H109V135.5H107V136.5ZM111 136.5H113V135.5H111V136.5ZM115 136.5H117V135.5H115V136.5ZM119 136.5H121V135.5H119V136.5ZM123 136.5H125V135.5H123V136.5ZM127 136.5H129V135.5H127V136.5ZM131 136.5H133V135.5H131V136.5ZM135 136.5H137V135.5H135V136.5ZM139 136.5H141V135.5H139V136.5ZM143 136.5H145V135.5H143V136.5ZM147 136.5H149V135.5H147V136.5ZM151 136.5H153V135.5H151V136.5ZM155 136.5H157V135.5H155V136.5ZM159 136.5H161V135.5H159V136.5ZM163 136.5H165V135.5H163V136.5ZM167 136.5H169V135.5H167V136.5ZM171 136.5H173V135.5H171V136.5ZM175 136.5H177V135.5H175V136.5ZM179 136.5H181V135.5H179V136.5ZM183 136.5H185V135.5H183V136.5ZM187 136.5H189V135.5H187V136.5ZM191 136.5H193V135.5H191V136.5ZM195 136.5H197V135.5H195V136.5ZM199 136.5H201V135.5H199V136.5ZM203 136.5H205V135.5H203V136.5ZM207 136.5H209V135.5H207V136.5ZM211 136.5H213V135.5H211V136.5ZM215 136.5H217V135.5H215V136.5ZM219 136.5H221V135.5H219V136.5ZM223 136.5H225V135.5H223V136.5ZM227 136.5H229V135.5H227V136.5ZM231 136.5H233V135.5H231V136.5ZM235 136.5H237V135.5H235V136.5ZM239 136.5H240V135.5H239V136.5ZM24 137H25V135H24V137ZM27 137H29V135H27V137ZM31 137H33V135H31V137ZM35 137H37V135H35V137ZM39 137H41V135H39V137ZM43 137H45V135H43V137ZM47 137H49V135H47V137ZM51 137H53V135H51V137ZM55 137H57V135H55V137ZM59 137H61V135H59V137ZM63 137H65V135H63V137ZM67 137H69V135H67V137ZM71 137H73V135H71V137ZM75 137H77V135H75V137ZM79 137H81V135H79V137ZM83 137H85V135H83V137ZM87 137H89V135H87V137ZM91 137H93V135H91V137ZM95 137H97V135H95V137ZM99 137H101V135H99V137ZM103 137H105V135H103V137ZM107 137H109V135H107V137ZM111 137H113V135H111V137ZM115 137H117V135H115V137ZM119 137H121V135H119V137ZM123 137H125V135H123V137ZM127 137H129V135H127V137ZM131 137H133V135H131V137ZM135 137H137V135H135V137ZM139 137H141V135H139V137ZM143 137H145V135H143V137ZM147 137H149V135H147V137ZM151 137H153V135H151V137ZM155 137H157V135H155V137ZM159 137H161V135H159V137ZM163 137H165V135H163V137ZM167 137H169V135H167V137ZM171 137H173V135H171V137ZM175 137H177V135H175V137ZM179 137H181V135H179V137ZM183 137H185V135H183V137ZM187 137H189V135H187V137ZM191 137H193V135H191V137ZM195 137H197V135H195V137ZM199 137H201V135H199V137ZM203 137H205V135H203V137ZM207 137H209V135H207V137ZM211 137H213V135H211V137ZM215 137H217V135H215V137ZM219 137H221V135H219V137ZM223 137H225V135H223V137ZM227 137H229V135H227V137ZM231 137H233V135H231V137ZM235 137H237V135H235V137ZM239 137H240V135H239V137Z" fill="#E2EAFD" fill-opacity="0.1" mask="url(#path-6-inside-1_1492_720)"/>
<path fill-rule="evenodd" clip-rule="evenodd" d="M36 114C41.5228 114 46 109.523 46 104C46 98.4772 41.5228 94 36 94C30.4772 94 26 98.4772 26 104C26 109.523 30.4772 114 36 114ZM40.592 101.46C40.8463 101.134 40.7874 100.662 40.4605 100.408C40.1335 100.154 39.6623 100.213 39.408 100.54L35.401 105.691C35.3119 105.806 35.1443 105.821 35.0364 105.724L32.5017 103.443C32.1938 103.165 31.7196 103.19 31.4425 103.498C31.1654 103.806 31.1904 104.28 31.4983 104.558L34.033 106.839C34.7881 107.518 35.9613 107.414 36.585 106.612L40.592 101.46Z" fill="#FFCC00"/>
<path d="M62.4197 109.139C61.7071 109.139 61.0774 109.017 60.5305 108.771C59.987 108.526 59.5611 108.188 59.2528 107.757C58.9446 107.326 58.7921 106.836 58.7955 106.286C58.7921 105.855 58.88 105.459 59.0589 105.097C59.2412 104.733 59.4882 104.429 59.7997 104.188C60.1113 103.942 60.4593 103.786 60.8438 103.72V103.661C60.3366 103.538 59.9306 103.266 59.6257 102.845C59.3208 102.424 59.17 101.94 59.1733 101.393C59.17 100.873 59.3075 100.409 59.5859 100.001C59.8677 99.5904 60.2538 99.2673 60.7443 99.032C61.2348 98.7966 61.7933 98.679 62.4197 98.679C63.0395 98.679 63.593 98.7983 64.0803 99.0369C64.5708 99.2723 64.9569 99.5954 65.2386 100.006C65.5204 100.414 65.6629 100.876 65.6662 101.393C65.6629 101.94 65.5071 102.424 65.1989 102.845C64.8906 103.266 64.4896 103.538 63.9957 103.661V103.72C64.3769 103.786 64.7199 103.942 65.0249 104.188C65.3331 104.429 65.5784 104.733 65.7607 105.097C65.9463 105.459 66.0407 105.855 66.044 106.286C66.0407 106.836 65.8849 107.326 65.5767 107.757C65.2685 108.188 64.8409 108.526 64.294 108.771C63.7505 109.017 63.1257 109.139 62.4197 109.139ZM62.4197 107.881C62.8407 107.881 63.2053 107.812 63.5135 107.673C63.8217 107.53 64.0604 107.333 64.2294 107.081C64.3984 106.826 64.4846 106.527 64.4879 106.186C64.4846 105.831 64.3918 105.518 64.2095 105.246C64.0305 104.975 63.7869 104.761 63.4787 104.605C63.1705 104.449 62.8175 104.371 62.4197 104.371C62.0187 104.371 61.6624 104.449 61.3509 104.605C61.0393 104.761 60.794 104.975 60.6151 105.246C60.4361 105.518 60.3482 105.831 60.3516 106.186C60.3482 106.527 60.4295 106.826 60.5952 107.081C60.7642 107.333 61.0045 107.53 61.3161 107.673C61.6276 107.812 61.9955 107.881 62.4197 107.881ZM62.4197 103.143C62.7578 103.143 63.0578 103.076 63.3196 102.94C63.5814 102.804 63.7869 102.615 63.9361 102.373C64.0885 102.131 64.1664 101.848 64.1697 101.523C64.1664 101.205 64.0902 100.926 63.9411 100.688C63.7952 100.449 63.5914 100.265 63.3295 100.136C63.0677 100.003 62.7644 99.9368 62.4197 99.9368C62.0684 99.9368 61.7602 100.003 61.495 100.136C61.2332 100.265 61.0294 100.449 60.8835 100.688C60.7377 100.926 60.6664 101.205 60.6697 101.523C60.6664 101.848 60.7393 102.131 60.8885 102.373C61.0376 102.615 61.2431 102.804 61.505 102.94C61.7701 103.076 62.075 103.143 62.4197 103.143ZM71.2299 109.169C70.4443 109.166 69.7732 108.959 69.2164 108.548C68.6595 108.137 68.2336 107.538 67.9387 106.753C67.6437 105.967 67.4962 105.021 67.4962 103.914C67.4962 102.81 67.6437 101.867 67.9387 101.085C68.237 100.303 68.6645 99.7064 69.2213 99.2955C69.7815 98.8845 70.451 98.679 71.2299 98.679C72.0087 98.679 72.6766 98.8861 73.2334 99.3004C73.7902 99.7114 74.2161 100.308 74.5111 101.09C74.8094 101.869 74.9585 102.81 74.9585 103.914C74.9585 105.024 74.8111 105.972 74.5161 106.758C74.2211 107.54 73.7952 108.138 73.2384 108.553C72.6816 108.964 72.012 109.169 71.2299 109.169ZM71.2299 107.842C71.9192 107.842 72.4578 107.505 72.8456 106.832C73.2367 106.16 73.4323 105.187 73.4323 103.914C73.4323 103.069 73.3428 102.355 73.1638 101.771C72.9881 101.185 72.7346 100.741 72.4031 100.439C72.075 100.134 71.6839 99.9815 71.2299 99.9815C70.5438 99.9815 70.0052 100.32 69.6141 100.996C69.223 101.672 69.0258 102.645 69.0225 103.914C69.0225 104.763 69.1103 105.48 69.286 106.067C69.4649 106.65 69.7185 107.093 70.0466 107.394C70.3747 107.692 70.7691 107.842 71.2299 107.842ZM81.8968 107.091V106.554C81.8968 106.17 81.9764 105.818 82.1355 105.5C82.2979 105.179 82.5332 104.922 82.8414 104.729C83.153 104.534 83.5292 104.436 83.97 104.436C84.4208 104.436 84.7986 104.532 85.1035 104.724C85.4084 104.917 85.6388 105.174 85.7946 105.495C85.9537 105.817 86.0332 106.17 86.0332 106.554V107.091C86.0332 107.475 85.9537 107.828 85.7946 108.15C85.6355 108.468 85.4018 108.725 85.0936 108.92C84.7887 109.113 84.4141 109.209 83.97 109.209C83.5226 109.209 83.1447 109.113 82.8365 108.92C82.5282 108.725 82.2946 108.468 82.1355 108.15C81.9764 107.828 81.8968 107.475 81.8968 107.091ZM83.0552 106.554V107.091C83.0552 107.376 83.1232 107.634 83.2591 107.866C83.395 108.098 83.6319 108.214 83.97 108.214C84.3048 108.214 84.5384 108.098 84.671 107.866C84.8036 107.634 84.8699 107.376 84.8699 107.091V106.554C84.8699 106.269 84.8052 106.01 84.676 105.778C84.55 105.546 84.3147 105.43 83.97 105.43C83.6386 105.43 83.4032 105.546 83.264 105.778C83.1248 106.01 83.0552 106.269 83.0552 106.554ZM76.7761 101.264V100.727C76.7761 100.343 76.8557 99.9898 77.0147 99.6683C77.1771 99.3468 77.4125 99.09 77.7207 98.8977C78.0323 98.7055 78.4084 98.6094 78.8493 98.6094C79.3 98.6094 79.6779 98.7055 79.9828 98.8977C80.2877 99.09 80.5181 99.3468 80.6738 99.6683C80.8296 99.9898 80.9075 100.343 80.9075 100.727V101.264C80.9075 101.649 80.828 102.002 80.6689 102.323C80.5131 102.641 80.2811 102.898 79.9728 103.094C79.6679 103.286 79.2934 103.382 78.8493 103.382C78.3985 103.382 78.019 103.286 77.7108 103.094C77.4058 102.898 77.1738 102.641 77.0147 102.323C76.8557 102.002 76.7761 101.649 76.7761 101.264ZM77.9395 100.727V101.264C77.9395 101.549 78.0057 101.808 78.1383 102.04C78.2742 102.272 78.5112 102.388 78.8493 102.388C79.1807 102.388 79.4127 102.272 79.5453 102.04C79.6812 101.808 79.7491 101.549 79.7491 101.264V100.727C79.7491 100.442 79.6845 100.184 79.5552 99.9517C79.426 99.7197 79.1906 99.6037 78.8493 99.6037C78.5178 99.6037 78.2825 99.7197 78.1433 99.9517C78.0074 100.184 77.9395 100.442 77.9395 100.727ZM77.2484 109L84.2484 98.8182H85.4366L78.4366 109H77.2484ZM91.7402 109V98.8182H95.3695C96.1616 98.8182 96.8179 98.9624 97.3383 99.2507C97.8586 99.5391 98.2481 99.9335 98.5066 100.434C98.7651 100.931 98.8944 101.491 98.8944 102.114C98.8944 102.741 98.7634 103.304 98.5016 103.805C98.2431 104.302 97.852 104.696 97.3283 104.988C96.808 105.276 96.1534 105.42 95.3645 105.42H92.8688V104.118H95.2253C95.7258 104.118 96.1318 104.032 96.4434 103.859C96.7549 103.684 96.9836 103.445 97.1295 103.143C97.2753 102.842 97.3482 102.499 97.3482 102.114C97.3482 101.73 97.2753 101.388 97.1295 101.09C96.9836 100.792 96.7533 100.558 96.4384 100.389C96.1268 100.22 95.7159 100.136 95.2054 100.136H93.2765V109H91.7402ZM100.436 109V101.364H101.873V102.577H101.952C102.092 102.166 102.337 101.843 102.688 101.607C103.043 101.369 103.444 101.249 103.891 101.249C103.984 101.249 104.093 101.253 104.219 101.259C104.349 101.266 104.45 101.274 104.523 101.284V102.706C104.463 102.689 104.357 102.671 104.204 102.651C104.052 102.628 103.9 102.616 103.747 102.616C103.396 102.616 103.083 102.691 102.807 102.84C102.536 102.986 102.32 103.19 102.161 103.452C102.002 103.71 101.923 104.005 101.923 104.337V109H100.436ZM108.612 109.154C107.896 109.154 107.272 108.99 106.738 108.662C106.204 108.334 105.79 107.875 105.495 107.285C105.2 106.695 105.053 106.005 105.053 105.217C105.053 104.424 105.2 103.732 105.495 103.138C105.79 102.545 106.204 102.085 106.738 101.756C107.272 101.428 107.896 101.264 108.612 101.264C109.328 101.264 109.953 101.428 110.487 101.756C111.02 102.085 111.434 102.545 111.729 103.138C112.024 103.732 112.172 104.424 112.172 105.217C112.172 106.005 112.024 106.695 111.729 107.285C111.434 107.875 111.02 108.334 110.487 108.662C109.953 108.99 109.328 109.154 108.612 109.154ZM108.617 107.906C109.081 107.906 109.466 107.784 109.771 107.538C110.076 107.293 110.301 106.967 110.447 106.559C110.596 106.151 110.67 105.702 110.67 105.212C110.67 104.724 110.596 104.277 110.447 103.869C110.301 103.458 110.076 103.129 109.771 102.88C109.466 102.631 109.081 102.507 108.617 102.507C108.15 102.507 107.762 102.631 107.454 102.88C107.149 103.129 106.922 103.458 106.773 103.869C106.627 104.277 106.554 104.724 106.554 105.212C106.554 105.702 106.627 106.151 106.773 106.559C106.922 106.967 107.149 107.293 107.454 107.538C107.762 107.784 108.15 107.906 108.617 107.906ZM117.325 101.364V102.557H113.01V101.364H117.325ZM114.193 109V100.479C114.193 100.001 114.298 99.6053 114.507 99.2905C114.715 98.9723 114.992 98.7353 115.337 98.5795C115.681 98.4205 116.056 98.3409 116.46 98.3409C116.759 98.3409 117.014 98.3658 117.226 98.4155C117.438 98.4619 117.596 98.505 117.698 98.5447L117.35 99.7479C117.281 99.728 117.191 99.7048 117.082 99.6783C116.972 99.6484 116.84 99.6335 116.684 99.6335C116.323 99.6335 116.064 99.723 115.908 99.902C115.756 100.081 115.68 100.339 115.68 100.678V109H114.193ZM118.719 109V101.364H120.206V109H118.719ZM119.47 100.185C119.211 100.185 118.989 100.099 118.804 99.9268C118.621 99.7512 118.53 99.5424 118.53 99.3004C118.53 99.0552 118.621 98.8464 118.804 98.674C118.989 98.4983 119.211 98.4105 119.47 98.4105C119.728 98.4105 119.949 98.4983 120.131 98.674C120.317 98.8464 120.409 99.0552 120.409 99.3004C120.409 99.5424 120.317 99.7512 120.131 99.9268C119.949 100.099 119.728 100.185 119.47 100.185ZM125.63 101.364V102.557H121.459V101.364H125.63ZM122.578 99.5341H124.064V106.758C124.064 107.046 124.107 107.263 124.193 107.409C124.279 107.552 124.391 107.649 124.526 107.702C124.666 107.752 124.816 107.777 124.979 107.777C125.098 107.777 125.203 107.769 125.292 107.752C125.382 107.736 125.451 107.722 125.501 107.712L125.769 108.94C125.683 108.973 125.56 109.007 125.401 109.04C125.242 109.076 125.043 109.096 124.805 109.099C124.414 109.106 124.049 109.036 123.711 108.891C123.373 108.745 123.1 108.519 122.891 108.214C122.682 107.91 122.578 107.527 122.578 107.066V99.5341ZM136.372 101.493C136.319 101.022 136.1 100.658 135.716 100.399C135.331 100.137 134.847 100.006 134.264 100.006C133.847 100.006 133.485 100.073 133.18 100.205C132.875 100.335 132.638 100.513 132.469 100.742C132.304 100.968 132.221 101.224 132.221 101.513C132.221 101.755 132.277 101.964 132.39 102.139C132.506 102.315 132.657 102.462 132.842 102.582C133.031 102.698 133.233 102.795 133.449 102.875C133.664 102.951 133.871 103.014 134.07 103.064L135.065 103.322C135.389 103.402 135.722 103.51 136.064 103.646C136.405 103.781 136.722 103.96 137.013 104.183C137.305 104.405 137.54 104.68 137.719 105.008C137.902 105.336 137.993 105.729 137.993 106.186C137.993 106.763 137.844 107.275 137.545 107.722C137.25 108.17 136.821 108.523 136.258 108.781C135.698 109.04 135.02 109.169 134.224 109.169C133.462 109.169 132.803 109.048 132.246 108.806C131.689 108.564 131.253 108.221 130.938 107.777C130.623 107.33 130.449 106.799 130.416 106.186H131.957C131.987 106.554 132.106 106.861 132.315 107.106C132.527 107.348 132.798 107.528 133.126 107.648C133.457 107.764 133.82 107.822 134.214 107.822C134.649 107.822 135.035 107.754 135.373 107.618C135.714 107.479 135.983 107.286 136.178 107.041C136.374 106.793 136.472 106.503 136.472 106.171C136.472 105.87 136.385 105.623 136.213 105.43C136.044 105.238 135.814 105.079 135.522 104.953C135.234 104.827 134.907 104.716 134.543 104.62L133.339 104.292C132.524 104.07 131.878 103.743 131.401 103.312C130.927 102.882 130.69 102.312 130.69 101.602C130.69 101.016 130.849 100.504 131.167 100.066C131.485 99.6286 131.916 99.2888 132.459 99.0469C133.003 98.8016 133.616 98.679 134.299 98.679C134.988 98.679 135.597 98.8 136.124 99.0419C136.654 99.2839 137.071 99.617 137.376 100.041C137.681 100.462 137.84 100.946 137.854 101.493H136.372ZM139.569 111.864V101.364H141.021V102.602H141.145C141.231 102.442 141.356 102.259 141.518 102.05C141.681 101.841 141.906 101.659 142.194 101.503C142.483 101.344 142.864 101.264 143.338 101.264C143.954 101.264 144.504 101.42 144.988 101.732C145.472 102.043 145.852 102.492 146.127 103.079C146.405 103.665 146.544 104.371 146.544 105.197C146.544 106.022 146.407 106.73 146.132 107.32C145.857 107.906 145.479 108.359 144.998 108.677C144.518 108.992 143.969 109.149 143.353 109.149C142.889 109.149 142.509 109.071 142.214 108.915C141.923 108.76 141.694 108.577 141.528 108.369C141.362 108.16 141.235 107.974 141.145 107.812H141.056V111.864H139.569ZM141.026 105.182C141.026 105.719 141.104 106.189 141.26 106.594C141.415 106.998 141.641 107.315 141.936 107.543C142.231 107.769 142.592 107.881 143.02 107.881C143.464 107.881 143.835 107.764 144.133 107.528C144.432 107.29 144.657 106.967 144.809 106.559C144.965 106.151 145.043 105.692 145.043 105.182C145.043 104.678 144.967 104.226 144.814 103.825C144.665 103.424 144.44 103.107 144.138 102.875C143.84 102.643 143.467 102.527 143.02 102.527C142.589 102.527 142.224 102.638 141.926 102.86C141.631 103.082 141.407 103.392 141.255 103.79C141.102 104.187 141.026 104.652 141.026 105.182ZM149.556 98.8182V109H148.07V98.8182H149.556ZM151.416 109V101.364H152.903V109H151.416ZM152.167 100.185C151.908 100.185 151.686 100.099 151.501 99.9268C151.318 99.7512 151.227 99.5424 151.227 99.3004C151.227 99.0552 151.318 98.8464 151.501 98.674C151.686 98.4983 151.908 98.4105 152.167 98.4105C152.425 98.4105 152.646 98.4983 152.828 98.674C153.014 98.8464 153.107 99.0552 153.107 99.3004C153.107 99.5424 153.014 99.7512 152.828 99.9268C152.646 100.099 152.425 100.185 152.167 100.185ZM158.327 101.364V102.557H154.156V101.364H158.327ZM155.275 99.5341H156.761V106.758C156.761 107.046 156.804 107.263 156.89 107.409C156.977 107.552 157.088 107.649 157.224 107.702C157.363 107.752 157.514 107.777 157.676 107.777C157.795 107.777 157.9 107.769 157.989 107.752C158.079 107.736 158.148 107.722 158.198 107.712L158.466 108.94C158.38 108.973 158.258 109.007 158.099 109.04C157.939 109.076 157.741 109.096 157.502 109.099C157.111 109.106 156.746 109.036 156.408 108.891C156.07 108.745 155.797 108.519 155.588 108.214C155.379 107.91 155.275 107.527 155.275 107.066V99.5341Z" fill="white"/>
<mask id="path-10-inside-2_1492_720" fill="white">
<path d="M24 140H240V204H24V140Z"/>
</mask>
<path d="M24 204.5H25V203.5H24V204.5ZM27 204.5H29V203.5H27V204.5ZM31 204.5H33V203.5H31V204.5ZM35 204.5H37V203.5H35V204.5ZM39 204.5H41V203.5H39V204.5ZM43 204.5H45V203.5H43V204.5ZM47 204.5H49V203.5H47V204.5ZM51 204.5H53V203.5H51V204.5ZM55 204.5H57V203.5H55V204.5ZM59 204.5H61V203.5H59V204.5ZM63 204.5H65V203.5H63V204.5ZM67 204.5H69V203.5H67V204.5ZM71 204.5H73V203.5H71V204.5ZM75 204.5H77V203.5H75V204.5ZM79 204.5H81V203.5H79V204.5ZM83 204.5H85V203.5H83V204.5ZM87 204.5H89V203.5H87V204.5ZM91 204.5H93V203.5H91V204.5ZM95 204.5H97V203.5H95V204.5ZM99 204.5H101V203.5H99V204.5ZM103 204.5H105V203.5H103V204.5ZM107 204.5H109V203.5H107V204.5ZM111 204.5H113V203.5H111V204.5ZM115 204.5H117V203.5H115V204.5ZM119 204.5H121V203.5H119V204.5ZM123 204.5H125V203.5H123V204.5ZM127 204.5H129V203.5H127V204.5ZM131 204.5H133V203.5H131V204.5ZM135 204.5H137V203.5H135V204.5ZM139 204.5H141V203.5H139V204.5ZM143 204.5H145V203.5H143V204.5ZM147 204.5H149V203.5H147V204.5ZM151 204.5H153V203.5H151V204.5ZM155 204.5H157V203.5H155V204.5ZM159 204.5H161V203.5H159V204.5ZM163 204.5H165V203.5H163V204.5ZM167 204.5H169V203.5H167V204.5ZM171 204.5H173V203.5H171V204.5ZM175 204.5H177V203.5H175V204.5ZM179 204.5H181V203.5H179V204.5ZM183 204.5H185V203.5H183V204.5ZM187 204.5H189V203.5H187V204.5ZM191 204.5H193V203.5H191V204.5ZM195 204.5H197V203.5H195V204.5ZM199 204.5H201V203.5H199V204.5ZM203 204.5H205V203.5H203V204.5ZM207 204.5H209V203.5H207V204.5ZM211 204.5H213V203.5H211V204.5ZM215 204.5H217V203.5H215V204.5ZM219 204.5H221V203.5H219V204.5ZM223 204.5H225V203.5H223V204.5ZM227 204.5H229V203.5H227V204.5ZM231 204.5H233V203.5H231V204.5ZM235 204.5H237V203.5H235V204.5ZM239 204.5H240V203.5H239V204.5ZM24 205H25V203H24V205ZM27 205H29V203H27V205ZM31 205H33V203H31V205ZM35 205H37V203H35V205ZM39 205H41V203H39V205ZM43 205H45V203H43V205ZM47 205H49V203H47V205ZM51 205H53V203H51V205ZM55 205H57V203H55V205ZM59 205H61V203H59V205ZM63 205H65V203H63V205ZM67 205H69V203H67V205ZM71 205H73V203H71V205ZM75 205H77V203H75V205ZM79 205H81V203H79V205ZM83 205H85V203H83V205ZM87 205H89V203H87V205ZM91 205H93V203H91V205ZM95 205H97V203H95V205ZM99 205H101V203H99V205ZM103 205H105V203H103V205ZM107 205H109V203H107V205ZM111 205H113V203H111V205ZM115 205H117V203H115V205ZM119 205H121V203H119V205ZM123 205H125V203H123V205ZM127 205H129V203H127V205ZM131 205H133V203H131V205ZM135 205H137V203H135V205ZM139 205H141V203H139V205ZM143 205H145V203H143V205ZM147 205H149V203H147V205ZM151 205H153V203H151V205ZM155 205H157V203H155V205ZM159 205H161V203H159V205ZM163 205H165V203H163V205ZM167 205H169V203H167V205ZM171 205H173V203H171V205ZM175 205H177V203H175V205ZM179 205H181V203H179V205ZM183 205H185V203H183V205ZM187 205H189V203H187V205ZM191 205H193V203H191V205ZM195 205H197V203H195V205ZM199 205H201V203H199V205ZM203 205H205V203H203V205ZM207 205H209V203H207V205ZM211 205H213V203H211V205ZM215 205H217V203H215V205ZM219 205H221V203H219V205ZM223 205H225V203H223V205ZM227 205H229V203H227V205ZM231 205H233V203H231V205ZM235 205H237V203H235V205ZM239 205H240V203H239V205Z" fill="#E2EAFD" fill-opacity="0.1" mask="url(#path-10-inside-2_1492_720)"/>
<path fill-rule="evenodd" clip-rule="evenodd" d="M36 182C41.5228 182 46 177.523 46 172C46 166.477 41.5228 162 36 162C30.4772 162 26 166.477 26 172C26 177.523 30.4772 182 36 182ZM40.592 169.46C40.8463 169.134 40.7874 168.662 40.4605 168.408C40.1335 168.154 39.6623 168.213 39.408 168.54L35.401 173.691C35.3119 173.806 35.1443 173.821 35.0364 173.724L32.5017 171.443C32.1938 171.165 31.7196 171.19 31.4425 171.498C31.1654 171.806 31.1904 172.28 31.4983 172.558L34.033 174.839C34.7881 175.518 35.9613 175.414 36.585 174.612L40.592 169.46Z" fill="#FFCC00"/>
<path d="M59.1186 177V166.818H62.8473C63.5698 166.818 64.1681 166.937 64.642 167.176C65.116 167.411 65.4706 167.731 65.706 168.136C65.9413 168.537 66.0589 168.989 66.0589 169.493C66.0589 169.917 65.9811 170.275 65.8253 170.567C65.6695 170.855 65.4607 171.087 65.1989 171.263C64.9403 171.435 64.6553 171.561 64.3438 171.641V171.74C64.6818 171.757 65.0116 171.866 65.3331 172.068C65.6579 172.267 65.9264 172.55 66.1385 172.918C66.3506 173.286 66.4567 173.734 66.4567 174.261C66.4567 174.781 66.334 175.248 66.0888 175.663C65.8468 176.074 65.4723 176.4 64.9652 176.642C64.4581 176.881 63.8101 177 63.0213 177H59.1186ZM60.6548 175.683H62.8722C63.608 175.683 64.1349 175.54 64.4531 175.255C64.7713 174.97 64.9304 174.614 64.9304 174.186C64.9304 173.865 64.8492 173.57 64.6868 173.301C64.5244 173.033 64.2924 172.819 63.9908 172.66C63.6925 172.501 63.3378 172.421 62.9268 172.421H60.6548V175.683ZM60.6548 171.223H62.7131C63.0578 171.223 63.3677 171.157 63.6428 171.024C63.9212 170.892 64.1416 170.706 64.304 170.467C64.4697 170.225 64.5526 169.94 64.5526 169.612C64.5526 169.191 64.4051 168.838 64.1101 168.553C63.8151 168.268 63.3627 168.126 62.7528 168.126H60.6548V171.223ZM68.0194 177V169.364H69.506V177H68.0194ZM68.7702 168.185C68.5116 168.185 68.2896 168.099 68.104 167.927C67.9217 167.751 67.8305 167.542 67.8305 167.3C67.8305 167.055 67.9217 166.846 68.104 166.674C68.2896 166.498 68.5116 166.411 68.7702 166.411C69.0287 166.411 69.2491 166.498 69.4314 166.674C69.617 166.846 69.7098 167.055 69.7098 167.3C69.7098 167.542 69.617 167.751 69.4314 167.927C69.2491 168.099 69.0287 168.185 68.7702 168.185ZM75.8651 172.053V173.341H71.3509V172.053H75.8651ZM79.245 177L76.4211 166.818H78.0369L80.0205 174.703H80.115L82.1782 166.818H83.779L85.8423 174.708H85.9367L87.9154 166.818H89.5361L86.7073 177H85.1611L83.0184 169.374H82.9388L80.7961 177H79.245ZM93.2168 177.154C92.4644 177.154 91.8165 176.993 91.2729 176.672C90.7327 176.347 90.3151 175.891 90.0201 175.305C89.7284 174.715 89.5826 174.024 89.5826 173.232C89.5826 172.449 89.7284 171.76 90.0201 171.163C90.3151 170.567 90.726 170.101 91.253 169.766C91.7833 169.432 92.4031 169.264 93.1124 169.264C93.5433 169.264 93.9609 169.335 94.3652 169.478C94.7696 169.621 95.1325 169.844 95.454 170.149C95.7755 170.454 96.0291 170.85 96.2147 171.337C96.4003 171.821 96.4931 172.41 96.4931 173.102V173.629H90.4228V172.516H95.0364C95.0364 172.125 94.9569 171.778 94.7978 171.477C94.6387 171.172 94.415 170.931 94.1266 170.756C93.8416 170.58 93.5068 170.492 93.1224 170.492C92.7047 170.492 92.3402 170.595 92.0286 170.8C91.7204 171.003 91.4817 171.268 91.3127 171.596C91.147 171.921 91.0641 172.274 91.0641 172.655V173.525C91.0641 174.035 91.1536 174.469 91.3326 174.827C91.5149 175.185 91.7684 175.459 92.0932 175.648C92.418 175.833 92.7975 175.926 93.2317 175.926C93.5135 175.926 93.7703 175.886 94.0023 175.807C94.2343 175.724 94.4349 175.601 94.6039 175.439C94.7729 175.277 94.9022 175.076 94.9917 174.837L96.3986 175.091C96.2859 175.505 96.0838 175.868 95.7921 176.18C95.5037 176.488 95.1408 176.728 94.7033 176.901C94.2691 177.07 93.7736 177.154 93.2168 177.154ZM101.294 177.154C100.541 177.154 99.8933 176.993 99.3497 176.672C98.8095 176.347 98.3919 175.891 98.0969 175.305C97.8052 174.715 97.6594 174.024 97.6594 173.232C97.6594 172.449 97.8052 171.76 98.0969 171.163C98.3919 170.567 98.8028 170.101 99.3298 169.766C99.8601 169.432 100.48 169.264 101.189 169.264C101.62 169.264 102.038 169.335 102.442 169.478C102.846 169.621 103.209 169.844 103.531 170.149C103.852 170.454 104.106 170.85 104.291 171.337C104.477 171.821 104.57 172.41 104.57 173.102V173.629H98.4996V172.516H103.113C103.113 172.125 103.034 171.778 102.875 171.477C102.715 171.172 102.492 170.931 102.203 170.756C101.918 170.58 101.584 170.492 101.199 170.492C100.782 170.492 100.417 170.595 100.105 170.8C99.7972 171.003 99.5585 171.268 99.3895 171.596C99.2238 171.921 99.1409 172.274 99.1409 172.655V173.525C99.1409 174.035 99.2304 174.469 99.4094 174.827C99.5917 175.185 99.8452 175.459 100.17 175.648C100.495 175.833 100.874 175.926 101.309 175.926C101.59 175.926 101.847 175.886 102.079 175.807C102.311 175.724 102.512 175.601 102.681 175.439C102.85 175.277 102.979 175.076 103.068 174.837L104.475 175.091C104.363 175.505 104.161 175.868 103.869 176.18C103.581 176.488 103.218 176.728 102.78 176.901C102.346 177.07 101.85 177.154 101.294 177.154ZM107.446 174.41L107.436 172.595H107.695L110.738 169.364H112.517L109.047 173.043H108.814L107.446 174.41ZM106.079 177V166.818H107.566V177H106.079ZM110.902 177L108.167 173.371L109.191 172.332L112.726 177H110.902ZM115.219 166.818V177H113.732V166.818H115.219ZM118.018 179.864C117.796 179.864 117.594 179.845 117.412 179.809C117.229 179.776 117.093 179.739 117.004 179.7L117.362 178.482C117.634 178.554 117.876 178.586 118.088 178.576C118.3 178.566 118.487 178.487 118.65 178.337C118.815 178.188 118.961 177.945 119.087 177.607L119.271 177.099L116.477 169.364H118.068L120.002 175.29H120.081L122.015 169.364H123.611L120.464 178.019C120.318 178.417 120.133 178.753 119.907 179.028C119.682 179.307 119.414 179.516 119.102 179.655C118.79 179.794 118.429 179.864 118.018 179.864ZM128.553 177V166.818H132.182C132.974 166.818 133.63 166.962 134.151 167.251C134.671 167.539 135.06 167.933 135.319 168.434C135.577 168.931 135.707 169.491 135.707 170.114C135.707 170.741 135.576 171.304 135.314 171.805C135.055 172.302 134.664 172.696 134.141 172.988C133.62 173.276 132.966 173.42 132.177 173.42H129.681V172.118H132.038C132.538 172.118 132.944 172.032 133.256 171.859C133.567 171.684 133.796 171.445 133.942 171.143C134.088 170.842 134.161 170.499 134.161 170.114C134.161 169.73 134.088 169.388 133.942 169.09C133.796 168.792 133.566 168.558 133.251 168.389C132.939 168.22 132.528 168.136 132.018 168.136H130.089V177H128.553ZM139.402 177.169C138.918 177.169 138.481 177.08 138.09 176.901C137.699 176.718 137.389 176.455 137.16 176.11C136.935 175.765 136.822 175.343 136.822 174.842C136.822 174.411 136.905 174.057 137.071 173.778C137.236 173.5 137.46 173.28 137.742 173.117C138.024 172.955 138.338 172.832 138.686 172.749C139.034 172.666 139.389 172.603 139.75 172.56C140.208 172.507 140.579 172.464 140.864 172.431C141.149 172.395 141.356 172.337 141.485 172.257C141.615 172.178 141.679 172.048 141.679 171.869V171.835C141.679 171.4 141.557 171.064 141.311 170.825C141.069 170.587 140.708 170.467 140.228 170.467C139.727 170.467 139.333 170.578 139.044 170.8C138.759 171.019 138.562 171.263 138.453 171.531L137.056 171.213C137.221 170.749 137.463 170.375 137.782 170.089C138.103 169.801 138.473 169.592 138.89 169.463C139.308 169.33 139.747 169.264 140.208 169.264C140.513 169.264 140.836 169.301 141.177 169.374C141.522 169.443 141.843 169.572 142.142 169.761C142.443 169.95 142.69 170.22 142.882 170.572C143.075 170.92 143.171 171.372 143.171 171.929V177H141.719V175.956H141.659C141.563 176.148 141.419 176.337 141.227 176.523C141.035 176.708 140.788 176.862 140.486 176.985C140.184 177.108 139.823 177.169 139.402 177.169ZM139.725 175.976C140.136 175.976 140.488 175.895 140.779 175.732C141.074 175.57 141.298 175.358 141.451 175.096C141.606 174.831 141.684 174.547 141.684 174.246V173.261C141.631 173.314 141.528 173.364 141.376 173.411C141.227 173.454 141.056 173.492 140.864 173.525C140.672 173.555 140.484 173.583 140.302 173.609C140.12 173.633 139.967 173.652 139.845 173.669C139.556 173.705 139.293 173.767 139.054 173.853C138.819 173.939 138.63 174.063 138.488 174.226C138.348 174.385 138.279 174.597 138.279 174.862C138.279 175.23 138.415 175.509 138.686 175.697C138.958 175.883 139.305 175.976 139.725 175.976ZM145.677 179.864C145.455 179.864 145.253 179.845 145.07 179.809C144.888 179.776 144.752 179.739 144.663 179.7L145.021 178.482C145.292 178.554 145.534 178.586 145.746 178.576C145.959 178.566 146.146 178.487 146.308 178.337C146.474 178.188 146.62 177.945 146.746 177.607L146.93 177.099L144.136 169.364H145.727L147.661 175.29H147.74L149.674 169.364H151.27L148.123 178.019C147.977 178.417 147.791 178.753 147.566 179.028C147.341 179.307 147.072 179.516 146.761 179.655C146.449 179.794 146.088 179.864 145.677 179.864ZM155.484 177.154C154.768 177.154 154.143 176.99 153.61 176.662C153.076 176.334 152.662 175.875 152.367 175.285C152.072 174.695 151.924 174.005 151.924 173.217C151.924 172.424 152.072 171.732 152.367 171.138C152.662 170.545 153.076 170.085 153.61 169.756C154.143 169.428 154.768 169.264 155.484 169.264C156.2 169.264 156.824 169.428 157.358 169.756C157.892 170.085 158.306 170.545 158.601 171.138C158.896 171.732 159.043 172.424 159.043 173.217C159.043 174.005 158.896 174.695 158.601 175.285C158.306 175.875 157.892 176.334 157.358 176.662C156.824 176.99 156.2 177.154 155.484 177.154ZM155.489 175.906C155.953 175.906 156.337 175.784 156.642 175.538C156.947 175.293 157.172 174.967 157.318 174.559C157.467 174.151 157.542 173.702 157.542 173.212C157.542 172.724 157.467 172.277 157.318 171.869C157.172 171.458 156.947 171.129 156.642 170.88C156.337 170.631 155.953 170.507 155.489 170.507C155.021 170.507 154.634 170.631 154.325 170.88C154.02 171.129 153.793 171.458 153.644 171.869C153.498 172.277 153.426 172.724 153.426 173.212C153.426 173.702 153.498 174.151 153.644 174.559C153.793 174.967 154.02 175.293 154.325 175.538C154.634 175.784 155.021 175.906 155.489 175.906ZM165.4 173.833V169.364H166.892V177H165.43V175.678H165.35C165.175 176.085 164.893 176.425 164.505 176.697C164.121 176.965 163.642 177.099 163.068 177.099C162.578 177.099 162.144 176.992 161.766 176.776C161.391 176.558 161.096 176.234 160.881 175.807C160.669 175.379 160.563 174.851 160.563 174.221V169.364H162.049V174.042C162.049 174.562 162.193 174.977 162.482 175.285C162.77 175.593 163.145 175.747 163.605 175.747C163.884 175.747 164.161 175.678 164.436 175.538C164.714 175.399 164.944 175.189 165.127 174.907C165.312 174.625 165.403 174.267 165.4 173.833ZM172.314 169.364V170.557H168.142V169.364H172.314ZM169.261 167.534H170.747V174.758C170.747 175.046 170.791 175.263 170.877 175.409C170.963 175.552 171.074 175.649 171.21 175.702C171.349 175.752 171.5 175.777 171.662 175.777C171.782 175.777 171.886 175.769 171.975 175.752C172.065 175.736 172.135 175.722 172.184 175.712L172.453 176.94C172.367 176.973 172.244 177.007 172.085 177.04C171.926 177.076 171.727 177.096 171.488 177.099C171.097 177.106 170.733 177.036 170.394 176.891C170.056 176.745 169.783 176.519 169.574 176.214C169.365 175.91 169.261 175.527 169.261 175.066V167.534ZM179.417 171.228L178.07 171.467C178.013 171.294 177.924 171.13 177.801 170.974C177.682 170.819 177.52 170.691 177.314 170.592C177.109 170.492 176.852 170.442 176.544 170.442C176.123 170.442 175.771 170.537 175.49 170.726C175.208 170.911 175.067 171.152 175.067 171.447C175.067 171.702 175.161 171.907 175.35 172.063C175.539 172.219 175.844 172.347 176.265 172.446L177.478 172.724C178.181 172.887 178.705 173.137 179.049 173.475C179.394 173.813 179.566 174.252 179.566 174.793C179.566 175.25 179.434 175.658 179.169 176.016C178.907 176.37 178.54 176.649 178.07 176.851C177.603 177.053 177.061 177.154 176.444 177.154C175.589 177.154 174.891 176.972 174.351 176.607C173.811 176.239 173.479 175.717 173.357 175.041L174.794 174.822C174.883 175.197 175.067 175.48 175.345 175.673C175.624 175.862 175.987 175.956 176.434 175.956C176.921 175.956 177.311 175.855 177.603 175.653C177.894 175.447 178.04 175.197 178.04 174.902C178.04 174.663 177.951 174.463 177.772 174.3C177.596 174.138 177.326 174.015 176.961 173.933L175.669 173.649C174.956 173.487 174.429 173.228 174.088 172.874C173.75 172.519 173.58 172.07 173.58 171.526C173.58 171.076 173.706 170.681 173.958 170.343C174.21 170.005 174.558 169.741 175.002 169.553C175.446 169.36 175.955 169.264 176.529 169.264C177.354 169.264 178.004 169.443 178.478 169.801C178.951 170.156 179.265 170.631 179.417 171.228Z" fill="white"/>
<rect x="274" width="264" height="228" rx="20" fill="black" fill-opacity="0.1"/>
<rect x="274" width="264" height="228" rx="20" fill="url(#paint2_radial_1492_720)"/>
<rect x="274.5" y="0.5" width="263" height="227" rx="19.5" stroke="white" stroke-opacity="0.1"/>
<g filter="url(#filter3_di_1492_720)">
<rect x="298" y="24" width="67" height="28" rx="14" fill="black" fill-opacity="0.4" shape-rendering="crispEdges"/>
<rect x="298.5" y="24.5" width="66" height="27" rx="13.5" stroke="url(#paint3_linear_1492_720)" shape-rendering="crispEdges"/>
<path d="M313.476 34.7273H314.577V39.5107C314.577 40.0196 314.457 40.4706 314.218 40.8636C313.979 41.2543 313.643 41.562 313.21 41.7869C312.776 42.0095 312.268 42.1207 311.686 42.1207C311.106 42.1207 310.599 42.0095 310.166 41.7869C309.733 41.562 309.397 41.2543 309.158 40.8636C308.919 40.4706 308.799 40.0196 308.799 39.5107V34.7273H309.896V39.4219C309.896 39.7509 309.969 40.0433 310.113 40.299C310.26 40.5547 310.467 40.7559 310.734 40.9027C311.002 41.0471 311.319 41.1193 311.686 41.1193C312.055 41.1193 312.374 41.0471 312.641 40.9027C312.911 40.7559 313.117 40.5547 313.259 40.299C313.404 40.0433 313.476 39.7509 313.476 39.4219V34.7273ZM316.087 44.0455V36.5455H317.124V37.4297H317.213C317.274 37.3161 317.363 37.1847 317.479 37.0355C317.595 36.8864 317.756 36.7562 317.962 36.6449C318.168 36.5312 318.44 36.4744 318.779 36.4744C319.219 36.4744 319.612 36.5857 319.958 36.8082C320.303 37.0308 320.574 37.3516 320.771 37.7706C320.97 38.1896 321.069 38.6939 321.069 39.2834C321.069 39.8729 320.971 40.3783 320.774 40.7997C320.578 41.2187 320.308 41.5419 319.965 41.7692C319.621 41.9941 319.23 42.1065 318.789 42.1065C318.458 42.1065 318.187 42.0509 317.976 41.9396C317.768 41.8284 317.604 41.6982 317.486 41.549C317.368 41.3999 317.276 41.2673 317.213 41.1513H317.149V44.0455H316.087ZM317.127 39.2727C317.127 39.6562 317.183 39.9924 317.294 40.2812C317.405 40.5701 317.566 40.7962 317.777 40.9595C317.988 41.1205 318.246 41.201 318.551 41.201C318.869 41.201 319.134 41.117 319.347 40.9489C319.56 40.7784 319.721 40.5476 319.83 40.2564C319.941 39.9652 319.997 39.6373 319.997 39.2727C319.997 38.9129 319.942 38.5897 319.833 38.3033C319.727 38.0168 319.566 37.7907 319.35 37.625C319.137 37.4593 318.871 37.3764 318.551 37.3764C318.244 37.3764 317.983 37.4557 317.77 37.6143C317.559 37.773 317.4 37.9943 317.291 38.2784C317.182 38.5625 317.127 38.8939 317.127 39.2727ZM324.546 44.1591C324.112 44.1591 323.74 44.1023 323.427 43.9886C323.117 43.875 322.864 43.7247 322.667 43.5376C322.471 43.3506 322.324 43.1458 322.227 42.9233L323.139 42.5469C323.203 42.651 323.289 42.7611 323.395 42.8771C323.504 42.9955 323.651 43.0961 323.835 43.179C324.022 43.2618 324.263 43.3033 324.556 43.3033C324.959 43.3033 325.291 43.205 325.554 43.0085C325.817 42.8144 325.948 42.5043 325.948 42.0781V41.0057H325.881C325.817 41.1217 325.725 41.2507 325.604 41.3928C325.485 41.5348 325.322 41.6579 325.114 41.7621C324.905 41.8662 324.634 41.9183 324.301 41.9183C323.87 41.9183 323.481 41.8177 323.136 41.6165C322.793 41.4129 322.52 41.1134 322.319 40.718C322.12 40.3203 322.021 39.8314 322.021 39.2514C322.021 38.6714 322.119 38.1742 322.316 37.7599C322.514 37.3456 322.787 37.0284 323.132 36.8082C323.478 36.5857 323.87 36.4744 324.308 36.4744C324.646 36.4744 324.92 36.5312 325.128 36.6449C325.336 36.7562 325.499 36.8864 325.615 37.0355C325.733 37.1847 325.824 37.3161 325.888 37.4297H325.966V36.5455H327.007V42.1207C327.007 42.5895 326.898 42.9742 326.68 43.2749C326.462 43.5755 326.167 43.7981 325.796 43.9425C325.426 44.0869 325.01 44.1591 324.546 44.1591ZM324.535 41.0376C324.84 41.0376 325.098 40.9666 325.309 40.8246C325.522 40.6802 325.683 40.4742 325.792 40.2067C325.903 39.9368 325.959 39.6136 325.959 39.2372C325.959 38.8703 325.905 38.5471 325.796 38.2678C325.687 37.9884 325.527 37.7706 325.316 37.6143C325.106 37.4557 324.845 37.3764 324.535 37.3764C324.215 37.3764 323.949 37.4593 323.736 37.625C323.523 37.7884 323.362 38.0109 323.253 38.2926C323.146 38.5743 323.093 38.8892 323.093 39.2372C323.093 39.5947 323.148 39.9084 323.257 40.1783C323.365 40.4482 323.526 40.6589 323.74 40.8104C323.955 40.9619 324.22 41.0376 324.535 41.0376ZM328.431 42V36.5455H329.457V37.4119H329.514C329.613 37.1184 329.788 36.8875 330.039 36.7195C330.293 36.549 330.579 36.4638 330.899 36.4638C330.965 36.4638 331.043 36.4661 331.133 36.4709C331.225 36.4756 331.298 36.4815 331.35 36.4886V37.5043C331.307 37.4924 331.231 37.4794 331.122 37.4652C331.013 37.4486 330.905 37.4403 330.796 37.4403C330.545 37.4403 330.321 37.4936 330.124 37.6001C329.93 37.7043 329.776 37.8499 329.663 38.0369C329.549 38.2216 329.492 38.4323 329.492 38.669V42H328.431ZM333.807 42.1207C333.461 42.1207 333.149 42.0568 332.869 41.929C332.59 41.7988 332.369 41.6106 332.205 41.3643C332.044 41.1181 331.964 40.8163 331.964 40.4588C331.964 40.151 332.023 39.8977 332.142 39.6989C332.26 39.5 332.42 39.3426 332.621 39.2266C332.822 39.1106 333.047 39.023 333.296 38.9638C333.544 38.9046 333.798 38.8596 334.056 38.8288C334.382 38.791 334.647 38.7602 334.851 38.7365C335.055 38.7105 335.203 38.669 335.295 38.6122C335.387 38.5554 335.433 38.4631 335.433 38.3352V38.3104C335.433 38.0002 335.346 37.7599 335.171 37.5895C334.998 37.419 334.74 37.3338 334.396 37.3338C334.039 37.3338 333.757 37.4131 333.551 37.5717C333.348 37.728 333.207 37.902 333.129 38.0938L332.131 37.8665C332.249 37.535 332.422 37.2675 332.649 37.0639C332.879 36.858 333.143 36.7088 333.441 36.6165C333.74 36.5218 334.053 36.4744 334.382 36.4744C334.6 36.4744 334.831 36.5005 335.075 36.5526C335.321 36.6023 335.551 36.6946 335.764 36.8295C335.979 36.9645 336.155 37.1574 336.293 37.4084C336.43 37.657 336.499 37.9801 336.499 38.3778V42H335.462V41.2543H335.419C335.351 41.3916 335.248 41.5265 335.11 41.6591C334.973 41.7917 334.797 41.9018 334.581 41.9893C334.366 42.0769 334.108 42.1207 333.807 42.1207ZM334.038 41.2685C334.331 41.2685 334.582 41.2105 334.791 41.0945C335.001 40.9785 335.161 40.8269 335.27 40.6399C335.381 40.4505 335.437 40.2481 335.437 40.0327V39.3295C335.399 39.3674 335.326 39.4029 335.217 39.4361C335.11 39.4669 334.988 39.4941 334.851 39.5178C334.714 39.5391 334.58 39.5592 334.45 39.5781C334.32 39.5947 334.211 39.6089 334.123 39.6207C333.917 39.6468 333.729 39.6906 333.558 39.7521C333.39 39.8137 333.255 39.9025 333.154 40.0185C333.054 40.1321 333.004 40.2836 333.004 40.473C333.004 40.7358 333.102 40.9347 333.296 41.0696C333.49 41.2022 333.737 41.2685 334.038 41.2685ZM339.955 42.1065C339.515 42.1065 339.122 41.9941 338.776 41.7692C338.433 41.5419 338.163 41.2187 337.966 40.7997C337.772 40.3783 337.675 39.8729 337.675 39.2834C337.675 38.6939 337.773 38.1896 337.97 37.7706C338.169 37.3516 338.441 37.0308 338.787 36.8082C339.132 36.5857 339.524 36.4744 339.962 36.4744C340.301 36.4744 340.573 36.5312 340.779 36.6449C340.987 36.7562 341.148 36.8864 341.262 37.0355C341.378 37.1847 341.468 37.3161 341.532 37.4297H341.596V34.7273H342.657V42H341.62V41.1513H341.532C341.468 41.2673 341.375 41.3999 341.255 41.549C341.136 41.6982 340.973 41.8284 340.765 41.9396C340.556 42.0509 340.286 42.1065 339.955 42.1065ZM340.189 41.201C340.495 41.201 340.753 41.1205 340.963 40.9595C341.176 40.7962 341.337 40.5701 341.446 40.2812C341.558 39.9924 341.613 39.6562 341.613 39.2727C341.613 38.8939 341.559 38.5625 341.45 38.2784C341.341 37.9943 341.181 37.773 340.971 37.6143C340.76 37.4557 340.499 37.3764 340.189 37.3764C339.87 37.3764 339.603 37.4593 339.39 37.625C339.177 37.7907 339.016 38.0168 338.907 38.3033C338.801 38.5897 338.748 38.9129 338.748 39.2727C338.748 39.6373 338.802 39.9652 338.911 40.2564C339.02 40.5476 339.181 40.7784 339.394 40.9489C339.609 41.117 339.874 41.201 340.189 41.201ZM346.524 42.1101C345.986 42.1101 345.523 41.9953 345.135 41.7656C344.749 41.5336 344.451 41.2081 344.24 40.7891C344.032 40.3677 343.928 39.8741 343.928 39.3082C343.928 38.7495 344.032 38.2571 344.24 37.831C344.451 37.4048 344.744 37.0722 345.121 36.8331C345.5 36.594 345.942 36.4744 346.449 36.4744C346.757 36.4744 347.055 36.5253 347.344 36.6271C347.633 36.7289 347.892 36.8887 348.122 37.1065C348.351 37.3243 348.532 37.6072 348.665 37.9553C348.798 38.3009 348.864 38.7211 348.864 39.2159V39.5923H344.528V38.7969H347.823C347.823 38.5175 347.767 38.2701 347.653 38.0547C347.539 37.8369 347.379 37.6652 347.173 37.5398C346.97 37.4143 346.731 37.3516 346.456 37.3516C346.158 37.3516 345.897 37.425 345.675 37.5717C345.455 37.7161 345.284 37.9055 345.164 38.1399C345.045 38.3719 344.986 38.6241 344.986 38.8963V39.5178C344.986 39.8823 345.05 40.1925 345.178 40.4482C345.308 40.7038 345.489 40.8991 345.721 41.0341C345.953 41.1667 346.224 41.233 346.534 41.233C346.735 41.233 346.919 41.2045 347.085 41.1477C347.25 41.0885 347.394 41.0009 347.514 40.8849C347.635 40.7689 347.727 40.6257 347.791 40.4553L348.796 40.6364C348.716 40.9323 348.571 41.1915 348.363 41.4141C348.157 41.6342 347.898 41.8059 347.585 41.929C347.275 42.0497 346.921 42.1101 346.524 42.1101ZM354.129 37.8771L353.167 38.0476C353.127 37.9245 353.063 37.8073 352.975 37.696C352.89 37.5848 352.774 37.4936 352.627 37.4226C352.48 37.3516 352.297 37.3161 352.077 37.3161C351.776 37.3161 351.525 37.3835 351.324 37.5185C351.123 37.651 351.022 37.8227 351.022 38.0334C351.022 38.2157 351.089 38.3625 351.224 38.4737C351.359 38.585 351.577 38.6761 351.878 38.7472L352.744 38.946C353.246 39.062 353.62 39.2408 353.866 39.4822C354.113 39.7237 354.236 40.0374 354.236 40.4233C354.236 40.75 354.141 41.0412 353.952 41.2969C353.765 41.5502 353.503 41.7491 353.167 41.8935C352.833 42.0379 352.446 42.1101 352.006 42.1101C351.395 42.1101 350.897 41.9799 350.511 41.7195C350.125 41.4567 349.888 41.0838 349.8 40.6009L350.827 40.4446C350.891 40.7121 351.022 40.9145 351.221 41.0518C351.42 41.1868 351.679 41.2543 351.999 41.2543C352.347 41.2543 352.625 41.1821 352.833 41.0376C353.041 40.8909 353.146 40.7121 353.146 40.5014C353.146 40.331 353.082 40.1877 352.954 40.0717C352.828 39.9557 352.635 39.8681 352.375 39.8089L351.452 39.6065C350.943 39.4905 350.566 39.3059 350.322 39.0526C350.081 38.7992 349.96 38.4785 349.96 38.0902C349.96 37.7682 350.05 37.4865 350.23 37.245C350.41 37.0036 350.659 36.8153 350.976 36.6804C351.293 36.5431 351.656 36.4744 352.066 36.4744C352.656 36.4744 353.12 36.6023 353.458 36.858C353.797 37.1113 354.02 37.451 354.129 37.8771Z" fill="#FBF6EC"/>
</g>
<mask id="path-19-inside-3_1492_720" fill="white">
<path d="M298 72H514V136H298V72Z"/>
</mask>
<path d="M298 136.5H299V135.5H298V136.5ZM301 136.5H303V135.5H301V136.5ZM305 136.5H307V135.5H305V136.5ZM309 136.5H311V135.5H309V136.5ZM313 136.5H315V135.5H313V136.5ZM317 136.5H319V135.5H317V136.5ZM321 136.5H323V135.5H321V136.5ZM325 136.5H327V135.5H325V136.5ZM329 136.5H331V135.5H329V136.5ZM333 136.5H335V135.5H333V136.5ZM337 136.5H339V135.5H337V136.5ZM341 136.5H343V135.5H341V136.5ZM345 136.5H347V135.5H345V136.5ZM349 136.5H351V135.5H349V136.5ZM353 136.5H355V135.5H353V136.5ZM357 136.5H359V135.5H357V136.5ZM361 136.5H363V135.5H361V136.5ZM365 136.5H367V135.5H365V136.5ZM369 136.5H371V135.5H369V136.5ZM373 136.5H375V135.5H373V136.5ZM377 136.5H379V135.5H377V136.5ZM381 136.5H383V135.5H381V136.5ZM385 136.5H387V135.5H385V136.5ZM389 136.5H391V135.5H389V136.5ZM393 136.5H395V135.5H393V136.5ZM397 136.5H399V135.5H397V136.5ZM401 136.5H403V135.5H401V136.5ZM405 136.5H407V135.5H405V136.5ZM409 136.5H411V135.5H409V136.5ZM413 136.5H415V135.5H413V136.5ZM417 136.5H419V135.5H417V136.5ZM421 136.5H423V135.5H421V136.5ZM425 136.5H427V135.5H425V136.5ZM429 136.5H431V135.5H429V136.5ZM433 136.5H435V135.5H433V136.5ZM437 136.5H439V135.5H437V136.5ZM441 136.5H443V135.5H441V136.5ZM445 136.5H447V135.5H445V136.5ZM449 136.5H451V135.5H449V136.5ZM453 136.5H455V135.5H453V136.5ZM457 136.5H459V135.5H457V136.5ZM461 136.5H463V135.5H461V136.5ZM465 136.5H467V135.5H465V136.5ZM469 136.5H471V135.5H469V136.5ZM473 136.5H475V135.5H473V136.5ZM477 136.5H479V135.5H477V136.5ZM481 136.5H483V135.5H481V136.5ZM485 136.5H487V135.5H485V136.5ZM489 136.5H491V135.5H489V136.5ZM493 136.5H495V135.5H493V136.5ZM497 136.5H499V135.5H497V136.5ZM501 136.5H503V135.5H501V136.5ZM505 136.5H507V135.5H505V136.5ZM509 136.5H511V135.5H509V136.5ZM513 136.5H514V135.5H513V136.5ZM298 137H299V135H298V137ZM301 137H303V135H301V137ZM305 137H307V135H305V137ZM309 137H311V135H309V137ZM313 137H315V135H313V137ZM317 137H319V135H317V137ZM321 137H323V135H321V137ZM325 137H327V135H325V137ZM329 137H331V135H329V137ZM333 137H335V135H333V137ZM337 137H339V135H337V137ZM341 137H343V135H341V137ZM345 137H347V135H345V137ZM349 137H351V135H349V137ZM353 137H355V135H353V137ZM357 137H359V135H357V137ZM361 137H363V135H361V137ZM365 137H367V135H365V137ZM369 137H371V135H369V137ZM373 137H375V135H373V137ZM377 137H379V135H377V137ZM381 137H383V135H381V137ZM385 137H387V135H385V137ZM389 137H391V135H389V137ZM393 137H395V135H393V137ZM397 137H399V135H397V137ZM401 137H403V135H401V137ZM405 137H407V135H405V137ZM409 137H411V135H409V137ZM413 137H415V135H413V137ZM417 137H419V135H417V137ZM421 137H423V135H421V137ZM425 137H427V135H425V137ZM429 137H431V135H429V137ZM433 137H435V135H433V137ZM437 137H439V135H437V137ZM441 137H443V135H441V137ZM445 137H447V135H445V137ZM449 137H451V135H449V137ZM453 137H455V135H453V137ZM457 137H459V135H457V137ZM461 137H463V135H461V137ZM465 137H467V135H465V137ZM469 137H471V135H469V137ZM473 137H475V135H473V137ZM477 137H479V135H477V137ZM481 137H483V135H481V137ZM485 137H487V135H485V137ZM489 137H491V135H489V137ZM493 137H495V135H493V137ZM497 137H499V135H497V137ZM501 137H503V135H501V137ZM505 137H507V135H505V137ZM509 137H511V135H509V137ZM513 137H514V135H513V137Z" fill="#E2EAFD" fill-opacity="0.1" mask="url(#path-19-inside-3_1492_720)"/>
<path fill-rule="evenodd" clip-rule="evenodd" d="M310 114C315.523 114 320 109.523 320 104C320 98.4772 315.523 94 310 94C304.477 94 300 98.4772 300 104C300 109.523 304.477 114 310 114ZM314.592 101.46C314.846 101.134 314.787 100.662 314.46 100.408C314.134 100.154 313.662 100.213 313.408 100.54L309.401 105.691C309.312 105.806 309.144 105.821 309.036 105.724L306.502 103.443C306.194 103.165 305.72 103.19 305.443 103.498C305.165 103.806 305.19 104.28 305.498 104.558L308.033 106.839C308.788 107.518 309.961 107.414 310.585 106.612L314.592 101.46Z" fill="#FFCC00"/>
<path d="M336.365 98.679C336.819 98.6823 337.267 98.7652 337.707 98.9276C338.148 99.09 338.546 99.3551 338.901 99.723C339.259 100.091 339.544 100.588 339.756 101.214C339.971 101.838 340.08 102.613 340.084 103.541C340.084 104.433 339.994 105.227 339.815 105.923C339.636 106.615 339.379 107.2 339.045 107.678C338.713 108.155 338.311 108.518 337.837 108.766C337.363 109.015 336.829 109.139 336.236 109.139C335.629 109.139 335.091 109.02 334.62 108.781C334.149 108.543 333.767 108.213 333.472 107.792C333.177 107.368 332.993 106.88 332.92 106.33H334.436C334.536 106.768 334.738 107.122 335.043 107.394C335.351 107.663 335.749 107.797 336.236 107.797C336.982 107.797 337.563 107.472 337.981 106.822C338.398 106.17 338.609 105.258 338.612 104.088H338.533C338.36 104.373 338.145 104.618 337.886 104.824C337.631 105.029 337.344 105.188 337.026 105.301C336.708 105.414 336.368 105.47 336.007 105.47C335.42 105.47 334.887 105.326 334.406 105.038C333.926 104.749 333.543 104.353 333.258 103.849C332.973 103.346 332.83 102.771 332.83 102.124C332.83 101.481 332.976 100.898 333.268 100.374C333.563 99.8506 333.974 99.4363 334.501 99.1314C335.031 98.8232 335.652 98.6723 336.365 98.679ZM336.37 99.9716C335.982 99.9716 335.633 100.068 335.321 100.26C335.013 100.449 334.769 100.706 334.59 101.031C334.411 101.352 334.322 101.71 334.322 102.104C334.322 102.499 334.408 102.857 334.58 103.178C334.756 103.496 334.995 103.75 335.296 103.939C335.601 104.125 335.949 104.217 336.34 104.217C336.632 104.217 336.904 104.161 337.156 104.048C337.407 103.936 337.628 103.78 337.817 103.581C338.006 103.379 338.153 103.15 338.259 102.895C338.365 102.64 338.418 102.371 338.418 102.089C338.418 101.715 338.329 101.367 338.15 101.045C337.974 100.724 337.732 100.465 337.424 100.27C337.116 100.071 336.764 99.9716 336.37 99.9716ZM345.101 109.139C344.477 109.139 343.917 109.02 343.42 108.781C342.926 108.539 342.532 108.208 342.237 107.787C341.942 107.366 341.785 106.885 341.765 106.345H343.256C343.293 106.783 343.486 107.142 343.838 107.424C344.189 107.706 344.61 107.847 345.101 107.847C345.492 107.847 345.838 107.757 346.14 107.578C346.445 107.396 346.683 107.146 346.856 106.827C347.031 106.509 347.119 106.146 347.119 105.739C347.119 105.324 347.03 104.955 346.851 104.63C346.672 104.305 346.425 104.05 346.11 103.864C345.798 103.679 345.44 103.584 345.036 103.581C344.728 103.581 344.418 103.634 344.106 103.74C343.795 103.846 343.543 103.985 343.351 104.158L341.944 103.949L342.515 98.8182H348.113V100.136H343.793L343.47 102.984H343.53C343.728 102.792 343.992 102.631 344.32 102.502C344.651 102.373 345.006 102.308 345.384 102.308C346.004 102.308 346.556 102.456 347.04 102.751C347.527 103.046 347.91 103.448 348.188 103.959C348.47 104.466 348.609 105.049 348.606 105.709C348.609 106.368 348.46 106.957 348.158 107.474C347.86 107.991 347.446 108.398 346.915 108.697C346.388 108.992 345.783 109.139 345.101 109.139ZM355.596 107.091V106.554C355.596 106.17 355.676 105.818 355.835 105.5C355.997 105.179 356.232 104.922 356.541 104.729C356.852 104.534 357.228 104.436 357.669 104.436C358.12 104.436 358.498 104.532 358.803 104.724C359.108 104.917 359.338 105.174 359.494 105.495C359.653 105.817 359.732 106.17 359.732 106.554V107.091C359.732 107.475 359.653 107.828 359.494 108.15C359.335 108.468 359.101 108.725 358.793 108.92C358.488 109.113 358.113 109.209 357.669 109.209C357.222 109.209 356.844 109.113 356.536 108.92C356.227 108.725 355.994 108.468 355.835 108.15C355.676 107.828 355.596 107.475 355.596 107.091ZM356.754 106.554V107.091C356.754 107.376 356.822 107.634 356.958 107.866C357.094 108.098 357.331 108.214 357.669 108.214C358.004 108.214 358.238 108.098 358.37 107.866C358.503 107.634 358.569 107.376 358.569 107.091V106.554C358.569 106.269 358.504 106.01 358.375 105.778C358.249 105.546 358.014 105.43 357.669 105.43C357.338 105.43 357.102 105.546 356.963 105.778C356.824 106.01 356.754 106.269 356.754 106.554ZM350.475 101.264V100.727C350.475 100.343 350.555 99.9898 350.714 99.6683C350.876 99.3468 351.112 99.09 351.42 98.8977C351.731 98.7055 352.108 98.6094 352.548 98.6094C352.999 98.6094 353.377 98.7055 353.682 98.8977C353.987 99.09 354.217 99.3468 354.373 99.6683C354.529 99.9898 354.607 100.343 354.607 100.727V101.264C354.607 101.649 354.527 102.002 354.368 102.323C354.212 102.641 353.98 102.898 353.672 103.094C353.367 103.286 352.993 103.382 352.548 103.382C352.098 103.382 351.718 103.286 351.41 103.094C351.105 102.898 350.873 102.641 350.714 102.323C350.555 102.002 350.475 101.649 350.475 101.264ZM351.639 100.727V101.264C351.639 101.549 351.705 101.808 351.838 102.04C351.973 102.272 352.21 102.388 352.548 102.388C352.88 102.388 353.112 102.272 353.245 102.04C353.38 101.808 353.448 101.549 353.448 101.264V100.727C353.448 100.442 353.384 100.184 353.254 99.9517C353.125 99.7197 352.89 99.6037 352.548 99.6037C352.217 99.6037 351.982 99.7197 351.843 99.9517C351.707 100.184 351.639 100.442 351.639 100.727ZM350.948 109L357.948 98.8182H359.136L352.136 109H350.948ZM365.439 109V98.8182H369.069C369.861 98.8182 370.517 98.9624 371.037 99.2507C371.558 99.5391 371.947 99.9335 372.206 100.434C372.464 100.931 372.594 101.491 372.594 102.114C372.594 102.741 372.463 103.304 372.201 103.805C371.942 104.302 371.551 104.696 371.028 104.988C370.507 105.276 369.853 105.42 369.064 105.42H366.568V104.118H368.925C369.425 104.118 369.831 104.032 370.143 103.859C370.454 103.684 370.683 103.445 370.829 103.143C370.975 102.842 371.047 102.499 371.047 102.114C371.047 101.73 370.975 101.388 370.829 101.09C370.683 100.792 370.452 100.558 370.138 100.389C369.826 100.22 369.415 100.136 368.905 100.136H366.976V109H365.439ZM374.135 109V101.364H375.572V102.577H375.652C375.791 102.166 376.036 101.843 376.387 101.607C376.742 101.369 377.143 101.249 377.59 101.249C377.683 101.249 377.793 101.253 377.919 101.259C378.048 101.266 378.149 101.274 378.222 101.284V102.706C378.162 102.689 378.056 102.671 377.904 102.651C377.751 102.628 377.599 102.616 377.446 102.616C377.095 102.616 376.782 102.691 376.507 102.84C376.235 102.986 376.019 103.19 375.86 103.452C375.701 103.71 375.622 104.005 375.622 104.337V109H374.135ZM382.311 109.154C381.596 109.154 380.971 108.99 380.437 108.662C379.904 108.334 379.489 107.875 379.194 107.285C378.899 106.695 378.752 106.005 378.752 105.217C378.752 104.424 378.899 103.732 379.194 103.138C379.489 102.545 379.904 102.085 380.437 101.756C380.971 101.428 381.596 101.264 382.311 101.264C383.027 101.264 383.652 101.428 384.186 101.756C384.719 102.085 385.134 102.545 385.429 103.138C385.724 103.732 385.871 104.424 385.871 105.217C385.871 106.005 385.724 106.695 385.429 107.285C385.134 107.875 384.719 108.334 384.186 108.662C383.652 108.99 383.027 109.154 382.311 109.154ZM382.316 107.906C382.78 107.906 383.165 107.784 383.47 107.538C383.775 107.293 384 106.967 384.146 106.559C384.295 106.151 384.37 105.702 384.37 105.212C384.37 104.724 384.295 104.277 384.146 103.869C384 103.458 383.775 103.129 383.47 102.88C383.165 102.631 382.78 102.507 382.316 102.507C381.849 102.507 381.461 102.631 381.153 102.88C380.848 103.129 380.621 103.458 380.472 103.869C380.326 104.277 380.253 104.724 380.253 105.212C380.253 105.702 380.326 106.151 380.472 106.559C380.621 106.967 380.848 107.293 381.153 107.538C381.461 107.784 381.849 107.906 382.316 107.906ZM391.025 101.364V102.557H386.709V101.364H391.025ZM387.893 109V100.479C387.893 100.001 387.997 99.6053 388.206 99.2905C388.415 98.9723 388.691 98.7353 389.036 98.5795C389.381 98.4205 389.755 98.3409 390.16 98.3409C390.458 98.3409 390.713 98.3658 390.925 98.4155C391.137 98.4619 391.295 98.505 391.397 98.5447L391.049 99.7479C390.98 99.728 390.89 99.7048 390.781 99.6783C390.672 99.6484 390.539 99.6335 390.383 99.6335C390.022 99.6335 389.763 99.723 389.608 99.902C389.455 100.081 389.379 100.339 389.379 100.678V109H387.893ZM392.418 109V101.364H393.905V109H392.418ZM393.169 100.185C392.911 100.185 392.688 100.099 392.503 99.9268C392.321 99.7512 392.229 99.5424 392.229 99.3004C392.229 99.0552 392.321 98.8464 392.503 98.674C392.688 98.4983 392.911 98.4105 393.169 98.4105C393.428 98.4105 393.648 98.4983 393.83 98.674C394.016 98.8464 394.109 99.0552 394.109 99.3004C394.109 99.5424 394.016 99.7512 393.83 99.9268C393.648 100.099 393.428 100.185 393.169 100.185ZM399.329 101.364V102.557H395.158V101.364H399.329ZM396.277 99.5341H397.763V106.758C397.763 107.046 397.806 107.263 397.893 107.409C397.979 107.552 398.09 107.649 398.226 107.702C398.365 107.752 398.516 107.777 398.678 107.777C398.797 107.777 398.902 107.769 398.991 107.752C399.081 107.736 399.15 107.722 399.2 107.712L399.469 108.94C399.382 108.973 399.26 109.007 399.101 109.04C398.942 109.076 398.743 109.096 398.504 109.099C398.113 109.106 397.748 109.036 397.41 108.891C397.072 108.745 396.799 108.519 396.59 108.214C396.381 107.91 396.277 107.527 396.277 107.066V99.5341ZM410.071 101.493C410.018 101.022 409.8 100.658 409.415 100.399C409.031 100.137 408.547 100.006 407.963 100.006C407.546 100.006 407.184 100.073 406.88 100.205C406.575 100.335 406.338 100.513 406.169 100.742C406.003 100.968 405.92 101.224 405.92 101.513C405.92 101.755 405.976 101.964 406.089 102.139C406.205 102.315 406.356 102.462 406.541 102.582C406.73 102.698 406.933 102.795 407.148 102.875C407.363 102.951 407.571 103.014 407.769 103.064L408.764 103.322C409.089 103.402 409.422 103.51 409.763 103.646C410.104 103.781 410.421 103.96 410.713 104.183C411.004 104.405 411.24 104.68 411.419 105.008C411.601 105.336 411.692 105.729 411.692 106.186C411.692 106.763 411.543 107.275 411.245 107.722C410.95 108.17 410.52 108.523 409.957 108.781C409.397 109.04 408.719 109.169 407.924 109.169C407.161 109.169 406.502 109.048 405.945 108.806C405.388 108.564 404.952 108.221 404.637 107.777C404.323 107.33 404.149 106.799 404.115 106.186H405.657C405.686 106.554 405.806 106.861 406.015 107.106C406.227 107.348 406.497 107.528 406.825 107.648C407.156 107.764 407.519 107.822 407.914 107.822C408.348 107.822 408.734 107.754 409.072 107.618C409.413 107.479 409.682 107.286 409.877 107.041C410.073 106.793 410.171 106.503 410.171 106.171C410.171 105.87 410.085 105.623 409.912 105.43C409.743 105.238 409.513 105.079 409.221 104.953C408.933 104.827 408.606 104.716 408.242 104.62L407.039 104.292C406.223 104.07 405.577 103.743 405.1 103.312C404.626 102.882 404.389 102.312 404.389 101.602C404.389 101.016 404.548 100.504 404.866 100.066C405.184 99.6286 405.615 99.2888 406.159 99.0469C406.702 98.8016 407.315 98.679 407.998 98.679C408.688 98.679 409.296 98.8 409.823 99.0419C410.353 99.2839 410.771 99.617 411.076 100.041C411.381 100.462 411.54 100.946 411.553 101.493H410.071ZM413.269 111.864V101.364H414.72V102.602H414.845C414.931 102.442 415.055 102.259 415.217 102.05C415.38 101.841 415.605 101.659 415.894 101.503C416.182 101.344 416.563 101.264 417.037 101.264C417.653 101.264 418.204 101.42 418.688 101.732C419.171 102.043 419.551 102.492 419.826 103.079C420.104 103.665 420.244 104.371 420.244 105.197C420.244 106.022 420.106 106.73 419.831 107.32C419.556 107.906 419.178 108.359 418.697 108.677C418.217 108.992 417.668 109.149 417.052 109.149C416.588 109.149 416.208 109.071 415.913 108.915C415.622 108.76 415.393 108.577 415.227 108.369C415.062 108.16 414.934 107.974 414.845 107.812H414.755V111.864H413.269ZM414.725 105.182C414.725 105.719 414.803 106.189 414.959 106.594C415.115 106.998 415.34 107.315 415.635 107.543C415.93 107.769 416.291 107.881 416.719 107.881C417.163 107.881 417.534 107.764 417.832 107.528C418.131 107.29 418.356 106.967 418.509 106.559C418.664 106.151 418.742 105.692 418.742 105.182C418.742 104.678 418.666 104.226 418.514 103.825C418.364 103.424 418.139 103.107 417.837 102.875C417.539 102.643 417.166 102.527 416.719 102.527C416.288 102.527 415.923 102.638 415.625 102.86C415.33 103.082 415.106 103.392 414.954 103.79C414.801 104.187 414.725 104.652 414.725 105.182ZM423.256 98.8182V109H421.769V98.8182H423.256ZM425.115 109V101.364H426.602V109H425.115ZM425.866 100.185C425.608 100.185 425.386 100.099 425.2 99.9268C425.018 99.7512 424.927 99.5424 424.927 99.3004C424.927 99.0552 425.018 98.8464 425.2 98.674C425.386 98.4983 425.608 98.4105 425.866 98.4105C426.125 98.4105 426.345 98.4983 426.527 98.674C426.713 98.8464 426.806 99.0552 426.806 99.3004C426.806 99.5424 426.713 99.7512 426.527 99.9268C426.345 100.099 426.125 100.185 425.866 100.185ZM432.026 101.364V102.557H427.855V101.364H432.026ZM428.974 99.5341H430.46V106.758C430.46 107.046 430.503 107.263 430.59 107.409C430.676 107.552 430.787 107.649 430.923 107.702C431.062 107.752 431.213 107.777 431.375 107.777C431.494 107.777 431.599 107.769 431.688 107.752C431.778 107.736 431.847 107.722 431.897 107.712L432.166 108.94C432.079 108.973 431.957 109.007 431.798 109.04C431.639 109.076 431.44 109.096 431.201 109.099C430.81 109.106 430.445 109.036 430.107 108.891C429.769 108.745 429.496 108.519 429.287 108.214C429.078 107.91 428.974 107.527 428.974 107.066V99.5341Z" fill="white"/>
<mask id="path-23-inside-4_1492_720" fill="white">
<path d="M298 140H514V204H298V140Z"/>
</mask>
<path d="M298 204.5H299V203.5H298V204.5ZM301 204.5H303V203.5H301V204.5ZM305 204.5H307V203.5H305V204.5ZM309 204.5H311V203.5H309V204.5ZM313 204.5H315V203.5H313V204.5ZM317 204.5H319V203.5H317V204.5ZM321 204.5H323V203.5H321V204.5ZM325 204.5H327V203.5H325V204.5ZM329 204.5H331V203.5H329V204.5ZM333 204.5H335V203.5H333V204.5ZM337 204.5H339V203.5H337V204.5ZM341 204.5H343V203.5H341V204.5ZM345 204.5H347V203.5H345V204.5ZM349 204.5H351V203.5H349V204.5ZM353 204.5H355V203.5H353V204.5ZM357 204.5H359V203.5H357V204.5ZM361 204.5H363V203.5H361V204.5ZM365 204.5H367V203.5H365V204.5ZM369 204.5H371V203.5H369V204.5ZM373 204.5H375V203.5H373V204.5ZM377 204.5H379V203.5H377V204.5ZM381 204.5H383V203.5H381V204.5ZM385 204.5H387V203.5H385V204.5ZM389 204.5H391V203.5H389V204.5ZM393 204.5H395V203.5H393V204.5ZM397 204.5H399V203.5H397V204.5ZM401 204.5H403V203.5H401V204.5ZM405 204.5H407V203.5H405V204.5ZM409 204.5H411V203.5H409V204.5ZM413 204.5H415V203.5H413V204.5ZM417 204.5H419V203.5H417V204.5ZM421 204.5H423V203.5H421V204.5ZM425 204.5H427V203.5H425V204.5ZM429 204.5H431V203.5H429V204.5ZM433 204.5H435V203.5H433V204.5ZM437 204.5H439V203.5H437V204.5ZM441 204.5H443V203.5H441V204.5ZM445 204.5H447V203.5H445V204.5ZM449 204.5H451V203.5H449V204.5ZM453 204.5H455V203.5H453V204.5ZM457 204.5H459V203.5H457V204.5ZM461 204.5H463V203.5H461V204.5ZM465 204.5H467V203.5H465V204.5ZM469 204.5H471V203.5H469V204.5ZM473 204.5H475V203.5H473V204.5ZM477 204.5H479V203.5H477V204.5ZM481 204.5H483V203.5H481V204.5ZM485 204.5H487V203.5H485V204.5ZM489 204.5H491V203.5H489V204.5ZM493 204.5H495V203.5H493V204.5ZM497 204.5H499V203.5H497V204.5ZM501 204.5H503V203.5H501V204.5ZM505 204.5H507V203.5H505V204.5ZM509 204.5H511V203.5H509V204.5ZM513 204.5H514V203.5H513V204.5ZM298 205H299V203H298V205ZM301 205H303V203H301V205ZM305 205H307V203H305V205ZM309 205H311V203H309V205ZM313 205H315V203H313V205ZM317 205H319V203H317V205ZM321 205H323V203H321V205ZM325 205H327V203H325V205ZM329 205H331V203H329V205ZM333 205H335V203H333V205ZM337 205H339V203H337V205ZM341 205H343V203H341V205ZM345 205H347V203H345V205ZM349 205H351V203H349V205ZM353 205H355V203H353V205ZM357 205H359V203H357V205ZM361 205H363V203H361V205ZM365 205H367V203H365V205ZM369 205H371V203H369V205ZM373 205H375V203H373V205ZM377 205H379V203H377V205ZM381 205H383V203H381V205ZM385 205H387V203H385V205ZM389 205H391V203H389V205ZM393 205H395V203H393V205ZM397 205H399V203H397V205ZM401 205H403V203H401V205ZM405 205H407V203H405V205ZM409 205H411V203H409V205ZM413 205H415V203H413V205ZM417 205H419V203H417V205ZM421 205H423V203H421V205ZM425 205H427V203H425V205ZM429 205H431V203H429V205ZM433 205H435V203H433V205ZM437 205H439V203H437V205ZM441 205H443V203H441V205ZM445 205H447V203H445V205ZM449 205H451V203H449V205ZM453 205H455V203H453V205ZM457 205H459V203H457V205ZM461 205H463V203H461V205ZM465 205H467V203H465V205ZM469 205H471V203H469V205ZM473 205H475V203H473V205ZM477 205H479V203H477V205ZM481 205H483V203H481V205ZM485 205H487V203H485V205ZM489 205H491V203H489V205ZM493 205H495V203H493V205ZM497 205H499V203H497V205ZM501 205H503V203H501V205ZM505 205H507V203H505V205ZM509 205H511V203H509V205ZM513 205H514V203H513V205Z" fill="#E2EAFD" fill-opacity="0.1" mask="url(#path-23-inside-4_1492_720)"/>
<path fill-rule="evenodd" clip-rule="evenodd" d="M310 182C315.523 182 320 177.523 320 172C320 166.477 315.523 162 310 162C304.477 162 300 166.477 300 172C300 177.523 304.477 182 310 182ZM314.592 169.46C314.846 169.134 314.787 168.662 314.46 168.408C314.134 168.154 313.662 168.213 313.408 168.54L309.401 173.691C309.312 173.806 309.144 173.821 309.036 173.724L306.502 171.443C306.194 171.165 305.72 171.19 305.443 171.498C305.165 171.806 305.19 172.28 305.498 172.558L308.033 174.839C308.788 175.518 309.961 175.414 310.585 174.612L314.592 169.46Z" fill="#FFCC00"/>
<path d="M333.119 177V166.818H336.847C337.57 166.818 338.168 166.937 338.642 167.176C339.116 167.411 339.471 167.731 339.706 168.136C339.941 168.537 340.059 168.989 340.059 169.493C340.059 169.917 339.981 170.275 339.825 170.567C339.67 170.855 339.461 171.087 339.199 171.263C338.94 171.435 338.655 171.561 338.344 171.641V171.74C338.682 171.757 339.012 171.866 339.333 172.068C339.658 172.267 339.926 172.55 340.138 172.918C340.351 173.286 340.457 173.734 340.457 174.261C340.457 174.781 340.334 175.248 340.089 175.663C339.847 176.074 339.472 176.4 338.965 176.642C338.458 176.881 337.81 177 337.021 177H333.119ZM334.655 175.683H336.872C337.608 175.683 338.135 175.54 338.453 175.255C338.771 174.97 338.93 174.614 338.93 174.186C338.93 173.865 338.849 173.57 338.687 173.301C338.524 173.033 338.292 172.819 337.991 172.66C337.692 172.501 337.338 172.421 336.927 172.421H334.655V175.683ZM334.655 171.223H336.713C337.058 171.223 337.368 171.157 337.643 171.024C337.921 170.892 338.142 170.706 338.304 170.467C338.47 170.225 338.553 169.94 338.553 169.612C338.553 169.191 338.405 168.838 338.11 168.553C337.815 168.268 337.363 168.126 336.753 168.126H334.655V171.223ZM342.019 177V169.364H343.506V177H342.019ZM342.77 168.185C342.512 168.185 342.29 168.099 342.104 167.927C341.922 167.751 341.831 167.542 341.831 167.3C341.831 167.055 341.922 166.846 342.104 166.674C342.29 166.498 342.512 166.411 342.77 166.411C343.029 166.411 343.249 166.498 343.431 166.674C343.617 166.846 343.71 167.055 343.71 167.3C343.71 167.542 343.617 167.751 343.431 167.927C343.249 168.099 343.029 168.185 342.77 168.185ZM349.865 172.053V173.341H345.351V172.053H349.865ZM353.245 177L350.421 166.818H352.037L354.021 174.703H354.115L356.178 166.818H357.779L359.842 174.708H359.937L361.915 166.818H363.536L360.707 177H359.161L357.018 169.374H356.939L354.796 177H353.245ZM367.217 177.154C366.464 177.154 365.816 176.993 365.273 176.672C364.733 176.347 364.315 175.891 364.02 175.305C363.728 174.715 363.583 174.024 363.583 173.232C363.583 172.449 363.728 171.76 364.02 171.163C364.315 170.567 364.726 170.101 365.253 169.766C365.783 169.432 366.403 169.264 367.112 169.264C367.543 169.264 367.961 169.335 368.365 169.478C368.77 169.621 369.133 169.844 369.454 170.149C369.776 170.454 370.029 170.85 370.215 171.337C370.4 171.821 370.493 172.41 370.493 173.102V173.629H364.423V172.516H369.036C369.036 172.125 368.957 171.778 368.798 171.477C368.639 171.172 368.415 170.931 368.127 170.756C367.842 170.58 367.507 170.492 367.122 170.492C366.705 170.492 366.34 170.595 366.029 170.8C365.72 171.003 365.482 171.268 365.313 171.596C365.147 171.921 365.064 172.274 365.064 172.655V173.525C365.064 174.035 365.154 174.469 365.333 174.827C365.515 175.185 365.768 175.459 366.093 175.648C366.418 175.833 366.798 175.926 367.232 175.926C367.513 175.926 367.77 175.886 368.002 175.807C368.234 175.724 368.435 175.601 368.604 175.439C368.773 175.277 368.902 175.076 368.992 174.837L370.399 175.091C370.286 175.505 370.084 175.868 369.792 176.18C369.504 176.488 369.141 176.728 368.703 176.901C368.269 177.07 367.774 177.154 367.217 177.154ZM375.294 177.154C374.541 177.154 373.893 176.993 373.35 176.672C372.809 176.347 372.392 175.891 372.097 175.305C371.805 174.715 371.659 174.024 371.659 173.232C371.659 172.449 371.805 171.76 372.097 171.163C372.392 170.567 372.803 170.101 373.33 169.766C373.86 169.432 374.48 169.264 375.189 169.264C375.62 169.264 376.038 169.335 376.442 169.478C376.846 169.621 377.209 169.844 377.531 170.149C377.852 170.454 378.106 170.85 378.291 171.337C378.477 171.821 378.57 172.41 378.57 173.102V173.629H372.5V172.516H377.113C377.113 172.125 377.034 171.778 376.875 171.477C376.715 171.172 376.492 170.931 376.203 170.756C375.918 170.58 375.584 170.492 375.199 170.492C374.782 170.492 374.417 170.595 374.105 170.8C373.797 171.003 373.559 171.268 373.389 171.596C373.224 171.921 373.141 172.274 373.141 172.655V173.525C373.141 174.035 373.23 174.469 373.409 174.827C373.592 175.185 373.845 175.459 374.17 175.648C374.495 175.833 374.874 175.926 375.309 175.926C375.59 175.926 375.847 175.886 376.079 175.807C376.311 175.724 376.512 175.601 376.681 175.439C376.85 175.277 376.979 175.076 377.068 174.837L378.475 175.091C378.363 175.505 378.161 175.868 377.869 176.18C377.581 176.488 377.218 176.728 376.78 176.901C376.346 177.07 375.85 177.154 375.294 177.154ZM381.446 174.41L381.436 172.595H381.695L384.738 169.364H386.517L383.047 173.043H382.814L381.446 174.41ZM380.079 177V166.818H381.566V177H380.079ZM384.902 177L382.167 173.371L383.191 172.332L386.726 177H384.902ZM389.219 166.818V177H387.732V166.818H389.219ZM392.018 179.864C391.796 179.864 391.594 179.845 391.412 179.809C391.229 179.776 391.093 179.739 391.004 179.7L391.362 178.482C391.634 178.554 391.876 178.586 392.088 178.576C392.3 178.566 392.487 178.487 392.65 178.337C392.815 178.188 392.961 177.945 393.087 177.607L393.271 177.099L390.477 169.364H392.068L394.002 175.29H394.081L396.015 169.364H397.611L394.464 178.019C394.318 178.417 394.133 178.753 393.907 179.028C393.682 179.307 393.414 179.516 393.102 179.655C392.79 179.794 392.429 179.864 392.018 179.864ZM402.553 177V166.818H406.182C406.974 166.818 407.63 166.962 408.151 167.251C408.671 167.539 409.06 167.933 409.319 168.434C409.577 168.931 409.707 169.491 409.707 170.114C409.707 170.741 409.576 171.304 409.314 171.805C409.055 172.302 408.664 172.696 408.141 172.988C407.62 173.276 406.966 173.42 406.177 173.42H403.681V172.118H406.038C406.538 172.118 406.944 172.032 407.256 171.859C407.567 171.684 407.796 171.445 407.942 171.143C408.088 170.842 408.161 170.499 408.161 170.114C408.161 169.73 408.088 169.388 407.942 169.09C407.796 168.792 407.566 168.558 407.251 168.389C406.939 168.22 406.528 168.136 406.018 168.136H404.089V177H402.553ZM413.402 177.169C412.918 177.169 412.481 177.08 412.09 176.901C411.699 176.718 411.389 176.455 411.16 176.11C410.935 175.765 410.822 175.343 410.822 174.842C410.822 174.411 410.905 174.057 411.071 173.778C411.236 173.5 411.46 173.28 411.742 173.117C412.024 172.955 412.338 172.832 412.686 172.749C413.034 172.666 413.389 172.603 413.75 172.56C414.208 172.507 414.579 172.464 414.864 172.431C415.149 172.395 415.356 172.337 415.485 172.257C415.615 172.178 415.679 172.048 415.679 171.869V171.835C415.679 171.4 415.557 171.064 415.311 170.825C415.069 170.587 414.708 170.467 414.228 170.467C413.727 170.467 413.333 170.578 413.044 170.8C412.759 171.019 412.562 171.263 412.453 171.531L411.056 171.213C411.221 170.749 411.463 170.375 411.782 170.089C412.103 169.801 412.473 169.592 412.89 169.463C413.308 169.33 413.747 169.264 414.208 169.264C414.513 169.264 414.836 169.301 415.177 169.374C415.522 169.443 415.843 169.572 416.142 169.761C416.443 169.95 416.69 170.22 416.882 170.572C417.075 170.92 417.171 171.372 417.171 171.929V177H415.719V175.956H415.659C415.563 176.148 415.419 176.337 415.227 176.523C415.035 176.708 414.788 176.862 414.486 176.985C414.184 177.108 413.823 177.169 413.402 177.169ZM413.725 175.976C414.136 175.976 414.488 175.895 414.779 175.732C415.074 175.57 415.298 175.358 415.451 175.096C415.606 174.831 415.684 174.547 415.684 174.246V173.261C415.631 173.314 415.528 173.364 415.376 173.411C415.227 173.454 415.056 173.492 414.864 173.525C414.672 173.555 414.484 173.583 414.302 173.609C414.12 173.633 413.967 173.652 413.845 173.669C413.556 173.705 413.293 173.767 413.054 173.853C412.819 173.939 412.63 174.063 412.488 174.226C412.348 174.385 412.279 174.597 412.279 174.862C412.279 175.23 412.415 175.509 412.686 175.697C412.958 175.883 413.305 175.976 413.725 175.976ZM419.677 179.864C419.455 179.864 419.253 179.845 419.07 179.809C418.888 179.776 418.752 179.739 418.663 179.7L419.021 178.482C419.292 178.554 419.534 178.586 419.746 178.576C419.959 178.566 420.146 178.487 420.308 178.337C420.474 178.188 420.62 177.945 420.746 177.607L420.93 177.099L418.136 169.364H419.727L421.661 175.29H421.74L423.674 169.364H425.27L422.123 178.019C421.977 178.417 421.791 178.753 421.566 179.028C421.341 179.307 421.072 179.516 420.761 179.655C420.449 179.794 420.088 179.864 419.677 179.864ZM429.484 177.154C428.768 177.154 428.143 176.99 427.61 176.662C427.076 176.334 426.662 175.875 426.367 175.285C426.072 174.695 425.924 174.005 425.924 173.217C425.924 172.424 426.072 171.732 426.367 171.138C426.662 170.545 427.076 170.085 427.61 169.756C428.143 169.428 428.768 169.264 429.484 169.264C430.2 169.264 430.824 169.428 431.358 169.756C431.892 170.085 432.306 170.545 432.601 171.138C432.896 171.732 433.043 172.424 433.043 173.217C433.043 174.005 432.896 174.695 432.601 175.285C432.306 175.875 431.892 176.334 431.358 176.662C430.824 176.99 430.2 177.154 429.484 177.154ZM429.489 175.906C429.953 175.906 430.337 175.784 430.642 175.538C430.947 175.293 431.172 174.967 431.318 174.559C431.467 174.151 431.542 173.702 431.542 173.212C431.542 172.724 431.467 172.277 431.318 171.869C431.172 171.458 430.947 171.129 430.642 170.88C430.337 170.631 429.953 170.507 429.489 170.507C429.021 170.507 428.634 170.631 428.325 170.88C428.02 171.129 427.793 171.458 427.644 171.869C427.498 172.277 427.426 172.724 427.426 173.212C427.426 173.702 427.498 174.151 427.644 174.559C427.793 174.967 428.02 175.293 428.325 175.538C428.634 175.784 429.021 175.906 429.489 175.906ZM439.4 173.833V169.364H440.892V177H439.43V175.678H439.35C439.175 176.085 438.893 176.425 438.505 176.697C438.121 176.965 437.642 177.099 437.068 177.099C436.578 177.099 436.144 176.992 435.766 176.776C435.391 176.558 435.096 176.234 434.881 175.807C434.669 175.379 434.563 174.851 434.563 174.221V169.364H436.049V174.042C436.049 174.562 436.193 174.977 436.482 175.285C436.77 175.593 437.145 175.747 437.605 175.747C437.884 175.747 438.161 175.678 438.436 175.538C438.714 175.399 438.944 175.189 439.127 174.907C439.312 174.625 439.403 174.267 439.4 173.833ZM446.314 169.364V170.557H442.142V169.364H446.314ZM443.261 167.534H444.747V174.758C444.747 175.046 444.791 175.263 444.877 175.409C444.963 175.552 445.074 175.649 445.21 175.702C445.349 175.752 445.5 175.777 445.662 175.777C445.782 175.777 445.886 175.769 445.975 175.752C446.065 175.736 446.135 175.722 446.184 175.712L446.453 176.94C446.367 176.973 446.244 177.007 446.085 177.04C445.926 177.076 445.727 177.096 445.488 177.099C445.097 177.106 444.733 177.036 444.394 176.891C444.056 176.745 443.783 176.519 443.574 176.214C443.365 175.91 443.261 175.527 443.261 175.066V167.534ZM453.417 171.228L452.07 171.467C452.013 171.294 451.924 171.13 451.801 170.974C451.682 170.819 451.52 170.691 451.314 170.592C451.109 170.492 450.852 170.442 450.544 170.442C450.123 170.442 449.771 170.537 449.49 170.726C449.208 170.911 449.067 171.152 449.067 171.447C449.067 171.702 449.161 171.907 449.35 172.063C449.539 172.219 449.844 172.347 450.265 172.446L451.478 172.724C452.181 172.887 452.705 173.137 453.049 173.475C453.394 173.813 453.566 174.252 453.566 174.793C453.566 175.25 453.434 175.658 453.169 176.016C452.907 176.37 452.54 176.649 452.07 176.851C451.603 177.053 451.061 177.154 450.444 177.154C449.589 177.154 448.891 176.972 448.351 176.607C447.811 176.239 447.479 175.717 447.357 175.041L448.794 174.822C448.883 175.197 449.067 175.48 449.345 175.673C449.624 175.862 449.987 175.956 450.434 175.956C450.921 175.956 451.311 175.855 451.603 175.653C451.894 175.447 452.04 175.197 452.04 174.902C452.04 174.663 451.951 174.463 451.772 174.3C451.596 174.138 451.326 174.015 450.961 173.933L449.669 173.649C448.956 173.487 448.429 173.228 448.088 172.874C447.75 172.519 447.58 172.07 447.58 171.526C447.58 171.076 447.706 170.681 447.958 170.343C448.21 170.005 448.558 169.741 449.002 169.553C449.446 169.36 449.955 169.264 450.529 169.264C451.354 169.264 452.004 169.443 452.478 169.801C452.951 170.156 453.265 170.631 453.417 171.228Z" fill="white"/>
<defs>
<filter id="filter1_di_1492_720" x="14.5419" y="23.4089" width="80.9163" height="46.9163" filterUnits="userSpaceOnUse" color-interpolation-filters="sRGB">
<feFlood flood-opacity="0" result="BackgroundImageFix"/>
<feColorMatrix in="SourceAlpha" type="matrix" values="0 0 0 0 0 0 0 0 0 0 0 0 0 0 0 0 0 0 127 0" result="hardAlpha"/>
<feOffset dy="8.86702"/>
<feGaussianBlur stdDeviation="4.72907"/>
<feComposite in2="hardAlpha" operator="out"/>
<feColorMatrix type="matrix" values="0 0 0 0 0 0 0 0 0 0 0 0 0 0 0 0 0 0 0.1 0"/>
<feBlend mode="normal" in2="BackgroundImageFix" result="effect1_dropShadow_1492_720"/>
<feBlend mode="normal" in="SourceGraphic" in2="effect1_dropShadow_1492_720" result="shape"/>
<feColorMatrix in="SourceAlpha" type="matrix" values="0 0 0 0 0 0 0 0 0 0 0 0 0 0 0 0 0 0 127 0" result="hardAlpha"/>
<feOffset dy="0.636826"/>
<feGaussianBlur stdDeviation="1.91048"/>
<feComposite in2="hardAlpha" operator="arithmetic" k2="-1" k3="1"/>
<feColorMatrix type="matrix" values="0 0 0 0 1 0 0 0 0 1 0 0 0 0 1 0 0 0 0.25 0"/>
<feBlend mode="normal" in2="shape" result="effect2_innerShadow_1492_720"/>
</filter>
<filter id="filter3_di_1492_720" x="288.542" y="23.4089" width="85.9163" height="46.9163" filterUnits="userSpaceOnUse" color-interpolation-filters="sRGB">
<feFlood flood-opacity="0" result="BackgroundImageFix"/>
<feColorMatrix in="SourceAlpha" type="matrix" values="0 0 0 0 0 0 0 0 0 0 0 0 0 0 0 0 0 0 127 0" result="hardAlpha"/>
<feOffset dy="8.86702"/>
<feGaussianBlur stdDeviation="4.72907"/>
<feComposite in2="hardAlpha" operator="out"/>
<feColorMatrix type="matrix" values="0 0 0 0 0 0 0 0 0 0 0 0 0 0 0 0 0 0 0.1 0"/>
<feBlend mode="normal" in2="BackgroundImageFix" result="effect1_dropShadow_1492_720"/>
<feBlend mode="normal" in="SourceGraphic" in2="effect1_dropShadow_1492_720" result="shape"/>
<feColorMatrix in="SourceAlpha" type="matrix" values="0 0 0 0 0 0 0 0 0 0 0 0 0 0 0 0 0 0 127 0" result="hardAlpha"/>
<feOffset dy="0.636826"/>
<feGaussianBlur stdDeviation="1.91048"/>
<feComposite in2="hardAlpha" operator="arithmetic" k2="-1" k3="1"/>
<feColorMatrix type="matrix" values="0 0 0 0 0 0 0 0 0 0 0 0 0 0 0 0 0 0 0.25 0"/>
<feBlend mode="normal" in2="shape" result="effect2_innerShadow_1492_720"/>
</filter>
<linearGradient id="paint0_linear_1492_720" x1="129.661" y1="8.20487e-06" x2="129.661" y2="228" gradientUnits="userSpaceOnUse">
<stop stop-color="#FFCC00" stop-opacity="0"/>
<stop offset="1" stop-color="#FFCC00" stop-opacity="0.1"/>
</linearGradient>
<linearGradient id="paint1_linear_1492_720" x1="56.5014" y1="24" x2="56.5014" y2="43.25" gradientUnits="userSpaceOnUse">
<stop stop-color="white" stop-opacity="0.2"/>
<stop offset="0.4" stop-color="white" stop-opacity="0.1"/>
</linearGradient>
<radialGradient id="paint2_radial_1492_720" cx="0" cy="0" r="1" gradientUnits="userSpaceOnUse" gradientTransform="translate(390 154.5) rotate(39.2894) scale(632.464 296.878)">
<stop stop-color="#FFD221" stop-opacity="0.4"/>
<stop offset="1" stop-color="#FFD221" stop-opacity="0"/>
</radialGradient>
<linearGradient id="paint3_linear_1492_720" x1="333.123" y1="24" x2="333.123" y2="43.25" gradientUnits="userSpaceOnUse">
<stop stop-opacity="0.2"/>
<stop offset="0.4" stop-opacity="0.1"/>
</linearGradient>
</defs>
</svg>
