<svg width="588" height="252" viewBox="0 0 588 252" fill="none" xmlns="http://www.w3.org/2000/svg">
<path d="M0.5 161.5L189 141.5L336.295 131.213C343.081 130.739 349.8 129.574 356.349 127.736L476.31 94.0694C492.825 89.4345 507.871 80.6292 520 68.4999L588 0.5" stroke="url(#paint0_linear_325_5657)"/>
<path d="M189.076 141L1 161.5V252H588V1.5L521.223 68.3027C509.154 80.3764 494.195 89.1594 477.77 93.815L356.865 128.087C350.034 130.024 343.015 131.227 335.929 131.677L189.076 141Z" fill="url(#paint1_linear_325_5657)"/>
<rect x="451.5" y="50" width="70" height="16" rx="8" fill="#FFCC00"/>
<path d="M462.217 62V54.7273H464.945C465.503 54.7273 465.972 54.8314 466.351 55.0398C466.732 55.2481 467.02 55.5346 467.214 55.8991C467.41 56.2614 467.509 56.6733 467.509 57.1349C467.509 57.6013 467.41 58.0156 467.214 58.3778C467.017 58.7401 466.727 59.0253 466.344 59.2337C465.96 59.4396 465.488 59.5426 464.927 59.5426H463.119V58.4595H464.749C465.076 58.4595 465.344 58.4027 465.552 58.2891C465.76 58.1754 465.914 58.0192 466.013 57.8203C466.115 57.6214 466.166 57.393 466.166 57.1349C466.166 56.8769 466.115 56.6496 466.013 56.4531C465.914 56.2566 465.759 56.1039 465.548 55.995C465.34 55.8838 465.071 55.8281 464.742 55.8281H463.535V62H462.217ZM468.596 62V56.5455H469.843V57.4545H469.899C469.999 57.1397 470.169 56.897 470.411 56.7266C470.655 56.5537 470.933 56.4673 471.245 56.4673C471.316 56.4673 471.396 56.4709 471.483 56.478C471.573 56.4827 471.648 56.491 471.707 56.5028V57.6854C471.652 57.6664 471.566 57.6499 471.448 57.6357C471.332 57.6191 471.219 57.6108 471.11 57.6108C470.876 57.6108 470.665 57.6617 470.478 57.7635C470.294 57.8629 470.148 58.0014 470.041 58.179C469.935 58.3565 469.882 58.5613 469.882 58.7933V62H468.596ZM474.716 62.1065C474.183 62.1065 473.721 61.9893 473.331 61.755C472.94 61.5206 472.637 61.1927 472.422 60.7713C472.208 60.3499 472.102 59.8575 472.102 59.294C472.102 58.7306 472.208 58.237 472.422 57.8132C472.637 57.3894 472.94 57.0604 473.331 56.826C473.721 56.5916 474.183 56.4744 474.716 56.4744C475.248 56.4744 475.71 56.5916 476.1 56.826C476.491 57.0604 476.793 57.3894 477.006 57.8132C477.221 58.237 477.329 58.7306 477.329 59.294C477.329 59.8575 477.221 60.3499 477.006 60.7713C476.793 61.1927 476.491 61.5206 476.1 61.755C475.71 61.9893 475.248 62.1065 474.716 62.1065ZM474.723 61.0767C475.011 61.0767 475.253 60.9974 475.447 60.8388C475.641 60.6778 475.786 60.4624 475.88 60.1925C475.977 59.9226 476.026 59.6219 476.026 59.2905C476.026 58.9567 475.977 58.6548 475.88 58.3849C475.786 58.1127 475.641 57.8961 475.447 57.7351C475.253 57.5741 475.011 57.4936 474.723 57.4936C474.427 57.4936 474.181 57.5741 473.984 57.7351C473.79 57.8961 473.644 58.1127 473.547 58.3849C473.453 58.6548 473.405 58.9567 473.405 59.2905C473.405 59.6219 473.453 59.9226 473.547 60.1925C473.644 60.4624 473.79 60.6778 473.984 60.8388C474.181 60.9974 474.427 61.0767 474.723 61.0767ZM481.183 56.5455V57.5398H477.959V56.5455H481.183ZM478.765 62V56.0305C478.765 55.6636 478.84 55.3582 478.992 55.1143C479.146 54.8705 479.352 54.6882 479.61 54.5675C479.868 54.4467 480.154 54.3864 480.469 54.3864C480.692 54.3864 480.89 54.4041 481.062 54.4396C481.235 54.4751 481.363 54.5071 481.446 54.5355L481.19 55.5298C481.136 55.5133 481.067 55.4967 480.984 55.4801C480.901 55.4612 480.809 55.4517 480.707 55.4517C480.468 55.4517 480.299 55.5097 480.199 55.6257C480.102 55.7393 480.054 55.9027 480.054 56.1158V62H478.765ZM482.19 62V56.5455H483.475V62H482.19ZM482.836 55.7713C482.633 55.7713 482.457 55.7038 482.311 55.5689C482.164 55.4316 482.09 55.267 482.09 55.0753C482.09 54.8812 482.164 54.7166 482.311 54.5817C482.457 54.4444 482.633 54.3757 482.836 54.3757C483.042 54.3757 483.217 54.4444 483.362 54.5817C483.508 54.7166 483.582 54.8812 483.582 55.0753C483.582 55.267 483.508 55.4316 483.362 55.5689C483.217 55.7038 483.042 55.7713 482.836 55.7713ZM487.521 56.5455V57.5398H484.385V56.5455H487.521ZM485.159 55.2386H486.445V60.3594C486.445 60.5322 486.471 60.6648 486.523 60.7571C486.578 60.8471 486.649 60.9086 486.736 60.9418C486.824 60.9749 486.921 60.9915 487.027 60.9915C487.108 60.9915 487.181 60.9856 487.248 60.9737C487.316 60.9619 487.368 60.9512 487.404 60.9418L487.62 61.9467C487.552 61.9704 487.453 61.9964 487.326 62.0249C487.2 62.0533 487.046 62.0698 486.864 62.0746C486.542 62.084 486.252 62.0355 485.994 61.929C485.736 61.8201 485.531 61.652 485.38 61.4247C485.23 61.1974 485.157 60.9134 485.159 60.5724V55.2386ZM489.388 62.0781C489.173 62.0781 488.988 62.0024 488.834 61.8509C488.68 61.6993 488.604 61.5147 488.607 61.2969C488.604 61.0838 488.68 60.9015 488.834 60.75C488.988 60.5985 489.173 60.5227 489.388 60.5227C489.596 60.5227 489.777 60.5985 489.931 60.75C490.088 60.9015 490.167 61.0838 490.169 61.2969C490.167 61.4413 490.129 61.5727 490.056 61.6911C489.985 61.8094 489.89 61.9041 489.771 61.9751C489.655 62.0438 489.528 62.0781 489.388 62.0781ZM489.388 58.1861C489.173 58.1861 488.988 58.1103 488.834 57.9588C488.68 57.8049 488.604 57.6203 488.607 57.4048C488.604 57.1918 488.68 57.0095 488.834 56.858C488.988 56.7041 489.173 56.6271 489.388 56.6271C489.596 56.6271 489.777 56.7041 489.931 56.858C490.088 57.0095 490.167 57.1918 490.169 57.4048C490.167 57.5469 490.129 57.6771 490.056 57.7955C489.985 57.9138 489.89 58.0085 489.771 58.0795C489.655 58.1506 489.528 58.1861 489.388 58.1861ZM496.921 54.7273V62H495.603V56.0092H495.561L493.86 57.0959V55.8885L495.667 54.7273H496.921ZM498.767 62V61.0483L501.292 58.5732C501.534 58.3293 501.735 58.1127 501.896 57.9233C502.057 57.7339 502.178 57.5504 502.258 57.3729C502.339 57.1953 502.379 57.0059 502.379 56.8047C502.379 56.575 502.327 56.3786 502.223 56.2152C502.118 56.0495 501.975 55.9216 501.793 55.8317C501.611 55.7417 501.404 55.6967 501.172 55.6967C500.932 55.6967 500.723 55.7464 500.543 55.8459C500.363 55.9429 500.223 56.0814 500.124 56.2614C500.027 56.4413 499.978 56.6555 499.978 56.9041H498.725C498.725 56.4425 498.83 56.0412 499.041 55.7003C499.252 55.3594 499.542 55.0954 499.911 54.9084C500.283 54.7214 500.709 54.6278 501.189 54.6278C501.677 54.6278 502.105 54.719 502.475 54.9013C502.844 55.0836 503.131 55.3333 503.334 55.6506C503.54 55.9678 503.643 56.33 503.643 56.7372C503.643 57.0095 503.591 57.277 503.487 57.5398C503.383 57.8026 503.199 58.0937 502.936 58.4134C502.676 58.733 502.31 59.12 501.839 59.5746L500.586 60.8494V60.8991H503.753V62H498.767ZM505.049 62V54.7273H506.367V58.0689H506.456L509.293 54.7273H510.902L508.089 57.9908L510.926 62H509.343L507.173 58.8821L506.367 59.8338V62H505.049Z" fill="black"/>
<path d="M487.433 72.25C487.241 72.5833 486.759 72.5833 486.567 72.25L483.103 66.25C482.91 65.9167 483.151 65.5 483.536 65.5L490.464 65.5C490.849 65.5 491.09 65.9167 490.897 66.25L487.433 72.25Z" fill="#FFCC00"/>
<rect x="474.5" y="76" width="24" height="24" rx="12" fill="#1E1E1A"/>
<circle cx="486.5" cy="88" r="10" fill="url(#paint2_linear_325_5657)"/>
<defs>
<linearGradient id="paint0_linear_325_5657" x1="294.25" y1="0.5" x2="294.25" y2="161.5" gradientUnits="userSpaceOnUse">
<stop stop-color="#FFDC4E"/>
<stop offset="1" stop-color="#FFCC00"/>
</linearGradient>
<linearGradient id="paint1_linear_325_5657" x1="294.5" y1="62.1514" x2="294.5" y2="252" gradientUnits="userSpaceOnUse">
<stop stop-color="#FFD221" stop-opacity="0.1"/>
<stop offset="1" stop-color="#FFD221" stop-opacity="0"/>
</linearGradient>
<linearGradient id="paint2_linear_325_5657" x1="486.5" y1="78" x2="486.5" y2="98" gradientUnits="userSpaceOnUse">
<stop stop-color="#FFDC4E"/>
<stop offset="1" stop-color="#FFCC00"/>
</linearGradient>
</defs>
</svg>
