<svg width="492" height="41" viewBox="0 0 492 41" fill="none" xmlns="http://www.w3.org/2000/svg">
<rect y="31" width="492" height="6" rx="3" fill="white" fill-opacity="0.1"/>
<rect y="31" width="128" height="6" rx="3" fill="#FFCC00"/>
<circle cx="125" cy="34" r="7" fill="#FFCC00"/>
<rect x="103" width="43" height="16" rx="8" fill="url(#paint0_linear_632_23164)"/>
<path d="M113.913 12L117.006 5.87784V5.82812H113.415V4.72727H118.369V5.85298L115.28 12H113.913ZM119.072 12.0781C118.856 12.0781 118.671 12.0024 118.518 11.8509C118.364 11.6993 118.288 11.5147 118.29 11.2969C118.288 11.0838 118.364 10.9015 118.518 10.75C118.671 10.5985 118.856 10.5227 119.072 10.5227C119.28 10.5227 119.461 10.5985 119.615 10.75C119.771 10.9015 119.85 11.0838 119.853 11.2969C119.85 11.4413 119.813 11.5727 119.739 11.6911C119.668 11.8094 119.573 11.9041 119.455 11.9751C119.339 12.0438 119.211 12.0781 119.072 12.0781ZM123.606 12.0994C123.133 12.0994 122.709 12.0107 122.335 11.8331C121.961 11.6532 121.664 11.407 121.444 11.0945C121.226 10.782 121.11 10.4245 121.096 10.022H122.374C122.398 10.3203 122.527 10.5642 122.761 10.7536C122.996 10.9406 123.277 11.0341 123.606 11.0341C123.864 11.0341 124.094 10.9749 124.295 10.8565C124.497 10.7382 124.655 10.5736 124.771 10.3629C124.887 10.1522 124.944 9.91193 124.942 9.64205C124.944 9.36742 124.886 9.12358 124.768 8.91051C124.649 8.69744 124.487 8.53054 124.281 8.4098C124.075 8.28669 123.838 8.22514 123.571 8.22514C123.353 8.22277 123.139 8.26302 122.928 8.34588C122.717 8.42874 122.55 8.53764 122.427 8.67259L121.238 8.47727L121.618 4.72727H125.836V5.82812H122.708L122.498 7.75639H122.541C122.676 7.59777 122.867 7.46638 123.113 7.36222C123.359 7.25568 123.629 7.20241 123.922 7.20241C124.363 7.20241 124.756 7.30658 125.101 7.51491C125.447 7.72088 125.719 8.00497 125.918 8.36719C126.117 8.7294 126.216 9.1437 126.216 9.61009C126.216 10.0907 126.105 10.5192 125.883 10.8956C125.662 11.2696 125.356 11.5644 124.963 11.7798C124.572 11.9929 124.12 12.0994 123.606 12.0994ZM131.295 10.6364V10.2528C131.295 9.97112 131.354 9.71188 131.472 9.47514C131.593 9.2384 131.768 9.04782 131.998 8.90341C132.227 8.759 132.506 8.68679 132.832 8.68679C133.168 8.68679 133.45 8.759 133.677 8.90341C133.905 9.04545 134.076 9.23485 134.192 9.47159C134.311 9.70833 134.37 9.96875 134.37 10.2528V10.6364C134.37 10.9181 134.311 11.1773 134.192 11.4141C134.074 11.6508 133.9 11.8414 133.67 11.9858C133.443 12.1302 133.164 12.2024 132.832 12.2024C132.501 12.2024 132.22 12.1302 131.991 11.9858C131.761 11.8414 131.587 11.6508 131.469 11.4141C131.353 11.1773 131.295 10.9181 131.295 10.6364ZM132.221 10.2528V10.6364C132.221 10.8234 132.266 10.995 132.356 11.1513C132.446 11.3075 132.605 11.3857 132.832 11.3857C133.062 11.3857 133.219 11.3087 133.305 11.1548C133.392 10.9986 133.436 10.8258 133.436 10.6364V10.2528C133.436 10.0634 133.394 9.89062 133.312 9.73438C133.229 9.57576 133.069 9.49645 132.832 9.49645C132.61 9.49645 132.452 9.57576 132.36 9.73438C132.268 9.89062 132.221 10.0634 132.221 10.2528ZM127.598 6.47443V6.09091C127.598 5.80682 127.658 5.5464 127.779 5.30966C127.9 5.07292 128.075 4.88352 128.305 4.74148C128.534 4.59706 128.812 4.52486 129.139 4.52486C129.473 4.52486 129.753 4.59706 129.981 4.74148C130.21 4.88352 130.383 5.07292 130.499 5.30966C130.615 5.5464 130.673 5.80682 130.673 6.09091V6.47443C130.673 6.75852 130.614 7.01894 130.496 7.25568C130.38 7.49006 130.207 7.67827 129.977 7.82031C129.747 7.96236 129.468 8.03338 129.139 8.03338C128.805 8.03338 128.523 7.96236 128.294 7.82031C128.067 7.67827 127.894 7.48887 127.775 7.25213C127.657 7.01539 127.598 6.75616 127.598 6.47443ZM128.532 6.09091V6.47443C128.532 6.66383 128.576 6.83665 128.663 6.9929C128.753 7.14678 128.912 7.22372 129.139 7.22372C129.366 7.22372 129.523 7.14678 129.608 6.9929C129.695 6.83665 129.739 6.66383 129.739 6.47443V6.09091C129.739 5.90152 129.698 5.72869 129.615 5.57244C129.532 5.41383 129.373 5.33452 129.139 5.33452C128.914 5.33452 128.757 5.41383 128.667 5.57244C128.577 5.73106 128.532 5.90388 128.532 6.09091ZM128.003 12L133.003 4.72727H133.89L128.89 12H128.003Z" fill="black"/>
<path d="M125.433 22.25C125.241 22.5833 124.759 22.5833 124.567 22.25L121.103 16.25C120.91 15.9167 121.151 15.5 121.536 15.5L128.464 15.5C128.849 15.5 129.09 15.9167 128.897 16.25L125.433 22.25Z" fill="#FFCF10"/>
<defs>
<linearGradient id="paint0_linear_632_23164" x1="124.5" y1="0" x2="124.5" y2="16" gradientUnits="userSpaceOnUse">
<stop stop-color="#FFDC4E"/>
<stop offset="1" stop-color="#FFCC00"/>
</linearGradient>
</defs>
</svg>
