<svg width="324" height="352" viewBox="0 0 324 352" fill="none" xmlns="http://www.w3.org/2000/svg">
<g filter="url(#filter0_ddd_140_1863)">
<path d="M139.427 33.5441L69.6208 66.0431C49.4292 75.4434 36.1045 96.495 37.3894 119.602C42.4125 209.936 67.6661 249.705 133.286 296.241C150.67 308.569 173.585 308.6 190.955 296.252C256.778 249.462 281.128 209.131 286.592 119.914C288.017 96.6552 274.67 75.3801 254.338 65.9142L184.809 33.5441C170.363 26.8186 153.873 26.8187 139.427 33.5441Z" fill="url(#paint0_linear_140_1863)" fill-opacity="0.6" shape-rendering="crispEdges"/>
<path d="M139.427 33.5441L69.6208 66.0431C49.4292 75.4434 36.1045 96.495 37.3894 119.602C42.4125 209.936 67.6661 249.705 133.286 296.241C150.67 308.569 173.585 308.6 190.955 296.252C256.778 249.462 281.128 209.131 286.592 119.914C288.017 96.6552 274.67 75.3801 254.338 65.9142L184.809 33.5441C170.363 26.8186 153.873 26.8187 139.427 33.5441Z" stroke="white" stroke-opacity="0.1" stroke-width="0.920266" stroke-linejoin="round" shape-rendering="crispEdges"/>
</g>
<path d="M145.758 70.7822L95.528 94.1757C80.999 100.942 71.4111 116.096 72.3356 132.728C75.9501 197.753 94.1215 226.38 141.339 259.878C153.848 268.752 170.336 268.773 182.835 259.885C230.198 226.205 247.719 197.174 251.651 132.954C252.676 116.211 243.073 100.897 228.443 94.083L178.412 70.7822C168.018 65.9411 156.152 65.9411 145.758 70.7822Z" fill="url(#paint1_linear_140_1863)" fill-opacity="0.4" stroke="white" stroke-opacity="0.1" stroke-width="0.920266" stroke-linejoin="round"/>
<g filter="url(#filter1_dd_140_1863)">
<circle cx="162.46" cy="166.54" r="46.0133" fill="black" fill-opacity="0.4"/>
<circle cx="162.46" cy="166.54" r="45.5532" stroke="white" stroke-opacity="0.1" stroke-width="0.920266"/>
</g>
<path fill-rule="evenodd" clip-rule="evenodd" d="M162.46 189.547C175.166 189.547 185.467 179.247 185.467 166.54C185.467 153.834 175.166 143.534 162.46 143.534C149.754 143.534 139.453 153.834 139.453 166.54C139.453 179.247 149.754 189.547 162.46 189.547ZM173.025 160.698C173.61 159.946 173.474 158.861 172.722 158.276C171.97 157.691 170.886 157.827 170.301 158.579L161.082 170.432C160.877 170.695 160.491 170.73 160.243 170.506L154.412 165.258C153.703 164.62 152.612 164.678 151.975 165.386C151.337 166.094 151.395 167.185 152.103 167.823L157.935 173.071C159.672 174.635 162.371 174.395 163.806 172.55L173.025 160.698Z" fill="url(#paint2_linear_140_1863)"/>
<defs>
<filter id="filter0_ddd_140_1863" x="0.0331192" y="0.432066" width="323.934" height="351.541" filterUnits="userSpaceOnUse" color-interpolation-filters="sRGB">
<feFlood flood-opacity="0" result="BackgroundImageFix"/>
<feColorMatrix in="SourceAlpha" type="matrix" values="0 0 0 0 0 0 0 0 0 0 0 0 0 0 0 0 0 0 127 0" result="hardAlpha"/>
<feOffset dy="9.20266"/>
<feGaussianBlur stdDeviation="18.4053"/>
<feComposite in2="hardAlpha" operator="out"/>
<feColorMatrix type="matrix" values="0 0 0 0 0 0 0 0 0 0 0 0 0 0 0 0 0 0 0.2 0"/>
<feBlend mode="normal" in2="BackgroundImageFix" result="effect1_dropShadow_140_1863"/>
<feColorMatrix in="SourceAlpha" type="matrix" values="0 0 0 0 0 0 0 0 0 0 0 0 0 0 0 0 0 0 127 0" result="hardAlpha"/>
<feOffset dy="1.84053"/>
<feGaussianBlur stdDeviation="1.84053"/>
<feComposite in2="hardAlpha" operator="out"/>
<feColorMatrix type="matrix" values="0 0 0 0 0 0 0 0 0 0 0 0 0 0 0 0 0 0 0.04 0"/>
<feBlend mode="normal" in2="effect1_dropShadow_140_1863" result="effect2_dropShadow_140_1863"/>
<feColorMatrix in="SourceAlpha" type="matrix" values="0 0 0 0 0 0 0 0 0 0 0 0 0 0 0 0 0 0 127 0" result="hardAlpha"/>
<feMorphology radius="0.920266" operator="dilate" in="SourceAlpha" result="effect3_dropShadow_140_1863"/>
<feOffset/>
<feComposite in2="hardAlpha" operator="out"/>
<feColorMatrix type="matrix" values="0 0 0 0 0 0 0 0 0 0 0 0 0 0 0 0 0 0 0.06 0"/>
<feBlend mode="normal" in2="effect2_dropShadow_140_1863" result="effect3_dropShadow_140_1863"/>
<feBlend mode="normal" in="SourceGraphic" in2="effect3_dropShadow_140_1863" result="shape"/>
</filter>
<filter id="filter1_dd_140_1863" x="98.0415" y="109.483" width="128.837" height="128.837" filterUnits="userSpaceOnUse" color-interpolation-filters="sRGB">
<feFlood flood-opacity="0" result="BackgroundImageFix"/>
<feColorMatrix in="SourceAlpha" type="matrix" values="0 0 0 0 0 0 0 0 0 0 0 0 0 0 0 0 0 0 127 0" result="hardAlpha"/>
<feMorphology radius="3.68106" operator="erode" in="SourceAlpha" result="effect1_dropShadow_140_1863"/>
<feOffset dy="7.36213"/>
<feGaussianBlur stdDeviation="11.0432"/>
<feColorMatrix type="matrix" values="0 0 0 0 0.0941176 0 0 0 0 0.152941 0 0 0 0 0.294118 0 0 0 0.08 0"/>
<feBlend mode="normal" in2="BackgroundImageFix" result="effect1_dropShadow_140_1863"/>
<feColorMatrix in="SourceAlpha" type="matrix" values="0 0 0 0 0 0 0 0 0 0 0 0 0 0 0 0 0 0 127 0" result="hardAlpha"/>
<feMorphology radius="5.5216" operator="erode" in="SourceAlpha" result="effect2_dropShadow_140_1863"/>
<feOffset dy="5.5216"/>
<feGaussianBlur stdDeviation="5.5216"/>
<feColorMatrix type="matrix" values="0 0 0 0 0.0941176 0 0 0 0 0.152941 0 0 0 0 0.294118 0 0 0 0.12 0"/>
<feBlend mode="normal" in2="effect1_dropShadow_140_1863" result="effect2_dropShadow_140_1863"/>
<feBlend mode="normal" in="SourceGraphic" in2="effect2_dropShadow_140_1863" result="shape"/>
</filter>
<linearGradient id="paint0_linear_140_1863" x1="162" y1="28.5" x2="162" y2="305.5" gradientUnits="userSpaceOnUse">
<stop/>
<stop offset="1"/>
</linearGradient>
<linearGradient id="paint1_linear_140_1863" x1="162" y1="67.1514" x2="162" y2="266.542" gradientUnits="userSpaceOnUse">
<stop/>
<stop offset="1"/>
</linearGradient>
<linearGradient id="paint2_linear_140_1863" x1="162.46" y1="143.534" x2="162.46" y2="189.547" gradientUnits="userSpaceOnUse">
<stop stop-color="#FFDC4E"/>
<stop offset="1" stop-color="#FFCC00"/>
</linearGradient>
</defs>
</svg>
