<svg width="22" height="22" viewBox="0 0 22 22" fill="none" xmlns="http://www.w3.org/2000/svg">
<path d="M18 1H20C20.5523 1 21 1.44772 21 2V4M20 2C12.0585 8.39136 7.94212 10.1129 1 11M17 9V19C17 20.1046 17.8954 21 19 21C20.1046 21 21 20.1046 21 19V9C21 7.89543 20.1046 7 19 7C17.8954 7 17 7.89543 17 9ZM1 17L1 19C1 20.1046 1.89543 21 3 21C4.10457 21 5 20.1046 5 19L5 17C5 15.8954 4.10457 15 3 15C1.89543 15 1 15.8954 1 17ZM9 13V19C9 20.1046 9.89543 21 11 21C12.1046 21 13 20.1046 13 19V13C13 11.8954 12.1046 11 11 11C9.89543 11 9 11.8954 9 13Z" stroke="white" stroke-width="1.5" stroke-linecap="round" stroke-linejoin="round"/>
</svg>
