<svg width="33" height="32" viewBox="0 0 33 32" fill="none" xmlns="http://www.w3.org/2000/svg">
<path d="M28.524 19.7808L28.1968 20.7258L28.1968 20.7258L28.524 19.7808ZM28.524 12.2192L28.8511 13.1641H28.8511L28.524 12.2192ZM4.4757 19.7808L4.80286 20.7258L4.80286 20.7258L4.4757 19.7808ZM4.4757 12.2192L4.14853 13.1641H4.14853L4.4757 12.2192ZM21.2069 12.7071C21.5975 12.3166 21.5975 11.6834 21.2069 11.2929C20.8164 10.9024 20.1833 10.9024 19.7927 11.2929L21.2069 12.7071ZM11.7927 19.2929C11.4022 19.6834 11.4022 20.3166 11.7927 20.7071C12.1833 21.0976 12.8164 21.0976 13.2069 20.7071L11.7927 19.2929ZM8.49984 27C6.1066 27 4.1665 25.0599 4.1665 22.6667H2.1665C2.1665 26.1645 5.00203 29 8.49984 29V27ZM28.8332 22.6667C28.8332 25.0599 26.8931 27 24.4998 27V29C27.9976 29 30.8332 26.1645 30.8332 22.6667H28.8332ZM24.4998 5C26.8931 5 28.8332 6.9401 28.8332 9.33333H30.8332C30.8332 5.83553 27.9976 3 24.4998 3V5ZM8.49984 3C5.00203 3 2.1665 5.83553 2.1665 9.33333H4.1665C4.1665 6.9401 6.1066 5 8.49984 5V3ZM28.8511 18.8359C27.6752 18.4288 26.8332 17.3114 26.8332 16H24.8332C24.8332 18.1898 26.2404 20.0484 28.1968 20.7258L28.8511 18.8359ZM26.8332 16C26.8332 14.6886 27.6752 13.5713 28.8511 13.1641L28.1968 11.2742C26.2404 11.9516 24.8332 13.8102 24.8332 16H26.8332ZM6.1665 16C6.1665 17.3114 5.32444 18.4288 4.14853 18.8359L4.80286 20.7258C6.75932 20.0484 8.1665 18.1898 8.1665 16H6.1665ZM4.14853 13.1641C5.32444 13.5713 6.1665 14.6886 6.1665 16H8.1665C8.1665 13.8102 6.75932 11.9516 4.80286 11.2742L4.14853 13.1641ZM30.8332 10.6667V9.33333H28.8332V10.6667H30.8332ZM28.8332 21.3333V22.6667H30.8332V21.3333H28.8332ZM2.1665 21.3333V22.6667H4.1665V21.3333H2.1665ZM4.1665 10.6667V9.33333H2.1665V10.6667H4.1665ZM24.4998 27H8.49984V29H24.4998V27ZM24.4998 3H8.49984V5H24.4998V3ZM4.14853 18.8359C3.24363 19.1492 2.1665 19.9967 2.1665 21.3333H4.1665C4.1665 21.2588 4.19424 21.1611 4.30213 21.0417C4.41531 20.9165 4.59283 20.7985 4.80286 20.7258L4.14853 18.8359ZM28.8511 13.1641C29.756 12.8508 30.8332 12.0033 30.8332 10.6667H28.8332C28.8332 10.7412 28.8054 10.8389 28.6975 10.9583C28.5844 11.0835 28.4068 11.2015 28.1968 11.2742L28.8511 13.1641ZM4.80286 11.2742C4.59283 11.2015 4.41531 11.0835 4.30213 10.9583C4.19424 10.8389 4.1665 10.7412 4.1665 10.6667H2.1665C2.1665 12.0033 3.24363 12.8508 4.14853 13.1641L4.80286 11.2742ZM28.1968 20.7258C28.4068 20.7985 28.5844 20.9165 28.6975 21.0417C28.8054 21.1611 28.8332 21.2588 28.8332 21.3333H30.8332C30.8332 19.9967 29.756 19.1492 28.8511 18.8359L28.1968 20.7258ZM12.8332 12C12.8332 12.1841 12.6839 12.3333 12.4998 12.3333V14.3333C13.7885 14.3333 14.8332 13.2887 14.8332 12H12.8332ZM12.4998 12.3333C12.3157 12.3333 12.1665 12.1841 12.1665 12H10.1665C10.1665 13.2887 11.2112 14.3333 12.4998 14.3333V12.3333ZM12.1665 12C12.1665 11.8159 12.3157 11.6667 12.4998 11.6667V9.66667C11.2112 9.66667 10.1665 10.7113 10.1665 12H12.1665ZM12.4998 11.6667C12.6839 11.6667 12.8332 11.8159 12.8332 12H14.8332C14.8332 10.7113 13.7885 9.66667 12.4998 9.66667V11.6667ZM20.8332 20C20.8332 20.1841 20.6839 20.3333 20.4998 20.3333V22.3333C21.7885 22.3333 22.8332 21.2887 22.8332 20H20.8332ZM20.4998 20.3333C20.3157 20.3333 20.1665 20.1841 20.1665 20H18.1665C18.1665 21.2887 19.2112 22.3333 20.4998 22.3333V20.3333ZM20.1665 20C20.1665 19.8159 20.3157 19.6667 20.4998 19.6667V17.6667C19.2112 17.6667 18.1665 18.7113 18.1665 20H20.1665ZM20.4998 19.6667C20.6839 19.6667 20.8332 19.8159 20.8332 20H22.8332C22.8332 18.7113 21.7885 17.6667 20.4998 17.6667V19.6667ZM19.7927 11.2929L11.7927 19.2929L13.2069 20.7071L21.2069 12.7071L19.7927 11.2929Z" fill="#FFCC00"/>
</svg>
