<svg width="25" height="24" viewBox="0 0 25 24" fill="none" xmlns="http://www.w3.org/2000/svg">
<path d="M21.6665 16V18C21.6665 19.6569 20.3234 21 18.6665 21C17.0096 21 15.6665 19.6569 15.6665 18V16C15.6665 14.3431 17.0096 13 18.6665 13C20.3234 13 21.6665 14.3431 21.6665 16ZM21.6665 16V12C21.6665 7.02944 17.6371 3 12.6665 3C7.69594 3 3.6665 7.02944 3.6665 12V16M3.6665 16V18C3.6665 19.6569 5.00965 21 6.6665 21C8.32336 21 9.6665 19.6569 9.6665 18V16C9.6665 14.3431 8.32336 13 6.6665 13C5.00965 13 3.6665 14.3431 3.6665 16Z" stroke="white" stroke-width="1.5" stroke-linecap="square" stroke-linejoin="round"/>
</svg>
