<svg width="24" height="24" viewBox="0 0 24 24" fill="none" xmlns="http://www.w3.org/2000/svg">
<path d="M18.6 6.62012C21.58 6.62012 24 9.00012 24 12.0001C24 14.9601 21.58 17.3701 18.6 17.3701C17.15 17.3701 15.8 16.8101 14.78 15.8001L12 13.3401L9.17 15.8501C8.2 16.8201 6.84 17.3801 5.4 17.3801C2.42 17.3801 0 14.9601 0 12.0001C0 9.04012 2.42 6.62012 5.4 6.62012C6.84 6.62012 8.2 7.18012 9.22 8.20012L12 10.6601L14.83 8.15012C15.8 7.18012 17.16 6.62012 18.6 6.62012ZM7.8 14.3901L10.5 12.0001L7.84 9.65012C7.16 8.97012 6.31 8.62012 5.4 8.62012C3.53 8.62012 2 10.1301 2 12.0001C2 13.8701 3.53 15.3801 5.4 15.3801C6.31 15.3801 7.16 15.0301 7.8 14.3901ZM16.2 9.61012L13.5 12.0001L16.16 14.3501C16.84 15.0301 17.7 15.3801 18.6 15.3801C20.47 15.3801 22 13.8701 22 12.0001C22 10.1301 20.47 8.62012 18.6 8.62012C17.69 8.62012 16.84 8.97012 16.2 9.61012Z" fill="white"/>
</svg>
