<svg width="22" height="20" viewBox="0 0 22 20" fill="none" xmlns="http://www.w3.org/2000/svg">
<g id="Vector">
<path d="M5 6H3C1.89543 6 1 6.89543 1 8V17C1 18.1046 1.89543 19 3 19H5C6.10457 19 7 18.1046 7 17V8C7 6.89543 6.10457 6 5 6Z" stroke="white" stroke-width="1.5" stroke-linecap="round" stroke-linejoin="round"/>
<path d="M14.8769 19H11.2111C10.4214 19 9.64937 18.7662 8.9923 18.3282L7.4453 17.2969C7.1671 17.1114 7 16.7992 7 16.4648V8.26556C7 8.09154 7.04541 7.92052 7.13176 7.76943L11 1H12.3287C14.3254 1 15.5164 3.22536 14.4088 4.88675L13 7H18.4384C19.7396 7 20.6943 8.22278 20.3787 9.48507L18.7575 15.9701C18.3123 17.7508 16.7124 19 14.8769 19Z" stroke="white" stroke-width="1.5" stroke-linecap="round" stroke-linejoin="round"/>
</g>
</svg>
