<svg width="25" height="24" viewBox="0 0 25 24" fill="none" xmlns="http://www.w3.org/2000/svg">
<g id="lucide:rocket">
<g id="Group">
<path id="Vector" d="M4.83325 16.5C3.33325 17.76 2.83325 21.5 2.83325 21.5C2.83325 21.5 6.57325 21 7.83325 19.5C8.54325 18.66 8.53325 17.37 7.74325 16.59C7.35456 16.219 6.84255 16.0046 6.30548 15.988C5.76841 15.9714 5.24413 16.1537 4.83325 16.5ZM12.3333 15L9.33325 12C9.8654 10.6194 10.5355 9.29607 11.3333 8.05C12.4984 6.18699 14.1209 4.65305 16.0463 3.5941C17.9716 2.53514 20.1359 1.98637 22.3333 2C22.3333 4.72 21.5533 9.5 16.3333 13C15.07 13.7984 13.73 14.4684 12.3333 15Z" stroke="white" stroke-width="1.5" stroke-linecap="round" stroke-linejoin="round"/>
<path id="Vector_2" d="M9.33325 12H4.33325C4.33325 12 4.88325 8.97002 6.33325 8.00002C7.95325 6.92002 11.3333 8.00002 11.3333 8.00002M12.3333 15V20C12.3333 20 15.3633 19.45 16.3333 18C17.4133 16.38 16.3333 13 16.3333 13" stroke="white" stroke-width="1.5" stroke-linecap="round" stroke-linejoin="round"/>
</g>
</g>
</svg>
