<svg width="32" height="32" viewBox="0 0 32 32" fill="none" xmlns="http://www.w3.org/2000/svg">
<path d="M28 21.3333V24C28 26.2091 26.2091 28 24 28C21.7909 28 20 26.2091 20 24V21.3333C20 19.1242 21.7909 17.3333 24 17.3333C26.2091 17.3333 28 19.1242 28 21.3333ZM28 21.3333V16C28 9.37258 22.6274 4 16 4C9.37258 4 4 9.37258 4 16V21.3333M4 21.3333V24C4 26.2091 5.79086 28 8 28C10.2091 28 12 26.2091 12 24V21.3333C12 19.1242 10.2091 17.3333 8 17.3333C5.79086 17.3333 4 19.1242 4 21.3333Z" stroke="#FFCC00" stroke-width="1.5" stroke-linecap="square" stroke-linejoin="round"/>
</svg>
