<svg width="25" height="20" viewBox="0 0 25 20" fill="none" xmlns="http://www.w3.org/2000/svg">
<path d="M21.1634 2.09917C19.5426 1.35525 17.8321 0.824703 16.0748 0.520792C16.0588 0.517876 16.0424 0.520048 16.0277 0.527001C16.013 0.533953 16.0009 0.545335 15.993 0.559542C15.7733 0.950292 15.5298 1.46029 15.3594 1.86104C13.4378 1.57329 11.5262 1.57329 9.64405 1.86104C9.47355 1.45129 9.2213 0.950292 9.00055 0.559542C8.99242 0.545565 8.98024 0.53438 8.96562 0.527463C8.95101 0.520545 8.93464 0.518219 8.91867 0.520792C7.16119 0.824015 5.45063 1.35459 3.83005 2.09917C3.81625 2.10517 3.80458 2.11519 3.79655 2.12792C0.555549 6.96992 -0.332201 11.6929 0.103299 16.3574C0.105953 16.3805 0.117642 16.4015 0.135799 16.4159C2.27405 17.9863 4.34542 18.9397 6.3783 19.5715C6.39411 19.5762 6.41098 19.576 6.42665 19.5708C6.44233 19.5657 6.45607 19.5559 6.46605 19.5428C6.94692 18.886 7.37555 18.1937 7.74317 17.4655C7.74824 17.4556 7.75113 17.4446 7.75165 17.4335C7.75218 17.4223 7.75034 17.4111 7.74624 17.4007C7.74214 17.3903 7.73588 17.3809 7.72788 17.3731C7.71987 17.3653 7.7103 17.3593 7.6998 17.3554C7.0198 17.0974 6.37242 16.783 5.74967 16.4259C5.73833 16.4192 5.72881 16.4099 5.72194 16.3986C5.71507 16.3874 5.71107 16.3747 5.7103 16.3615C5.70952 16.3484 5.71198 16.3352 5.71748 16.3233C5.72297 16.3113 5.73132 16.3009 5.7418 16.2929C5.87318 16.1947 6.0023 16.0935 6.12905 15.9894C6.14016 15.9803 6.1536 15.9744 6.16786 15.9724C6.18212 15.9705 6.19665 15.9726 6.2098 15.9784C10.3013 17.8464 14.7307 17.8464 18.7738 15.9784C18.787 15.9722 18.8017 15.9699 18.8162 15.9716C18.8307 15.9734 18.8444 15.9792 18.8557 15.9884C18.9826 16.0931 19.112 16.1946 19.2439 16.2929C19.2544 16.3008 19.2629 16.3112 19.2684 16.3231C19.274 16.335 19.2766 16.3481 19.2759 16.3612C19.2752 16.3744 19.2713 16.3872 19.2645 16.3984C19.2578 16.4097 19.2483 16.4191 19.237 16.4259C18.614 16.7898 17.9613 17.1004 17.2859 17.3544C17.2755 17.3585 17.266 17.3647 17.2581 17.3726C17.2501 17.3805 17.244 17.3901 17.24 17.4005C17.236 17.411 17.2342 17.4222 17.2349 17.4334C17.2355 17.4446 17.2384 17.4556 17.2435 17.4655C17.6175 18.1879 18.044 18.8819 18.5195 19.5418C18.5293 19.5552 18.543 19.5653 18.5587 19.5707C18.5744 19.576 18.5914 19.5763 18.6073 19.5715C20.65 18.9397 22.7214 17.9863 24.8598 16.4159C24.8689 16.4091 24.8766 16.4005 24.8822 16.3906C24.8878 16.3807 24.8912 16.3697 24.8923 16.3584C25.4135 10.9658 24.0192 6.28142 21.1959 2.12892C21.1891 2.11538 21.1775 2.10481 21.1634 2.09917ZM8.35417 13.5173C7.1223 13.5173 6.1073 12.3864 6.1073 10.9975C6.1073 9.60867 7.10267 8.47779 8.35417 8.47779C9.61542 8.47779 10.6205 9.61867 10.6008 10.9975C10.6008 12.3864 9.60555 13.5173 8.35417 13.5173ZM16.6612 13.5173C15.4293 13.5173 14.4144 12.3864 14.4144 10.9975C14.4144 9.60867 15.4097 8.47779 16.6612 8.47779C17.9224 8.47779 18.9275 9.61867 18.9079 10.9975C18.9079 12.3864 17.9224 13.5173 16.6612 13.5173Z" fill="black"/>
</svg>
